<svg xmlns="http://www.w3.org/2000/svg" width="1031" height="300" viewBox="0 0 1031 300">
  <g id="Grupo_983854" data-name="Grupo 983854" transform="translate(-285 -1638)">
    <path id="Trazado_728712" data-name="Trazado 728712" d="M35.5,0h329a35.5,35.5,0,0,1,0,71H35.5a35.5,35.5,0,0,1,0-71Z" transform="translate(600 1638)" fill="#34bc85"/>
    <path id="Trazado_728713" data-name="Trazado 728713" d="M42.211,10.836H40.344V15H38V3.625h4.227a4.778,4.778,0,0,1,3.109.9A3.1,3.1,0,0,1,46.43,7.063,3.5,3.5,0,0,1,45.926,9,3.437,3.437,0,0,1,44.4,10.242l2.461,4.648V15H44.344Zm-1.867-1.9h1.891A1.936,1.936,0,0,0,43.6,8.488a1.606,1.606,0,0,0,.484-1.238,1.719,1.719,0,0,0-.457-1.266,1.9,1.9,0,0,0-1.4-.461H40.344Zm14.711,1.117h-4.5v3.063h5.281V15H48.211V3.625H55.82v1.9H50.555V8.234h4.5Zm8.055,1.961A1.2,1.2,0,0,0,62.641,11a6.148,6.148,0,0,0-1.687-.75,11.963,11.963,0,0,1-1.93-.777,3.153,3.153,0,0,1-1.937-2.82A2.747,2.747,0,0,1,57.605,5,3.389,3.389,0,0,1,59.1,3.875a5.616,5.616,0,0,1,2.184-.406,5.112,5.112,0,0,1,2.172.441,3.458,3.458,0,0,1,1.48,1.246,3.261,3.261,0,0,1,.527,1.828H63.117a1.534,1.534,0,0,0-.492-1.215,2.023,2.023,0,0,0-1.383-.434,2.162,2.162,0,0,0-1.336.363,1.146,1.146,0,0,0-.477.957,1.1,1.1,0,0,0,.559.93,6.311,6.311,0,0,0,1.645.7,7.106,7.106,0,0,1,2.914,1.492A2.972,2.972,0,0,1,65.461,12a2.737,2.737,0,0,1-1.117,2.316,4.891,4.891,0,0,1-3.008.84,5.808,5.808,0,0,1-2.391-.48A3.783,3.783,0,0,1,57.3,13.359a3.371,3.371,0,0,1-.566-1.937h2.352q0,1.883,2.25,1.883a2.189,2.189,0,0,0,1.3-.34A1.106,1.106,0,0,0,63.109,12.016ZM69.539,15H67.2V3.625h2.344Zm2.172,0V3.625h3.5a5.315,5.315,0,0,1,2.684.676,4.712,4.712,0,0,1,1.848,1.922,5.928,5.928,0,0,1,.664,2.832v.523a5.945,5.945,0,0,1-.652,2.82,4.672,4.672,0,0,1-1.84,1.914,5.355,5.355,0,0,1-2.68.688Zm2.344-9.477v7.594h1.133a2.545,2.545,0,0,0,2.1-.9,4.06,4.06,0,0,0,.742-2.57v-.6a4.124,4.124,0,0,0-.719-2.629,2.537,2.537,0,0,0-2.1-.895Zm16.664-1.9v7.492a3.836,3.836,0,0,1-1.168,2.953,4.5,4.5,0,0,1-3.191,1.086A4.553,4.553,0,0,1,83.2,14.1,3.77,3.77,0,0,1,82,11.2V3.625h2.344v7.508a2.167,2.167,0,0,0,.535,1.629,2.054,2.054,0,0,0,1.48.512q1.977,0,2.008-2.078V3.625ZM101.984,9.57a6.867,6.867,0,0,1-.594,2.945,4.472,4.472,0,0,1-1.7,1.953,5.021,5.021,0,0,1-5.059.008,4.515,4.515,0,0,1-1.719-1.941,6.67,6.67,0,0,1-.617-2.9V9.07A6.831,6.831,0,0,1,92.9,6.113a4.508,4.508,0,0,1,1.711-1.961,5.014,5.014,0,0,1,5.055,0,4.508,4.508,0,0,1,1.711,1.961,6.811,6.811,0,0,1,.605,2.949Zm-2.375-.516a4.787,4.787,0,0,0-.641-2.719,2.263,2.263,0,0,0-3.648-.012,4.732,4.732,0,0,0-.648,2.691V9.57a4.847,4.847,0,0,0,.641,2.7,2.243,2.243,0,0,0,3.656.035,4.819,4.819,0,0,0,.641-2.7Zm9.977,2.961a1.2,1.2,0,0,0-.469-1.02,6.148,6.148,0,0,0-1.687-.75,11.963,11.963,0,0,1-1.93-.777,3.153,3.153,0,0,1-1.937-2.82A2.747,2.747,0,0,1,104.082,5a3.389,3.389,0,0,1,1.492-1.129,5.616,5.616,0,0,1,2.184-.406,5.112,5.112,0,0,1,2.172.441,3.458,3.458,0,0,1,1.48,1.246,3.261,3.261,0,0,1,.527,1.828h-2.344A1.534,1.534,0,0,0,109.1,5.77a2.023,2.023,0,0,0-1.383-.434,2.162,2.162,0,0,0-1.336.363,1.146,1.146,0,0,0-.477.957,1.1,1.1,0,0,0,.559.93,6.311,6.311,0,0,0,1.645.7,7.106,7.106,0,0,1,2.914,1.492A2.972,2.972,0,0,1,111.938,12a2.737,2.737,0,0,1-1.117,2.316,4.891,4.891,0,0,1-3.008.84,5.808,5.808,0,0,1-2.391-.48,3.783,3.783,0,0,1-1.645-1.316,3.371,3.371,0,0,1-.566-1.937h2.352q0,1.883,2.25,1.883a2.189,2.189,0,0,0,1.3-.34A1.106,1.106,0,0,0,109.586,12.016Zm10.266-1.023V15h-2.344V3.625h4.438a5.134,5.134,0,0,1,2.254.469,3.454,3.454,0,0,1,1.5,1.332,3.714,3.714,0,0,1,.523,1.965,3.266,3.266,0,0,1-1.145,2.637,4.767,4.767,0,0,1-3.168.965Zm0-1.9h2.094a2.059,2.059,0,0,0,1.418-.437,1.591,1.591,0,0,0,.488-1.25,1.876,1.876,0,0,0-.492-1.352A1.839,1.839,0,0,0,122,5.523h-2.148Zm14.82.961h-4.5v3.063h5.281V15h-7.625V3.625h7.609v1.9h-5.266V8.234h4.5Zm4.5,3.063h4.977V15h-7.32V3.625h2.344ZM147.984,15h-2.344V3.625h2.344Zm11.172-1.437a4.068,4.068,0,0,1-1.789,1.176,7.492,7.492,0,0,1-2.562.418,5.076,5.076,0,0,1-2.59-.645,4.3,4.3,0,0,1-1.719-1.871,6.585,6.585,0,0,1-.621-2.883V8.984a6.994,6.994,0,0,1,.574-2.949,4.248,4.248,0,0,1,1.656-1.906,5.453,5.453,0,0,1,5.7.3,4.123,4.123,0,0,1,1.352,2.809h-2.281a2.268,2.268,0,0,0-.691-1.43,2.208,2.208,0,0,0-1.473-.453,2.078,2.078,0,0,0-1.82.9,4.724,4.724,0,0,0-.633,2.672v.727a4.5,4.5,0,0,0,.68,2.7,2.327,2.327,0,0,0,1.992.914,2.6,2.6,0,0,0,1.883-.562V10.75H154.68V9.023h4.477Zm6.109-2.727H163.4V15h-2.344V3.625h4.227a4.778,4.778,0,0,1,3.109.9,3.1,3.1,0,0,1,1.094,2.539A3.5,3.5,0,0,1,168.98,9a3.437,3.437,0,0,1-1.527,1.238l2.461,4.648V15H167.4Zm-1.867-1.9h1.891a1.936,1.936,0,0,0,1.367-.449,1.606,1.606,0,0,0,.484-1.238,1.719,1.719,0,0,0-.457-1.266,1.9,1.9,0,0,0-1.4-.461H163.4Zm17.211.633a6.867,6.867,0,0,1-.594,2.945,4.471,4.471,0,0,1-1.7,1.953,5.021,5.021,0,0,1-5.059.008,4.515,4.515,0,0,1-1.719-1.941,6.67,6.67,0,0,1-.617-2.9V9.07a6.831,6.831,0,0,1,.605-2.957,4.508,4.508,0,0,1,1.711-1.961,5.014,5.014,0,0,1,5.055,0A4.508,4.508,0,0,1,180,6.113a6.811,6.811,0,0,1,.605,2.949Zm-2.375-.516a4.787,4.787,0,0,0-.641-2.719,2.263,2.263,0,0,0-3.648-.012,4.732,4.732,0,0,0-.648,2.691V9.57a4.847,4.847,0,0,0,.641,2.7,2.243,2.243,0,0,0,3.656.035,4.819,4.819,0,0,0,.641-2.7Zm9.977,2.961a1.2,1.2,0,0,0-.469-1.02,6.148,6.148,0,0,0-1.687-.75,11.962,11.962,0,0,1-1.93-.777,3.153,3.153,0,0,1-1.937-2.82A2.747,2.747,0,0,1,182.707,5,3.389,3.389,0,0,1,184.2,3.875a5.616,5.616,0,0,1,2.184-.406,5.112,5.112,0,0,1,2.172.441,3.458,3.458,0,0,1,1.48,1.246,3.261,3.261,0,0,1,.527,1.828h-2.344a1.534,1.534,0,0,0-.492-1.215,2.023,2.023,0,0,0-1.383-.434,2.162,2.162,0,0,0-1.336.363,1.146,1.146,0,0,0-.477.957,1.1,1.1,0,0,0,.559.93,6.311,6.311,0,0,0,1.645.7,7.106,7.106,0,0,1,2.914,1.492A2.972,2.972,0,0,1,190.563,12a2.737,2.737,0,0,1-1.117,2.316,4.891,4.891,0,0,1-3.008.84,5.808,5.808,0,0,1-2.391-.48,3.783,3.783,0,0,1-1.645-1.316,3.371,3.371,0,0,1-.566-1.937h2.352q0,1.883,2.25,1.883a2.189,2.189,0,0,0,1.3-.34A1.106,1.106,0,0,0,188.211,12.016ZM201.492,9.57a6.867,6.867,0,0,1-.594,2.945,4.471,4.471,0,0,1-1.7,1.953,5.021,5.021,0,0,1-5.059.008,4.515,4.515,0,0,1-1.719-1.941,6.67,6.67,0,0,1-.617-2.9V9.07a6.831,6.831,0,0,1,.605-2.957,4.508,4.508,0,0,1,1.711-1.961,5.014,5.014,0,0,1,5.055,0,4.508,4.508,0,0,1,1.711,1.961,6.811,6.811,0,0,1,.605,2.949Zm-2.375-.516a4.787,4.787,0,0,0-.641-2.719,2.263,2.263,0,0,0-3.648-.012,4.732,4.732,0,0,0-.648,2.691V9.57a4.847,4.847,0,0,0,.641,2.7,2.243,2.243,0,0,0,3.656.035,4.819,4.819,0,0,0,.641-2.7Zm9.977,2.961a1.2,1.2,0,0,0-.469-1.02,6.148,6.148,0,0,0-1.687-.75,11.962,11.962,0,0,1-1.93-.777,3.153,3.153,0,0,1-1.937-2.82A2.747,2.747,0,0,1,203.59,5a3.389,3.389,0,0,1,1.492-1.129,5.616,5.616,0,0,1,2.184-.406,5.112,5.112,0,0,1,2.172.441,3.458,3.458,0,0,1,1.48,1.246,3.261,3.261,0,0,1,.527,1.828H209.1a1.534,1.534,0,0,0-.492-1.215,2.023,2.023,0,0,0-1.383-.434,2.162,2.162,0,0,0-1.336.363,1.146,1.146,0,0,0-.477.957,1.1,1.1,0,0,0,.559.93,6.311,6.311,0,0,0,1.645.7,7.106,7.106,0,0,1,2.914,1.492A2.972,2.972,0,0,1,211.445,12a2.737,2.737,0,0,1-1.117,2.316,4.891,4.891,0,0,1-3.008.84,5.808,5.808,0,0,1-2.391-.48,3.783,3.783,0,0,1-1.645-1.316,3.371,3.371,0,0,1-.566-1.937h2.352q0,1.883,2.25,1.883a2.189,2.189,0,0,0,1.3-.34A1.106,1.106,0,0,0,209.094,12.016ZM63.68,35.211A4.025,4.025,0,0,1,62.324,38.1,4.76,4.76,0,0,1,59.1,39.156a4.281,4.281,0,0,1-3.441-1.473,6.038,6.038,0,0,1-1.254-4.043v-.7a6.819,6.819,0,0,1,.578-2.891,4.332,4.332,0,0,1,1.652-1.918,5.164,5.164,0,0,1,5.668.387A4.326,4.326,0,0,1,63.7,31.484H61.352a2.376,2.376,0,0,0-.613-1.6,2.271,2.271,0,0,0-1.605-.5,1.991,1.991,0,0,0-1.754.84,4.707,4.707,0,0,0-.6,2.605V33.7a5.038,5.038,0,0,0,.559,2.7,1.954,1.954,0,0,0,1.762.852,2.314,2.314,0,0,0,1.621-.5,2.241,2.241,0,0,0,.613-1.535Zm7.961,1.445H67.531L66.75,39H64.258l4.234-11.375h2.172L74.922,39H72.43Zm-3.477-1.9h2.844L69.578,30.5Zm12.031.078H78.328V39H75.984V27.625h4.227a4.778,4.778,0,0,1,3.109.9,3.1,3.1,0,0,1,1.094,2.539A3.5,3.5,0,0,1,83.91,33a3.437,3.437,0,0,1-1.527,1.238l2.461,4.648V39H82.328Zm-1.867-1.9h1.891a1.936,1.936,0,0,0,1.367-.449,1.606,1.606,0,0,0,.484-1.238,1.719,1.719,0,0,0-.457-1.266,1.9,1.9,0,0,0-1.4-.461H78.328Zm14.289,3.719H88.508L87.727,39H85.234l4.234-11.375h2.172L95.9,39H93.406Zm-3.477-1.9h2.844L90.555,30.5Zm16.586.453a4.025,4.025,0,0,1-1.355,2.891,4.76,4.76,0,0,1-3.223,1.055,4.28,4.28,0,0,1-3.441-1.473,6.038,6.038,0,0,1-1.254-4.043v-.7a6.819,6.819,0,0,1,.578-2.891,4.332,4.332,0,0,1,1.652-1.918,5.164,5.164,0,0,1,5.668.387,4.326,4.326,0,0,1,1.391,2.961H103.4a2.376,2.376,0,0,0-.613-1.6,2.271,2.271,0,0,0-1.605-.5,1.991,1.991,0,0,0-1.754.84,4.707,4.707,0,0,0-.6,2.605V33.7a5.038,5.038,0,0,0,.559,2.7,1.954,1.954,0,0,0,1.762.852,2.314,2.314,0,0,0,1.621-.5,2.241,2.241,0,0,0,.613-1.535Zm9.875-5.687h-3.484V39h-2.344V29.523h-3.437v-1.9H115.6Zm8.18,4.531h-4.5v3.063h5.281V39h-7.625V27.625h7.609v1.9h-5.266v2.711h4.5Zm6.367.781h-1.867V39h-2.344V27.625h4.227a4.778,4.778,0,0,1,3.109.9,3.1,3.1,0,0,1,1.094,2.539,3.5,3.5,0,0,1-.5,1.941,3.437,3.437,0,0,1-1.527,1.238l2.461,4.648V39h-2.516Zm-1.867-1.9h1.891a1.936,1.936,0,0,0,1.367-.449,1.606,1.606,0,0,0,.484-1.238,1.719,1.719,0,0,0-.457-1.266,1.9,1.9,0,0,0-1.4-.461h-1.883ZM138.641,39H136.3V27.625h2.344Zm-.727-14.445h2.461l-2.164,2.422h-1.836Zm8.8,11.461a1.2,1.2,0,0,0-.469-1.02,6.148,6.148,0,0,0-1.687-.75,11.962,11.962,0,0,1-1.93-.777,3.153,3.153,0,0,1-1.937-2.82,2.747,2.747,0,0,1,.52-1.645,3.389,3.389,0,0,1,1.492-1.129,5.616,5.616,0,0,1,2.184-.406,5.112,5.112,0,0,1,2.172.441,3.458,3.458,0,0,1,1.48,1.246,3.261,3.261,0,0,1,.527,1.828h-2.344a1.534,1.534,0,0,0-.492-1.215,2.023,2.023,0,0,0-1.383-.434,2.162,2.162,0,0,0-1.336.363,1.146,1.146,0,0,0-.477.957,1.1,1.1,0,0,0,.559.93,6.311,6.311,0,0,0,1.645.7,7.106,7.106,0,0,1,2.914,1.492A2.972,2.972,0,0,1,149.063,36a2.737,2.737,0,0,1-1.117,2.316,4.891,4.891,0,0,1-3.008.84,5.808,5.808,0,0,1-2.391-.48,3.783,3.783,0,0,1-1.645-1.316,3.371,3.371,0,0,1-.566-1.937h2.352q0,1.883,2.25,1.883a2.189,2.189,0,0,0,1.3-.34A1.106,1.106,0,0,0,146.711,36.016Zm12.5-6.492h-3.484V39h-2.344V29.523h-3.437v-1.9h9.266ZM163.039,39H160.7V27.625h2.344Zm11.1-3.789a4.025,4.025,0,0,1-1.355,2.891,4.76,4.76,0,0,1-3.223,1.055,4.281,4.281,0,0,1-3.441-1.473,6.038,6.038,0,0,1-1.254-4.043v-.7a6.819,6.819,0,0,1,.578-2.891,4.332,4.332,0,0,1,1.652-1.918,5.164,5.164,0,0,1,5.668.387,4.326,4.326,0,0,1,1.391,2.961h-2.344a2.376,2.376,0,0,0-.613-1.6,2.271,2.271,0,0,0-1.605-.5,1.991,1.991,0,0,0-1.754.84,4.707,4.707,0,0,0-.6,2.605V33.7a5.038,5.038,0,0,0,.559,2.7,1.954,1.954,0,0,0,1.762.852,2.314,2.314,0,0,0,1.621-.5,2.241,2.241,0,0,0,.613-1.535Zm7.961,1.445h-4.109L177.211,39h-2.492l4.234-11.375h2.172L185.383,39h-2.492Zm-3.477-1.9h2.844l-1.43-4.258Zm13.719,1.258a1.2,1.2,0,0,0-.469-1.02,6.148,6.148,0,0,0-1.687-.75,11.962,11.962,0,0,1-1.93-.777,3.153,3.153,0,0,1-1.937-2.82A2.747,2.747,0,0,1,186.84,29a3.389,3.389,0,0,1,1.492-1.129,5.616,5.616,0,0,1,2.184-.406,5.112,5.112,0,0,1,2.172.441,3.458,3.458,0,0,1,1.48,1.246,3.261,3.261,0,0,1,.527,1.828h-2.344a1.534,1.534,0,0,0-.492-1.215,2.023,2.023,0,0,0-1.383-.434,2.162,2.162,0,0,0-1.336.363,1.146,1.146,0,0,0-.477.957,1.1,1.1,0,0,0,.559.93,6.311,6.311,0,0,0,1.645.7,7.106,7.106,0,0,1,2.914,1.492A2.972,2.972,0,0,1,194.7,36a2.737,2.737,0,0,1-1.117,2.316,4.891,4.891,0,0,1-3.008.84,5.808,5.808,0,0,1-2.391-.48,3.783,3.783,0,0,1-1.645-1.316,3.371,3.371,0,0,1-.566-1.937h2.352q0,1.883,2.25,1.883a2.189,2.189,0,0,0,1.3-.34A1.106,1.106,0,0,0,192.344,36.016Z" transform="translate(676 1652)" fill="#12263f"/>
    <g id="Trazado_728714" data-name="Trazado 728714" transform="translate(285 1757)" fill="#fff">
      <path d="M 175 29 L 15 29 C 11.26047515869141 29 7.744750022888184 27.54375076293945 5.100500106811523 24.89949989318848 C 2.456249952316284 22.25525093078613 1 18.73952484130859 1 15 C 1 11.26047515869141 2.456249952316284 7.744750022888184 5.100500106811523 5.100500106811523 C 7.744750022888184 2.456249952316284 11.26047515869141 1 15 1 L 175 1 C 178.7395324707031 1 182.2552490234375 2.456249952316284 184.8995056152344 5.100500106811523 C 187.5437469482422 7.744750022888184 189 11.26047515869141 189 15 C 189 18.73952484130859 187.5437469482422 22.25525093078613 184.8995056152344 24.89949989318848 C 182.2552490234375 27.54375076293945 178.7395324707031 29 175 29 Z" stroke="none"/>
      <path d="M 15 2 C 11.52757263183594 2 8.262969970703125 3.352224349975586 5.807601928710938 5.807600021362305 C 3.352218627929688 8.262975692749023 2 11.52757453918457 2 15 C 2 18.47242546081543 3.352218627929688 21.73702621459961 5.807601928710938 24.1923999786377 C 8.262969970703125 26.64777565002441 11.52757263183594 28 15 28 L 175 28 C 178.4724273681641 28 181.7370300292969 26.64777565002441 184.1923980712891 24.1923999786377 C 186.6477813720703 21.73702621459961 188 18.47242546081543 188 15 C 188 11.52757453918457 186.6477813720703 8.262975692749023 184.1923980712891 5.807600021362305 C 181.7370300292969 3.352224349975586 178.4724273681641 2 175 2 L 15 2 M 15 0 L 175 0 C 183.2842712402344 0 190 6.715724945068359 190 15 C 190 23.28427505493164 183.2842712402344 30 175 30 L 15 30 C 6.715728759765625 30 0 23.28427505493164 0 15 C 0 6.715724945068359 6.715728759765625 0 15 0 Z" stroke="none" fill="#badc61"/>
    </g>
    <g id="Trazado_728715" data-name="Trazado 728715" transform="translate(390 1816)" fill="#fff">
      <path d="M 175 29 L 15 29 C 11.26047515869141 29 7.744750022888184 27.54375076293945 5.100500106811523 24.89949989318848 C 2.456249952316284 22.25525093078613 1 18.73952484130859 1 15 C 1 11.26047515869141 2.456249952316284 7.744750022888184 5.100500106811523 5.100500106811523 C 7.744750022888184 2.456249952316284 11.26047515869141 1 15 1 L 175 1 C 178.7395324707031 1 182.2552490234375 2.456249952316284 184.8995056152344 5.100500106811523 C 187.5437469482422 7.744750022888184 189 11.26047515869141 189 15 C 189 18.73952484130859 187.5437469482422 22.25525093078613 184.8995056152344 24.89949989318848 C 182.2552490234375 27.54375076293945 178.7395324707031 29 175 29 Z" stroke="none"/>
      <path d="M 15 2 C 11.52757263183594 2 8.262969970703125 3.352224349975586 5.807601928710938 5.807600021362305 C 3.352218627929688 8.262975692749023 2 11.52757453918457 2 15 C 2 18.47242546081543 3.352218627929688 21.73702621459961 5.807601928710938 24.1923999786377 C 8.262969970703125 26.64777565002441 11.52757263183594 28 15 28 L 175 28 C 178.4724273681641 28 181.7370300292969 26.64777565002441 184.1923980712891 24.1923999786377 C 186.6477813720703 21.73702621459961 188 18.47242546081543 188 15 C 188 11.52757453918457 186.6477813720703 8.262975692749023 184.1923980712891 5.807600021362305 C 181.7370300292969 3.352224349975586 178.4724273681641 2 175 2 L 15 2 M 15 0 L 175 0 C 183.2842712402344 0 190 6.715724945068359 190 15 C 190 23.28427505493164 183.2842712402344 30 175 30 L 15 30 C 6.715728759765625 30 0 23.28427505493164 0 15 C 0 6.715724945068359 6.715728759765625 0 15 0 Z" stroke="none" fill="#badc61"/>
    </g>
    <g id="Trazado_728722" data-name="Trazado 728722" transform="translate(495 1870)" fill="#fff">
      <path d="M 175 29 L 15 29 C 11.26047515869141 29 7.744750022888184 27.54375076293945 5.100500106811523 24.89949989318848 C 2.456249952316284 22.25525093078613 1 18.73952484130859 1 15 C 1 11.26047515869141 2.456249952316284 7.744750022888184 5.100500106811523 5.100500106811523 C 7.744750022888184 2.456249952316284 11.26047515869141 1 15 1 L 175 1 C 178.7395324707031 1 182.2552490234375 2.456249952316284 184.8995056152344 5.100500106811523 C 187.5437469482422 7.744750022888184 189 11.26047515869141 189 15 C 189 18.73952484130859 187.5437469482422 22.25525093078613 184.8995056152344 24.89949989318848 C 182.2552490234375 27.54375076293945 178.7395324707031 29 175 29 Z" stroke="none"/>
      <path d="M 15 2 C 11.52757263183594 2 8.262969970703125 3.352224349975586 5.807601928710938 5.807600021362305 C 3.352218627929688 8.262975692749023 2 11.52757453918457 2 15 C 2 18.47242546081543 3.352218627929688 21.73702621459961 5.807601928710938 24.1923999786377 C 8.262969970703125 26.64777565002441 11.52757263183594 28 15 28 L 175 28 C 178.4724273681641 28 181.7370300292969 26.64777565002441 184.1923980712891 24.1923999786377 C 186.6477813720703 21.73702621459961 188 18.47242546081543 188 15 C 188 11.52757453918457 186.6477813720703 8.262975692749023 184.1923980712891 5.807600021362305 C 181.7370300292969 3.352224349975586 178.4724273681641 2 175 2 L 15 2 M 15 0 L 175 0 C 183.2842712402344 0 190 6.715724945068359 190 15 C 190 23.28427505493164 183.2842712402344 30 175 30 L 15 30 C 6.715728759765625 30 0 23.28427505493164 0 15 C 0 6.715724945068359 6.715728759765625 0 15 0 Z" stroke="none" fill="#badc61"/>
    </g>
    <g id="Trazado_728726" data-name="Trazado 728726" transform="translate(705 1908)" fill="#fff">
      <path d="M 175 29 L 15 29 C 11.26047515869141 29 7.744750022888184 27.54375076293945 5.100500106811523 24.89949989318848 C 2.456249952316284 22.25525093078613 1 18.73952484130859 1 15 C 1 11.26047515869141 2.456249952316284 7.744750022888184 5.100500106811523 5.100500106811523 C 7.744750022888184 2.456249952316284 11.26047515869141 1 15 1 L 175 1 C 178.7395324707031 1 182.2552490234375 2.456249952316284 184.8995056152344 5.100500106811523 C 187.5437469482422 7.744750022888184 189 11.26047515869141 189 15 C 189 18.73952484130859 187.5437469482422 22.25525093078613 184.8995056152344 24.89949989318848 C 182.2552490234375 27.54375076293945 178.7395324707031 29 175 29 Z" stroke="none"/>
      <path d="M 15 2 C 11.52757263183594 2 8.262969970703125 3.352224349975586 5.807601928710938 5.807600021362305 C 3.352218627929688 8.262975692749023 2 11.52757453918457 2 15 C 2 18.47242546081543 3.352218627929688 21.73702621459961 5.807601928710938 24.1923999786377 C 8.262969970703125 26.64777565002441 11.52757263183594 28 15 28 L 175 28 C 178.4724273681641 28 181.7370300292969 26.64777565002441 184.1923980712891 24.1923999786377 C 186.6477813720703 21.73702621459961 188 18.47242546081543 188 15 C 188 11.52757453918457 186.6477813720703 8.262975692749023 184.1923980712891 5.807600021362305 C 181.7370300292969 3.352224349975586 178.4724273681641 2 175 2 L 15 2 M 15 0 L 175 0 C 183.2842712402344 0 190 6.715724945068359 190 15 C 190 23.28427505493164 183.2842712402344 30 175 30 L 15 30 C 6.715728759765625 30 0 23.28427505493164 0 15 C 0 6.715724945068359 6.715728759765625 0 15 0 Z" stroke="none" fill="#badc61"/>
    </g>
    <g id="Trazado_728723" data-name="Trazado 728723" transform="translate(916 1870)" fill="#fff">
      <path d="M 175 29 L 15 29 C 11.26047515869141 29 7.744750022888184 27.54375076293945 5.100500106811523 24.89949989318848 C 2.456249952316284 22.25525093078613 1 18.73952484130859 1 15 C 1 11.26047515869141 2.456249952316284 7.744750022888184 5.100500106811523 5.100500106811523 C 7.744750022888184 2.456249952316284 11.26047515869141 1 15 1 L 175 1 C 178.7395324707031 1 182.2552490234375 2.456249952316284 184.8995056152344 5.100500106811523 C 187.5437469482422 7.744750022888184 189 11.26047515869141 189 15 C 189 18.73952484130859 187.5437469482422 22.25525093078613 184.8995056152344 24.89949989318848 C 182.2552490234375 27.54375076293945 178.7395324707031 29 175 29 Z" stroke="none"/>
      <path d="M 15 2 C 11.52757263183594 2 8.262969970703125 3.352224349975586 5.807601928710938 5.807600021362305 C 3.352218627929688 8.262975692749023 2 11.52757453918457 2 15 C 2 18.47242546081543 3.352218627929688 21.73702621459961 5.807601928710938 24.1923999786377 C 8.262969970703125 26.64777565002441 11.52757263183594 28 15 28 L 175 28 C 178.4724273681641 28 181.7370300292969 26.64777565002441 184.1923980712891 24.1923999786377 C 186.6477813720703 21.73702621459961 188 18.47242546081543 188 15 C 188 11.52757453918457 186.6477813720703 8.262975692749023 184.1923980712891 5.807600021362305 C 181.7370300292969 3.352224349975586 178.4724273681641 2 175 2 L 15 2 M 15 0 L 175 0 C 183.2842712402344 0 190 6.715724945068359 190 15 C 190 23.28427505493164 183.2842712402344 30 175 30 L 15 30 C 6.715728759765625 30 0 23.28427505493164 0 15 C 0 6.715724945068359 6.715728759765625 0 15 0 Z" stroke="none" fill="#badc61"/>
    </g>
    <g id="Trazado_728716" data-name="Trazado 728716" transform="translate(1020 1816)" fill="#fff">
      <path d="M 175 29 L 15 29 C 11.26047515869141 29 7.744750022888184 27.54375076293945 5.100500106811523 24.89949989318848 C 2.456249952316284 22.25525093078613 1 18.73952484130859 1 15 C 1 11.26047515869141 2.456249952316284 7.744750022888184 5.100500106811523 5.100500106811523 C 7.744750022888184 2.456249952316284 11.26047515869141 1 15 1 L 175 1 C 178.7395324707031 1 182.2552490234375 2.456249952316284 184.8995056152344 5.100500106811523 C 187.5437469482422 7.744750022888184 189 11.26047515869141 189 15 C 189 18.73952484130859 187.5437469482422 22.25525093078613 184.8995056152344 24.89949989318848 C 182.2552490234375 27.54375076293945 178.7395324707031 29 175 29 Z" stroke="none"/>
      <path d="M 15 2 C 11.52757263183594 2 8.262969970703125 3.352224349975586 5.807601928710938 5.807600021362305 C 3.352218627929688 8.262975692749023 2 11.52757453918457 2 15 C 2 18.47242546081543 3.352218627929688 21.73702621459961 5.807601928710938 24.1923999786377 C 8.262969970703125 26.64777565002441 11.52757263183594 28 15 28 L 175 28 C 178.4724273681641 28 181.7370300292969 26.64777565002441 184.1923980712891 24.1923999786377 C 186.6477813720703 21.73702621459961 188 18.47242546081543 188 15 C 188 11.52757453918457 186.6477813720703 8.262975692749023 184.1923980712891 5.807600021362305 C 181.7370300292969 3.352224349975586 178.4724273681641 2 175 2 L 15 2 M 15 0 L 175 0 C 183.2842712402344 0 190 6.715724945068359 190 15 C 190 23.28427505493164 183.2842712402344 30 175 30 L 15 30 C 6.715728759765625 30 0 23.28427505493164 0 15 C 0 6.715724945068359 6.715728759765625 0 15 0 Z" stroke="none" fill="#badc61"/>
    </g>
    <g id="Trazado_728717" data-name="Trazado 728717" transform="translate(1126 1757)" fill="#fff">
      <path d="M 175 29 L 15 29 C 11.26047515869141 29 7.744750022888184 27.54375076293945 5.100500106811523 24.89949989318848 C 2.456249952316284 22.25525093078613 1 18.73952484130859 1 15 C 1 11.26047515869141 2.456249952316284 7.744750022888184 5.100500106811523 5.100500106811523 C 7.744750022888184 2.456249952316284 11.26047515869141 1 15 1 L 175 1 C 178.7395324707031 1 182.2552490234375 2.456249952316284 184.8995056152344 5.100500106811523 C 187.5437469482422 7.744750022888184 189 11.26047515869141 189 15 C 189 18.73952484130859 187.5437469482422 22.25525093078613 184.8995056152344 24.89949989318848 C 182.2552490234375 27.54375076293945 178.7395324707031 29 175 29 Z" stroke="none"/>
      <path d="M 15 2 C 11.52757263183594 2 8.262969970703125 3.352224349975586 5.807601928710938 5.807600021362305 C 3.352218627929688 8.262975692749023 2 11.52757453918457 2 15 C 2 18.47242546081543 3.352218627929688 21.73702621459961 5.807601928710938 24.1923999786377 C 8.262969970703125 26.64777565002441 11.52757263183594 28 15 28 L 175 28 C 178.4724273681641 28 181.7370300292969 26.64777565002441 184.1923980712891 24.1923999786377 C 186.6477813720703 21.73702621459961 188 18.47242546081543 188 15 C 188 11.52757453918457 186.6477813720703 8.262975692749023 184.1923980712891 5.807600021362305 C 181.7370300292969 3.352224349975586 178.4724273681641 2 175 2 L 15 2 M 15 0 L 175 0 C 183.2842712402344 0 190 6.715724945068359 190 15 C 190 23.28427505493164 183.2842712402344 30 175 30 L 15 30 C 6.715728759765625 30 0 23.28427505493164 0 15 C 0 6.715724945068359 6.715728759765625 0 15 0 Z" stroke="none" fill="#badc61"/>
    </g>
    <path id="Trazado_728718" data-name="Trazado 728718" d="M42.949,11.391a4.185,4.185,0,0,1-1.332,2.785,4.365,4.365,0,0,1-2.98.98,4.008,4.008,0,0,1-3.23-1.445,5.815,5.815,0,0,1-1.215-3.867V8.75a6.481,6.481,0,0,1,.566-2.789,4.231,4.231,0,0,1,1.605-1.848,4.47,4.47,0,0,1,2.406-.645A4.11,4.11,0,0,1,41.676,4.48a4.235,4.235,0,0,1,1.273,2.8H41.441a3.268,3.268,0,0,0-.848-1.975A2.565,2.565,0,0,0,38.77,4.7a2.684,2.684,0,0,0-2.254,1.063A4.882,4.882,0,0,0,35.7,8.785v1.1a5.018,5.018,0,0,0,.773,2.948,2.5,2.5,0,0,0,2.164,1.095,2.887,2.887,0,0,0,1.918-.566,3.143,3.143,0,0,0,.887-1.973Zm1.438-.7a4.993,4.993,0,0,1,.488-2.234A3.643,3.643,0,0,1,46.234,6.93a3.7,3.7,0,0,1,1.988-.539,3.565,3.565,0,0,1,2.793,1.2,4.6,4.6,0,0,1,1.066,3.18v.1a5.036,5.036,0,0,1-.473,2.215,3.589,3.589,0,0,1-1.352,1.527,3.743,3.743,0,0,1-2.02.547,3.556,3.556,0,0,1-2.785-1.2A4.575,4.575,0,0,1,44.387,10.8Zm1.453.172a3.616,3.616,0,0,0,.652,2.258,2.211,2.211,0,0,0,3.5-.012,3.955,3.955,0,0,0,.648-2.418,3.61,3.61,0,0,0-.66-2.254,2.1,2.1,0,0,0-1.754-.863A2.075,2.075,0,0,0,46.5,8.43,3.925,3.925,0,0,0,45.84,10.867ZM57.98,7.844a4.331,4.331,0,0,0-.711-.055A1.9,1.9,0,0,0,55.34,9v6H53.895V6.547H55.3l.023.977A2.251,2.251,0,0,1,57.34,6.391a1.477,1.477,0,0,1,.641.109Zm5.414,0a4.331,4.331,0,0,0-.711-.055A1.9,1.9,0,0,0,60.754,9v6H59.309V6.547h1.406l.023.977a2.251,2.251,0,0,1,2.016-1.133,1.477,1.477,0,0,1,.641.109Zm.789,2.852a4.993,4.993,0,0,1,.488-2.234A3.643,3.643,0,0,1,66.031,6.93a3.7,3.7,0,0,1,1.988-.539,3.565,3.565,0,0,1,2.793,1.2,4.6,4.6,0,0,1,1.066,3.18v.1a5.036,5.036,0,0,1-.473,2.215,3.589,3.589,0,0,1-1.352,1.527,3.743,3.743,0,0,1-2.02.547,3.556,3.556,0,0,1-2.785-1.2A4.575,4.575,0,0,1,64.184,10.8Zm1.453.172a3.616,3.616,0,0,0,.652,2.258,2.211,2.211,0,0,0,3.5-.012,3.955,3.955,0,0,0,.648-2.418,3.61,3.61,0,0,0-.66-2.254,2.1,2.1,0,0,0-1.754-.863,2.075,2.075,0,0,0-1.727.852A3.925,3.925,0,0,0,65.637,10.867Zm12.977,1.891a1.064,1.064,0,0,0-.441-.91,4.249,4.249,0,0,0-1.539-.559,7.277,7.277,0,0,1-1.742-.562,2.479,2.479,0,0,1-.953-.781,1.869,1.869,0,0,1-.309-1.078,2.193,2.193,0,0,1,.879-1.758,3.432,3.432,0,0,1,2.246-.719,3.532,3.532,0,0,1,2.332.742,2.357,2.357,0,0,1,.895,1.9H78.527a1.3,1.3,0,0,0-.5-1.023,1.888,1.888,0,0,0-1.27-.43,1.976,1.976,0,0,0-1.234.344,1.082,1.082,0,0,0-.445.9.877.877,0,0,0,.414.789,5.1,5.1,0,0,0,1.5.508,7.8,7.8,0,0,1,1.754.578,2.558,2.558,0,0,1,1,.809,1.988,1.988,0,0,1,.324,1.152,2.163,2.163,0,0,1-.906,1.816,3.8,3.8,0,0,1-2.352.684A4.257,4.257,0,0,1,75,14.8a2.922,2.922,0,0,1-1.223-1A2.42,2.42,0,0,1,73.34,12.4h1.445a1.5,1.5,0,0,0,.582,1.152,2.258,2.258,0,0,0,1.434.426,2.331,2.331,0,0,0,1.316-.332A1.02,1.02,0,0,0,78.613,12.758ZM83.512,15H82.066V6.547h1.445ZM81.949,4.3a.863.863,0,0,1,.215-.594.807.807,0,0,1,.637-.242.819.819,0,0,1,.641.242.854.854,0,0,1,.219.594.826.826,0,0,1-.219.586.834.834,0,0,1-.641.234.821.821,0,0,1-.637-.234A.834.834,0,0,1,81.949,4.3Zm6.664,8.734,2.094-6.492h1.477L89.152,15h-1.1L84.988,6.547h1.477ZM93.074,10.7a4.993,4.993,0,0,1,.488-2.234A3.643,3.643,0,0,1,94.922,6.93a3.7,3.7,0,0,1,1.988-.539,3.565,3.565,0,0,1,2.793,1.2,4.6,4.6,0,0,1,1.066,3.18v.1a5.036,5.036,0,0,1-.473,2.215,3.589,3.589,0,0,1-1.352,1.527,3.743,3.743,0,0,1-2.02.547,3.556,3.556,0,0,1-2.785-1.2A4.575,4.575,0,0,1,93.074,10.8Zm1.453.172a3.616,3.616,0,0,0,.652,2.258,2.211,2.211,0,0,0,3.5-.012,3.955,3.955,0,0,0,.648-2.418,3.61,3.61,0,0,0-.66-2.254,2.1,2.1,0,0,0-1.754-.863,2.075,2.075,0,0,0-1.727.852A3.925,3.925,0,0,0,94.527,10.867ZM107.5,12.758a1.064,1.064,0,0,0-.441-.91,4.249,4.249,0,0,0-1.539-.559,7.277,7.277,0,0,1-1.742-.562,2.479,2.479,0,0,1-.953-.781,1.869,1.869,0,0,1-.309-1.078,2.193,2.193,0,0,1,.879-1.758,3.432,3.432,0,0,1,2.246-.719,3.532,3.532,0,0,1,2.332.742,2.357,2.357,0,0,1,.895,1.9h-1.453a1.3,1.3,0,0,0-.5-1.023,1.888,1.888,0,0,0-1.27-.43,1.976,1.976,0,0,0-1.234.344,1.082,1.082,0,0,0-.445.9.877.877,0,0,0,.414.789,5.1,5.1,0,0,0,1.5.508,7.8,7.8,0,0,1,1.754.578,2.558,2.558,0,0,1,1,.809,1.988,1.988,0,0,1,.324,1.152,2.163,2.163,0,0,1-.906,1.816,3.8,3.8,0,0,1-2.352.684,4.257,4.257,0,0,1-1.8-.359,2.922,2.922,0,0,1-1.223-1,2.42,2.42,0,0,1-.441-1.395h1.445a1.5,1.5,0,0,0,.582,1.152,2.258,2.258,0,0,0,1.434.426,2.331,2.331,0,0,0,1.316-.332A1.02,1.02,0,0,0,107.5,12.758Z" transform="translate(309 1763)" fill="#12263f"/>
    <path id="Trazado_728719" data-name="Trazado 728719" d="M49.855,10.4H47.184V15H45.676V3.625h3.766A4.457,4.457,0,0,1,52.4,4.5a3.148,3.148,0,0,1,1.035,2.547A3.062,3.062,0,0,1,52.859,8.9a3.428,3.428,0,0,1-1.6,1.18l2.672,4.828V15H52.324ZM47.184,9.172h2.3a2.6,2.6,0,0,0,1.777-.579,1.959,1.959,0,0,0,.66-1.55,2.062,2.062,0,0,0-.629-1.62,2.663,2.663,0,0,0-1.816-.571h-2.3Zm11.633,5.984a3.693,3.693,0,0,1-2.8-1.129,4.19,4.19,0,0,1-1.078-3.02v-.266a5.073,5.073,0,0,1,.48-2.246,3.748,3.748,0,0,1,1.344-1.547,3.378,3.378,0,0,1,1.871-.559A3.166,3.166,0,0,1,61.2,7.477a4.7,4.7,0,0,1,.914,3.109v.6H56.387a3,3,0,0,0,.73,2.02,2.3,2.3,0,0,0,1.777.77,2.517,2.517,0,0,0,1.3-.312,3.259,3.259,0,0,0,.93-.828l.883.688A3.55,3.55,0,0,1,58.816,15.156Zm-.18-7.578a1.928,1.928,0,0,0-1.469.637A3.1,3.1,0,0,0,56.434,10h4.234V9.891a2.753,2.753,0,0,0-.594-1.707A1.815,1.815,0,0,0,58.637,7.578ZM69,15a3.036,3.036,0,0,1-.2-.891,3.225,3.225,0,0,1-2.406,1.047,2.984,2.984,0,0,1-2.051-.707,2.287,2.287,0,0,1-.8-1.793,2.39,2.39,0,0,1,1-2.051,4.733,4.733,0,0,1,2.824-.73h1.406V9.211A1.623,1.623,0,0,0,68.324,8a1.821,1.821,0,0,0-1.336-.449,2.108,2.108,0,0,0-1.3.391,1.151,1.151,0,0,0-.523.945H63.715a2,2,0,0,1,.449-1.223,3.066,3.066,0,0,1,1.219-.934,4.1,4.1,0,0,1,1.691-.344,3.342,3.342,0,0,1,2.289.73,2.635,2.635,0,0,1,.859,2.012v3.891a4.757,4.757,0,0,0,.3,1.852V15Zm-2.4-1.1a2.54,2.54,0,0,0,1.289-.352,2.127,2.127,0,0,0,.883-.914V10.9H67.645q-2.656,0-2.656,1.555a1.316,1.316,0,0,0,.453,1.063A1.742,1.742,0,0,0,66.605,13.9Zm9.273.078a2.082,2.082,0,0,0,1.352-.469,1.649,1.649,0,0,0,.641-1.172h1.367a2.621,2.621,0,0,1-.5,1.383,3.293,3.293,0,0,1-1.23,1.047,3.55,3.55,0,0,1-1.629.391A3.482,3.482,0,0,1,73.133,14a4.59,4.59,0,0,1-1.02-3.152v-.242a5.089,5.089,0,0,1,.453-2.2,3.451,3.451,0,0,1,1.3-1.492,3.7,3.7,0,0,1,2-.531,3.39,3.39,0,0,1,2.363.852,3.043,3.043,0,0,1,1,2.211H77.871a1.992,1.992,0,0,0-.621-1.348,1.932,1.932,0,0,0-1.379-.527,2.023,2.023,0,0,0-1.707.793,3.724,3.724,0,0,0-.605,2.293v.273a3.65,3.65,0,0,0,.6,2.25A2.033,2.033,0,0,0,75.879,13.977ZM82.824,4.5V6.547H84.4V7.664H82.824v5.249a1.173,1.173,0,0,0,.211.763.888.888,0,0,0,.719.254,3.5,3.5,0,0,0,.688-.094V15a4.215,4.215,0,0,1-1.109.155,1.8,1.8,0,0,1-1.461-.586,2.517,2.517,0,0,1-.492-1.664V7.664H79.84V6.547h1.539V4.5ZM87.66,15H86.215V6.547H87.66ZM86.1,4.3a.863.863,0,0,1,.215-.594.807.807,0,0,1,.637-.242.819.819,0,0,1,.641.242.854.854,0,0,1,.219.594.826.826,0,0,1-.219.586.834.834,0,0,1-.641.234.821.821,0,0,1-.637-.234A.834.834,0,0,1,86.1,4.3Zm6.664,8.734,2.094-6.492h1.477L93.3,15H92.2L89.137,6.547h1.477ZM97.223,10.7a4.993,4.993,0,0,1,.488-2.234A3.643,3.643,0,0,1,99.07,6.93a3.7,3.7,0,0,1,1.988-.539,3.565,3.565,0,0,1,2.793,1.2,4.6,4.6,0,0,1,1.066,3.18v.1a5.036,5.036,0,0,1-.473,2.215,3.589,3.589,0,0,1-1.352,1.527,3.743,3.743,0,0,1-2.02.547,3.556,3.556,0,0,1-2.785-1.2A4.575,4.575,0,0,1,97.223,10.8Zm1.453.172a3.616,3.616,0,0,0,.652,2.258,2.211,2.211,0,0,0,3.5-.012,3.955,3.955,0,0,0,.648-2.418,3.61,3.61,0,0,0-.66-2.254,2.1,2.1,0,0,0-1.754-.863,2.075,2.075,0,0,0-1.727.852A3.925,3.925,0,0,0,98.676,10.867Z" transform="translate(410 1822)" fill="#12263f"/>
    <path id="Trazado_728724" data-name="Trazado 728724" d="M50.3,9.742h-4.93v4.031H51.1V15H43.871V3.625H51.02V4.852H45.371V8.516H50.3Zm5.273-.109,1.875-3.086h1.688l-2.766,4.18L59.223,15H57.551L55.6,11.836,53.645,15h-1.68l2.852-4.273-2.766-4.18h1.672Zm12.234,1.234a5.062,5.062,0,0,1-.883,3.109,2.829,2.829,0,0,1-2.391,1.18,3.1,3.1,0,0,1-2.422-.977v4.07H60.668V6.547h1.32l.07.938a2.977,2.977,0,0,1,2.453-1.094,2.882,2.882,0,0,1,2.41,1.148,5.117,5.117,0,0,1,.887,3.2ZM66.363,10.7a3.735,3.735,0,0,0-.609-2.258,1.963,1.963,0,0,0-1.672-.828,2.125,2.125,0,0,0-1.969,1.164V12.82A2.129,2.129,0,0,0,64.1,13.977a1.954,1.954,0,0,0,1.652-.824A4.077,4.077,0,0,0,66.363,10.7ZM71.215,15H69.77V3h1.445Zm1.93-4.3a4.993,4.993,0,0,1,.488-2.234A3.643,3.643,0,0,1,74.992,6.93a3.7,3.7,0,0,1,1.988-.539,3.565,3.565,0,0,1,2.793,1.2,4.6,4.6,0,0,1,1.066,3.18v.1a5.036,5.036,0,0,1-.473,2.215,3.589,3.589,0,0,1-1.352,1.527,3.743,3.743,0,0,1-2.02.547,3.556,3.556,0,0,1-2.785-1.2A4.575,4.575,0,0,1,73.145,10.8Zm1.453.172a3.616,3.616,0,0,0,.652,2.258,2.211,2.211,0,0,0,3.5-.012,3.955,3.955,0,0,0,.648-2.418,3.61,3.61,0,0,0-.66-2.254,2.1,2.1,0,0,0-1.754-.863,2.075,2.075,0,0,0-1.727.852A3.925,3.925,0,0,0,74.6,10.867Zm12.977,1.891a1.064,1.064,0,0,0-.441-.91,4.249,4.249,0,0,0-1.539-.559,7.277,7.277,0,0,1-1.742-.562,2.479,2.479,0,0,1-.953-.781,1.869,1.869,0,0,1-.309-1.078,2.193,2.193,0,0,1,.879-1.758,3.432,3.432,0,0,1,2.246-.719,3.532,3.532,0,0,1,2.332.742,2.357,2.357,0,0,1,.895,1.9H87.488a1.3,1.3,0,0,0-.5-1.023,1.888,1.888,0,0,0-1.27-.43,1.976,1.976,0,0,0-1.234.344,1.082,1.082,0,0,0-.445.9.877.877,0,0,0,.414.789,5.1,5.1,0,0,0,1.5.508A7.8,7.8,0,0,1,87.7,10.7a2.558,2.558,0,0,1,1,.809,1.988,1.988,0,0,1,.324,1.152,2.163,2.163,0,0,1-.906,1.816,3.8,3.8,0,0,1-2.352.684,4.257,4.257,0,0,1-1.8-.359,2.922,2.922,0,0,1-1.223-1A2.42,2.42,0,0,1,82.3,12.4h1.445a1.5,1.5,0,0,0,.582,1.152,2.258,2.258,0,0,0,1.434.426,2.331,2.331,0,0,0,1.316-.332A1.02,1.02,0,0,0,87.574,12.758ZM92.473,15H91.027V6.547h1.445ZM90.91,4.3a.863.863,0,0,1,.215-.594.807.807,0,0,1,.637-.242.819.819,0,0,1,.641.242.854.854,0,0,1,.219.594.826.826,0,0,1-.219.586.834.834,0,0,1-.641.234.821.821,0,0,1-.637-.234A.834.834,0,0,1,90.91,4.3Zm6.664,8.734,2.094-6.492h1.477L98.113,15h-1.1L93.949,6.547h1.477Zm4.461-2.344a4.993,4.993,0,0,1,.488-2.234,3.643,3.643,0,0,1,1.359-1.531,3.7,3.7,0,0,1,1.988-.539,3.565,3.565,0,0,1,2.793,1.2,4.6,4.6,0,0,1,1.066,3.18v.1a5.036,5.036,0,0,1-.473,2.215,3.589,3.589,0,0,1-1.352,1.527,3.743,3.743,0,0,1-2.02.547,3.556,3.556,0,0,1-2.785-1.2,4.575,4.575,0,0,1-1.066-3.164Zm1.453.172a3.616,3.616,0,0,0,.652,2.258,2.211,2.211,0,0,0,3.5-.012,3.955,3.955,0,0,0,.648-2.418,3.61,3.61,0,0,0-.66-2.254,2.1,2.1,0,0,0-1.754-.863,2.075,2.075,0,0,0-1.727.852A3.925,3.925,0,0,0,103.488,10.867Z" transform="translate(514 1876)" fill="#12263f"/>
    <path id="Trazado_728727" data-name="Trazado 728727" d="M59.156,4.852H55.5V15H54.008V4.852H50.359V3.625h8.8Zm.3,5.844a4.993,4.993,0,0,1,.488-2.234A3.643,3.643,0,0,1,61.309,6.93,3.7,3.7,0,0,1,63.3,6.391a3.565,3.565,0,0,1,2.793,1.2,4.6,4.6,0,0,1,1.066,3.18v.1a5.036,5.036,0,0,1-.473,2.215,3.589,3.589,0,0,1-1.352,1.527,3.743,3.743,0,0,1-2.02.547,3.556,3.556,0,0,1-2.785-1.2A4.575,4.575,0,0,1,59.461,10.8Zm1.453.172a3.616,3.616,0,0,0,.652,2.258,2.211,2.211,0,0,0,3.5-.012,3.955,3.955,0,0,0,.648-2.418,3.61,3.61,0,0,0-.66-2.254A2.1,2.1,0,0,0,63.3,7.578a2.075,2.075,0,0,0-1.727.852A3.925,3.925,0,0,0,60.914,10.867Zm3.039-7.852H65.7l-2.094,2.3-1.164,0Zm7.688,6.617,1.875-3.086H75.2l-2.766,4.18L75.289,15H73.617l-1.953-3.164L69.711,15h-1.68l2.852-4.273-2.766-4.18h1.672ZM78.3,15H76.859V6.547H78.3ZM76.742,4.3a.863.863,0,0,1,.215-.594.807.807,0,0,1,.637-.242.819.819,0,0,1,.641.242.854.854,0,0,1,.219.594.826.826,0,0,1-.219.586.834.834,0,0,1-.641.234.821.821,0,0,1-.637-.234A.834.834,0,0,1,76.742,4.3Zm7.266,9.672a2.082,2.082,0,0,0,1.352-.469A1.649,1.649,0,0,0,86,12.336h1.367a2.621,2.621,0,0,1-.5,1.383,3.293,3.293,0,0,1-1.23,1.047,3.55,3.55,0,0,1-1.629.391A3.482,3.482,0,0,1,81.262,14a4.59,4.59,0,0,1-1.02-3.152v-.242a5.089,5.089,0,0,1,.453-2.2A3.451,3.451,0,0,1,82,6.922a3.7,3.7,0,0,1,2-.531,3.39,3.39,0,0,1,2.363.852,3.043,3.043,0,0,1,1,2.211H86a1.992,1.992,0,0,0-.621-1.348A1.932,1.932,0,0,0,84,7.578a2.023,2.023,0,0,0-1.707.793,3.724,3.724,0,0,0-.605,2.293v.273a3.65,3.65,0,0,0,.6,2.25A2.033,2.033,0,0,0,84.008,13.977Zm4.6-3.281A4.993,4.993,0,0,1,89.1,8.461,3.643,3.643,0,0,1,90.457,6.93a3.7,3.7,0,0,1,1.988-.539,3.565,3.565,0,0,1,2.793,1.2,4.6,4.6,0,0,1,1.066,3.18v.1a5.036,5.036,0,0,1-.473,2.215,3.589,3.589,0,0,1-1.352,1.527,3.743,3.743,0,0,1-2.02.547,3.556,3.556,0,0,1-2.785-1.2A4.575,4.575,0,0,1,88.609,10.8Zm1.453.172a3.616,3.616,0,0,0,.652,2.258,2.211,2.211,0,0,0,3.5-.012,3.955,3.955,0,0,0,.648-2.418,3.61,3.61,0,0,0-.66-2.254,2.1,2.1,0,0,0-1.754-.863,2.075,2.075,0,0,0-1.727.852A3.925,3.925,0,0,0,90.063,10.867Z" transform="translate(726 1914)" fill="#12263f"/>
    <path id="Trazado_728725" data-name="Trazado 728725" d="M45.414,15h-1.5V3.625h1.5ZM49.3,6.547l.047,1.063a3.08,3.08,0,0,1,2.531-1.219q2.68,0,2.7,3.023V15H53.133V9.406a1.946,1.946,0,0,0-.418-1.352,1.675,1.675,0,0,0-1.277-.437,2.086,2.086,0,0,0-1.234.375,2.546,2.546,0,0,0-.828.984V15H47.93V6.547ZM62.039,4.219a10.282,10.282,0,0,0-1.562-.156q-1.563,0-1.562,1.646v.839h1.8V7.664h-1.8V15H57.469V7.664H56.133V6.547h1.336V5.625a2.757,2.757,0,0,1,.758-2.07,2.96,2.96,0,0,1,2.133-.719,19.688,19.688,0,0,1,3.125.477V15H62.039ZM71.063,15a3.036,3.036,0,0,1-.2-.891,3.225,3.225,0,0,1-2.406,1.047,2.984,2.984,0,0,1-2.051-.707,2.288,2.288,0,0,1-.8-1.793,2.39,2.39,0,0,1,1-2.051,4.733,4.733,0,0,1,2.824-.73h1.406V9.211A1.623,1.623,0,0,0,70.383,8a1.821,1.821,0,0,0-1.336-.449,2.108,2.108,0,0,0-1.3.391,1.151,1.151,0,0,0-.523.945H65.773a2,2,0,0,1,.449-1.223,3.066,3.066,0,0,1,1.219-.934,4.1,4.1,0,0,1,1.691-.344,3.342,3.342,0,0,1,2.289.73,2.635,2.635,0,0,1,.859,2.012v3.891a4.757,4.757,0,0,0,.3,1.852V15Zm-2.4-1.1a2.54,2.54,0,0,0,1.289-.352,2.127,2.127,0,0,0,.883-.914V10.9H69.7q-2.656,0-2.656,1.555a1.316,1.316,0,0,0,.453,1.063A1.742,1.742,0,0,0,68.664,13.9Zm7.242-7.352.039.938a3.122,3.122,0,0,1,2.508-1.094A2.417,2.417,0,0,1,80.867,7.75a3.2,3.2,0,0,1,1.1-.984,3.242,3.242,0,0,1,1.6-.375q2.781,0,2.828,2.945V15H84.945V9.422a1.941,1.941,0,0,0-.414-1.355,1.823,1.823,0,0,0-1.391-.449A1.916,1.916,0,0,0,81.8,8.1a1.949,1.949,0,0,0-.617,1.293V15H79.734V9.461a1.613,1.613,0,0,0-1.8-1.844,1.934,1.934,0,0,0-1.945,1.211V15H74.539V6.547ZM93.789,15a3.036,3.036,0,0,1-.2-.891,3.225,3.225,0,0,1-2.406,1.047,2.984,2.984,0,0,1-2.051-.707,2.288,2.288,0,0,1-.8-1.793,2.39,2.39,0,0,1,1-2.051,4.733,4.733,0,0,1,2.824-.73h1.406V9.211A1.623,1.623,0,0,0,93.109,8a1.821,1.821,0,0,0-1.336-.449,2.108,2.108,0,0,0-1.3.391,1.151,1.151,0,0,0-.523.945H88.5a2,2,0,0,1,.449-1.223,3.066,3.066,0,0,1,1.219-.934,4.1,4.1,0,0,1,1.691-.344,3.342,3.342,0,0,1,2.289.73,2.635,2.635,0,0,1,.859,2.012v3.891a4.757,4.757,0,0,0,.3,1.852V15Zm-2.4-1.1a2.54,2.54,0,0,0,1.289-.352,2.127,2.127,0,0,0,.883-.914V10.9H92.43q-2.656,0-2.656,1.555a1.316,1.316,0,0,0,.453,1.063A1.742,1.742,0,0,0,91.391,13.9Zm13.039-3.031a5.026,5.026,0,0,1-.891,3.113,2.846,2.846,0,0,1-2.391,1.176,2.947,2.947,0,0,1-2.477-1.133L98.6,15H97.273V3h1.445V7.477a2.93,2.93,0,0,1,2.414-1.086,2.863,2.863,0,0,1,2.418,1.164,5.177,5.177,0,0,1,.879,3.188Zm-1.445-.164a3.906,3.906,0,0,0-.57-2.281,1.888,1.888,0,0,0-1.641-.8,2.122,2.122,0,0,0-2.055,1.328V12.6a2.181,2.181,0,0,0,2.07,1.328,1.878,1.878,0,0,0,1.617-.8A4.153,4.153,0,0,0,102.984,10.7ZM107.82,15h-1.445V3h1.445Zm5.82.156a3.693,3.693,0,0,1-2.8-1.129,4.19,4.19,0,0,1-1.078-3.02v-.266a5.073,5.073,0,0,1,.48-2.246,3.748,3.748,0,0,1,1.344-1.547,3.378,3.378,0,0,1,1.871-.559,3.166,3.166,0,0,1,2.563,1.086,4.7,4.7,0,0,1,.914,3.109v.6h-5.727a3,3,0,0,0,.73,2.02,2.3,2.3,0,0,0,1.777.77,2.517,2.517,0,0,0,1.3-.312,3.259,3.259,0,0,0,.93-.828l.883.688A3.55,3.55,0,0,1,113.641,15.156Zm-.18-7.578a1.928,1.928,0,0,0-1.469.637A3.1,3.1,0,0,0,111.258,10h4.234V9.891a2.753,2.753,0,0,0-.594-1.707A1.815,1.815,0,0,0,113.461,7.578Z" transform="translate(931 1876)" fill="#12263f"/>
    <path id="Trazado_728720" data-name="Trazado 728720" d="M38.852,15h-1.5V3.625h1.5Zm3.883-8.453.047,1.063a3.08,3.08,0,0,1,2.531-1.219q2.68,0,2.7,3.023V15H46.57V9.406a1.946,1.946,0,0,0-.418-1.352,1.675,1.675,0,0,0-1.277-.437,2.086,2.086,0,0,0-1.234.375,2.546,2.546,0,0,0-.828.984V15H41.367V6.547ZM50.906,15V7.664H49.57V6.547h1.336V5.68a2.878,2.878,0,0,1,.727-2.1,2.745,2.745,0,0,1,2.055-.742,3.816,3.816,0,0,1,.992.132L54.6,4.133a4.151,4.151,0,0,0-.781-.07,1.41,1.41,0,0,0-1.086.411,1.669,1.669,0,0,0-.383,1.18v.893h1.8V7.664h-1.8V15Zm8.164.156a3.693,3.693,0,0,1-2.8-1.129,4.19,4.19,0,0,1-1.078-3.02v-.266a5.073,5.073,0,0,1,.48-2.246A3.748,3.748,0,0,1,57.02,6.949a3.378,3.378,0,0,1,1.871-.559,3.166,3.166,0,0,1,2.563,1.086,4.7,4.7,0,0,1,.914,3.109v.6H56.641a3,3,0,0,0,.73,2.02,2.3,2.3,0,0,0,1.777.77,2.517,2.517,0,0,0,1.3-.312,3.259,3.259,0,0,0,.93-.828l.883.688A3.55,3.55,0,0,1,59.07,15.156Zm-.18-7.578a1.928,1.928,0,0,0-1.469.637A3.1,3.1,0,0,0,56.688,10h4.234V9.891a2.753,2.753,0,0,0-.594-1.707A1.815,1.815,0,0,0,58.891,7.578Zm8.539,6.4a2.082,2.082,0,0,0,1.352-.469,1.649,1.649,0,0,0,.641-1.172h1.367a2.621,2.621,0,0,1-.5,1.383,3.293,3.293,0,0,1-1.23,1.047,3.55,3.55,0,0,1-1.629.391A3.482,3.482,0,0,1,64.684,14a4.59,4.59,0,0,1-1.02-3.152v-.242a5.089,5.089,0,0,1,.453-2.2,3.451,3.451,0,0,1,1.3-1.492,3.7,3.7,0,0,1,2-.531,3.39,3.39,0,0,1,2.363.852,3.043,3.043,0,0,1,1,2.211H69.422A1.992,1.992,0,0,0,68.8,8.105a1.932,1.932,0,0,0-1.379-.527,2.023,2.023,0,0,0-1.707.793,3.724,3.724,0,0,0-.605,2.293v.273a3.65,3.65,0,0,0,.6,2.25A2.033,2.033,0,0,0,67.43,13.977Zm8.375,0a2.082,2.082,0,0,0,1.352-.469,1.649,1.649,0,0,0,.641-1.172h1.367a2.621,2.621,0,0,1-.5,1.383,3.293,3.293,0,0,1-1.23,1.047,3.55,3.55,0,0,1-1.629.391A3.482,3.482,0,0,1,73.059,14a4.59,4.59,0,0,1-1.02-3.152v-.242a5.089,5.089,0,0,1,.453-2.2,3.451,3.451,0,0,1,1.3-1.492,3.7,3.7,0,0,1,2-.531,3.39,3.39,0,0,1,2.363.852,3.043,3.043,0,0,1,1,2.211H77.8a1.992,1.992,0,0,0-.621-1.348A1.932,1.932,0,0,0,75.8,7.578a2.023,2.023,0,0,0-1.707.793,3.724,3.724,0,0,0-.605,2.293v.273a3.65,3.65,0,0,0,.6,2.25A2.033,2.033,0,0,0,75.8,13.977ZM82.359,15H80.914V6.547h1.445ZM80.8,4.3a.863.863,0,0,1,.215-.594.807.807,0,0,1,.637-.242.819.819,0,0,1,.641.242.854.854,0,0,1,.219.594.826.826,0,0,1-.219.586.834.834,0,0,1-.641.234.821.821,0,0,1-.637-.234A.834.834,0,0,1,80.8,4.3ZM84.289,10.7a4.993,4.993,0,0,1,.488-2.234A3.643,3.643,0,0,1,86.137,6.93a3.7,3.7,0,0,1,1.988-.539,3.565,3.565,0,0,1,2.793,1.2,4.6,4.6,0,0,1,1.066,3.18v.1a5.036,5.036,0,0,1-.473,2.215,3.589,3.589,0,0,1-1.352,1.527,3.743,3.743,0,0,1-2.02.547,3.556,3.556,0,0,1-2.785-1.2A4.575,4.575,0,0,1,84.289,10.8Zm1.453.172a3.616,3.616,0,0,0,.652,2.258,2.211,2.211,0,0,0,3.5-.012,3.955,3.955,0,0,0,.648-2.418,3.61,3.61,0,0,0-.66-2.254,2.1,2.1,0,0,0-1.754-.863A2.075,2.075,0,0,0,86.4,8.43,3.925,3.925,0,0,0,85.742,10.867Zm12.977,1.891a1.064,1.064,0,0,0-.441-.91,4.249,4.249,0,0,0-1.539-.559A7.277,7.277,0,0,1,95,10.727a2.479,2.479,0,0,1-.953-.781,1.869,1.869,0,0,1-.309-1.078,2.193,2.193,0,0,1,.879-1.758,3.432,3.432,0,0,1,2.246-.719,3.532,3.532,0,0,1,2.332.742,2.357,2.357,0,0,1,.895,1.9H98.633a1.3,1.3,0,0,0-.5-1.023,1.888,1.888,0,0,0-1.27-.43,1.976,1.976,0,0,0-1.234.344,1.082,1.082,0,0,0-.445.9.877.877,0,0,0,.414.789,5.1,5.1,0,0,0,1.5.508,7.8,7.8,0,0,1,1.754.578,2.558,2.558,0,0,1,1,.809,1.988,1.988,0,0,1,.324,1.152,2.163,2.163,0,0,1-.906,1.816,3.8,3.8,0,0,1-2.352.684,4.257,4.257,0,0,1-1.8-.359,2.922,2.922,0,0,1-1.223-1,2.42,2.42,0,0,1-.441-1.395h1.445a1.5,1.5,0,0,0,.582,1.152,2.258,2.258,0,0,0,1.434.426,2.331,2.331,0,0,0,1.316-.332A1.02,1.02,0,0,0,98.719,12.758Zm2.945-2.062a4.993,4.993,0,0,1,.488-2.234,3.643,3.643,0,0,1,1.359-1.531,3.7,3.7,0,0,1,1.988-.539,3.565,3.565,0,0,1,2.793,1.2,4.6,4.6,0,0,1,1.066,3.18v.1a5.036,5.036,0,0,1-.473,2.215,3.589,3.589,0,0,1-1.352,1.527,3.743,3.743,0,0,1-2.02.547,3.556,3.556,0,0,1-2.785-1.2,4.575,4.575,0,0,1-1.066-3.164Zm1.453.172a3.616,3.616,0,0,0,.652,2.258,2.211,2.211,0,0,0,3.5-.012,3.955,3.955,0,0,0,.648-2.418,3.61,3.61,0,0,0-.66-2.254,2.1,2.1,0,0,0-1.754-.863,2.075,2.075,0,0,0-1.727.852A3.925,3.925,0,0,0,103.117,10.867Z" transform="translate(1042 1822)" fill="#12263f"/>
    <path id="Trazado_728721" data-name="Trazado 728721" d="M42.289,10.4H39.617V15H38.109V3.625h3.766a4.457,4.457,0,0,1,2.957.875,3.148,3.148,0,0,1,1.035,2.547A3.062,3.062,0,0,1,45.293,8.9a3.428,3.428,0,0,1-1.6,1.18l2.672,4.828V15H44.758ZM39.617,9.172h2.3A2.6,2.6,0,0,0,43.7,8.593a1.959,1.959,0,0,0,.66-1.55,2.062,2.062,0,0,0-.629-1.62,2.663,2.663,0,0,0-1.816-.571h-2.3ZM52.961,15a3.036,3.036,0,0,1-.2-.891,3.225,3.225,0,0,1-2.406,1.047,2.984,2.984,0,0,1-2.051-.707,2.287,2.287,0,0,1-.8-1.793,2.39,2.39,0,0,1,1-2.051,4.733,4.733,0,0,1,2.824-.73h1.406V9.211A1.623,1.623,0,0,0,52.281,8a1.821,1.821,0,0,0-1.336-.449,2.107,2.107,0,0,0-1.3.391,1.151,1.151,0,0,0-.523.945H47.672a2,2,0,0,1,.449-1.223,3.066,3.066,0,0,1,1.219-.934,4.1,4.1,0,0,1,1.691-.344,3.342,3.342,0,0,1,2.289.73,2.635,2.635,0,0,1,.859,2.012v3.891a4.757,4.757,0,0,0,.3,1.852V15Zm-2.4-1.1a2.54,2.54,0,0,0,1.289-.352,2.127,2.127,0,0,0,.883-.914V10.9H51.6q-2.656,0-2.656,1.555a1.316,1.316,0,0,0,.453,1.063A1.742,1.742,0,0,0,50.563,13.9Zm5.531-3.2a4.952,4.952,0,0,1,.922-3.129,3.137,3.137,0,0,1,4.766-.168V3h1.445V15H61.9l-.07-.906a2.943,2.943,0,0,1-2.414,1.063,2.887,2.887,0,0,1-2.395-1.2,5.008,5.008,0,0,1-.926-3.141Zm1.445.164a3.749,3.749,0,0,0,.594,2.25,1.92,1.92,0,0,0,1.641.813A2.108,2.108,0,0,0,61.781,12.7V8.813a2.125,2.125,0,0,0-1.992-1.2,1.929,1.929,0,0,0-1.656.82A4.128,4.128,0,0,0,57.539,10.867ZM67.039,15H65.594V6.547h1.445ZM65.477,4.3a.863.863,0,0,1,.215-.594.807.807,0,0,1,.637-.242.819.819,0,0,1,.641.242.854.854,0,0,1,.219.594.826.826,0,0,1-.219.586.834.834,0,0,1-.641.234.821.821,0,0,1-.637-.234A.834.834,0,0,1,65.477,4.3ZM74.57,15a3.036,3.036,0,0,1-.2-.891,3.225,3.225,0,0,1-2.406,1.047,2.984,2.984,0,0,1-2.051-.707,2.288,2.288,0,0,1-.8-1.793,2.39,2.39,0,0,1,1-2.051,4.733,4.733,0,0,1,2.824-.73h1.406V9.211A1.623,1.623,0,0,0,73.891,8a1.821,1.821,0,0,0-1.336-.449,2.108,2.108,0,0,0-1.3.391,1.151,1.151,0,0,0-.523.945H69.281a2,2,0,0,1,.449-1.223,3.066,3.066,0,0,1,1.219-.934,4.1,4.1,0,0,1,1.691-.344,3.342,3.342,0,0,1,2.289.73,2.635,2.635,0,0,1,.859,2.012v3.891a4.757,4.757,0,0,0,.3,1.852V15Zm-2.4-1.1a2.54,2.54,0,0,0,1.289-.352,2.127,2.127,0,0,0,.883-.914V10.9H73.211q-2.656,0-2.656,1.555a1.316,1.316,0,0,0,.453,1.063A1.742,1.742,0,0,0,72.172,13.9Zm9.273.078a2.082,2.082,0,0,0,1.352-.469,1.649,1.649,0,0,0,.641-1.172H84.8a2.621,2.621,0,0,1-.5,1.383,3.293,3.293,0,0,1-1.23,1.047,3.55,3.55,0,0,1-1.629.391A3.482,3.482,0,0,1,78.7,14a4.59,4.59,0,0,1-1.02-3.152v-.242a5.089,5.089,0,0,1,.453-2.2,3.451,3.451,0,0,1,1.3-1.492,3.7,3.7,0,0,1,2-.531,3.39,3.39,0,0,1,2.363.852,3.043,3.043,0,0,1,1,2.211H83.438a1.992,1.992,0,0,0-.621-1.348,1.932,1.932,0,0,0-1.379-.527,2.023,2.023,0,0,0-1.707.793,3.724,3.724,0,0,0-.605,2.293v.273a3.65,3.65,0,0,0,.6,2.25A2.033,2.033,0,0,0,81.445,13.977ZM88.391,4.5V6.547h1.578V7.664H88.391v5.249a1.173,1.173,0,0,0,.211.763.888.888,0,0,0,.719.254,3.5,3.5,0,0,0,.688-.094V15a4.215,4.215,0,0,1-1.109.155,1.8,1.8,0,0,1-1.461-.586,2.517,2.517,0,0,1-.492-1.664V7.664H85.406V6.547h1.539V4.5ZM93.227,15H91.781V6.547h1.445ZM91.664,4.3a.863.863,0,0,1,.215-.594.807.807,0,0,1,.637-.242.819.819,0,0,1,.641.242.854.854,0,0,1,.219.594.826.826,0,0,1-.219.586.834.834,0,0,1-.641.234.821.821,0,0,1-.637-.234A.834.834,0,0,1,91.664,4.3Zm6.664,8.734,2.094-6.492H101.9L98.867,15h-1.1L94.7,6.547H96.18Zm4.461-2.344a4.993,4.993,0,0,1,.488-2.234,3.643,3.643,0,0,1,1.359-1.531,3.7,3.7,0,0,1,1.988-.539,3.565,3.565,0,0,1,2.793,1.2,4.6,4.6,0,0,1,1.066,3.18v.1a5.036,5.036,0,0,1-.473,2.215,3.589,3.589,0,0,1-1.352,1.527,3.743,3.743,0,0,1-2.02.547,3.556,3.556,0,0,1-2.785-1.2,4.575,4.575,0,0,1-1.066-3.164Zm1.453.172a3.616,3.616,0,0,0,.652,2.258,2.211,2.211,0,0,0,3.5-.012,3.955,3.955,0,0,0,.648-2.418,3.61,3.61,0,0,0-.66-2.254,2.1,2.1,0,0,0-1.754-.863,2.075,2.075,0,0,0-1.727.852A3.925,3.925,0,0,0,104.242,10.867Z" transform="translate(1147 1763)" fill="#12263f"/>
    <g id="Grupo_957065" data-name="Grupo 957065" transform="translate(0 -7)">
      <line id="Línea_367" data-name="Línea 367" x2="220" transform="translate(380 1681)" fill="none" stroke="#0e494d" stroke-width="2" stroke-dasharray="6"/>
      <line id="Línea_368" data-name="Línea 368" y2="77" transform="translate(380.5 1681.5)" fill="none" stroke="#0e494d" stroke-width="2" stroke-dasharray="6"/>
      <g id="Polígono_12" data-name="Polígono 12" transform="translate(387 1763) rotate(180)" fill="#0e494d">
        <path d="M 10 7.499996185302734 L 2.000000476837158 7.499996185302734 C 1.806500434875488 7.499996185302734 1.639320492744446 7.396676540374756 1.552780508995056 7.223606586456299 C 1.466250419616699 7.050536632537842 1.483900427818298 6.854796409606934 1.600000500679016 6.699996471405029 L 5.600000381469727 1.366666436195374 C 5.695330619812012 1.239566445350647 5.84112024307251 1.166666388511658 6.000000476837158 1.166666388511658 C 6.158880710601807 1.166666388511658 6.304670333862305 1.239566445350647 6.40000057220459 1.366666436195374 L 10.40000057220459 6.699996471405029 C 10.51610088348389 6.854796409606934 10.53375053405762 7.050536632537842 10.44721031188965 7.223606586456299 C 10.36068058013916 7.396666526794434 10.19350051879883 7.499996185302734 10 7.499996185302734 Z" stroke="none"/>
        <path d="M 6.000000476837158 1.666666507720947 L 2.000000953674316 6.999996185302734 C 2.000000953674316 6.999996185302734 2.000000953674316 6.999996185302734 2.000000953674316 6.999996185302734 L 9.999992370605469 6.999996185302734 C 9.999994277954102 6.999994277954102 9.999995231628418 6.999992370605469 10 6.999996185302734 L 6.002230644226074 1.666896343231201 C 6.002010345458984 1.666826248168945 6.001170635223389 1.666666507720947 6.000000476837158 1.666666507720947 M 6.000000476837158 0.6666688919067383 C 6.300000667572021 0.6666688919067383 6.600000381469727 0.8000016212463379 6.800000667572021 1.066666603088379 L 10.80000019073486 6.399996757507324 C 11.29443073272705 7.059236526489258 10.82404041290283 7.999996185302734 10 7.999996185302734 L 2.000000953674316 7.999996185302734 C 1.175950050354004 7.999996185302734 0.7055702209472656 7.059236526489258 1.200000762939453 6.399996757507324 L 5.200000286102295 1.066666603088379 C 5.40000057220459 0.8000016212463379 5.700000286102295 0.6666688919067383 6.000000476837158 0.6666688919067383 Z" stroke="none" fill="#0e494d"/>
      </g>
    </g>
    <g id="Grupo_957068" data-name="Grupo 957068" transform="translate(0 -7)">
      <line id="Línea_366" data-name="Línea 366" x2="1" y2="191" transform="translate(799.5 1716.5)" fill="none" stroke="#0e494d" stroke-width="2" stroke-dasharray="6"/>
      <g id="Polígono_12-2" data-name="Polígono 12" transform="translate(806 1914) rotate(180)" fill="#0e494d">
        <path d="M 10 7.499996185302734 L 2.000000476837158 7.499996185302734 C 1.806500434875488 7.499996185302734 1.639320492744446 7.396676540374756 1.552780508995056 7.223606586456299 C 1.466250419616699 7.050536632537842 1.483900427818298 6.854796409606934 1.600000500679016 6.699996471405029 L 5.600000381469727 1.366666436195374 C 5.695330619812012 1.239566445350647 5.84112024307251 1.166666388511658 6.000000476837158 1.166666388511658 C 6.158880710601807 1.166666388511658 6.304670333862305 1.239566445350647 6.40000057220459 1.366666436195374 L 10.40000057220459 6.699996471405029 C 10.51610088348389 6.854796409606934 10.53375053405762 7.050536632537842 10.44721031188965 7.223606586456299 C 10.36068058013916 7.396666526794434 10.19350051879883 7.499996185302734 10 7.499996185302734 Z" stroke="none"/>
        <path d="M 6.000000476837158 1.666666507720947 L 2.000000953674316 6.999996185302734 C 2.000000953674316 6.999996185302734 2.000000953674316 6.999996185302734 2.000000953674316 6.999996185302734 L 9.999992370605469 6.999996185302734 C 9.999994277954102 6.999994277954102 9.999995231628418 6.999992370605469 10 6.999996185302734 L 6.002230644226074 1.666896343231201 C 6.002010345458984 1.666826248168945 6.001170635223389 1.666666507720947 6.000000476837158 1.666666507720947 M 6.000000476837158 0.6666688919067383 C 6.300000667572021 0.6666688919067383 6.600000381469727 0.8000016212463379 6.800000667572021 1.066666603088379 L 10.80000019073486 6.399996757507324 C 11.29443073272705 7.059236526489258 10.82404041290283 7.999996185302734 10 7.999996185302734 L 2.000000953674316 7.999996185302734 C 1.175950050354004 7.999996185302734 0.7055702209472656 7.059236526489258 1.200000762939453 6.399996757507324 L 5.200000286102295 1.066666603088379 C 5.40000057220459 0.8000016212463379 5.700000286102295 0.6666688919067383 6.000000476837158 0.6666688919067383 Z" stroke="none" fill="#0e494d"/>
      </g>
    </g>
    <g id="Grupo_957071" data-name="Grupo 957071" transform="translate(0 -7)">
      <line id="Línea_369" data-name="Línea 369" x1="220" transform="translate(1001 1681)" fill="none" stroke="#0e494d" stroke-width="2" stroke-dasharray="6"/>
      <line id="Línea_370" data-name="Línea 370" y2="77" transform="translate(1220.5 1681.5)" fill="none" stroke="#0e494d" stroke-width="2" stroke-dasharray="6"/>
      <g id="Polígono_12-3" data-name="Polígono 12" transform="translate(1227 1763) rotate(180)" fill="#0e494d">
        <path d="M 10 7.499996185302734 L 2.000000476837158 7.499996185302734 C 1.806500434875488 7.499996185302734 1.639320492744446 7.396676540374756 1.552780508995056 7.223606586456299 C 1.466250419616699 7.050536632537842 1.483900427818298 6.854796409606934 1.600000500679016 6.699996471405029 L 5.600000381469727 1.366666436195374 C 5.695330619812012 1.239566445350647 5.84112024307251 1.166666388511658 6.000000476837158 1.166666388511658 C 6.158880710601807 1.166666388511658 6.304670333862305 1.239566445350647 6.40000057220459 1.366666436195374 L 10.40000057220459 6.699996471405029 C 10.51610088348389 6.854796409606934 10.53375053405762 7.050536632537842 10.44721031188965 7.223606586456299 C 10.36068058013916 7.396666526794434 10.19350051879883 7.499996185302734 10 7.499996185302734 Z" stroke="none"/>
        <path d="M 6.000000476837158 1.666666507720947 L 2.000000953674316 6.999996185302734 C 2.000000953674316 6.999996185302734 2.000000953674316 6.999996185302734 2.000000953674316 6.999996185302734 L 9.999992370605469 6.999996185302734 C 9.999994277954102 6.999994277954102 9.999995231628418 6.999992370605469 10 6.999996185302734 L 6.002230644226074 1.666896343231201 C 6.002010345458984 1.666826248168945 6.001170635223389 1.666666507720947 6.000000476837158 1.666666507720947 M 6.000000476837158 0.6666688919067383 C 6.300000667572021 0.6666688919067383 6.600000381469727 0.8000016212463379 6.800000667572021 1.066666603088379 L 10.80000019073486 6.399996757507324 C 11.29443073272705 7.059236526489258 10.82404041290283 7.999996185302734 10 7.999996185302734 L 2.000000953674316 7.999996185302734 C 1.175950050354004 7.999996185302734 0.7055702209472656 7.059236526489258 1.200000762939453 6.399996757507324 L 5.200000286102295 1.066666603088379 C 5.40000057220459 0.8000016212463379 5.700000286102295 0.6666688919067383 6.000000476837158 0.6666688919067383 Z" stroke="none" fill="#0e494d"/>
      </g>
    </g>
    <g id="Grupo_957066" data-name="Grupo 957066" transform="translate(0 -7)">
      <line id="Línea_371" data-name="Línea 371" y2="22" transform="translate(485.5 1799.5)" fill="none" stroke="#0e494d" stroke-width="2" stroke-dasharray="6"/>
      <line id="Línea_372" data-name="Línea 372" x1="184.998" transform="translate(485.5 1799.5)" fill="none" stroke="#0e494d" stroke-width="2" stroke-dasharray="6"/>
      <line id="Línea_373" data-name="Línea 373" y2="83" transform="translate(670.498 1716.5)" fill="none" stroke="#0e494d" stroke-width="2" stroke-dasharray="6"/>
      <g id="Polígono_13" data-name="Polígono 13" transform="translate(492 1822) rotate(180)" fill="#0e494d">
        <path d="M 10 7.499996185302734 L 2.000000476837158 7.499996185302734 C 1.806500434875488 7.499996185302734 1.639320492744446 7.396676540374756 1.552780508995056 7.223606586456299 C 1.466250419616699 7.050536632537842 1.483900427818298 6.854796409606934 1.600000500679016 6.699996471405029 L 5.600000381469727 1.366666436195374 C 5.695330619812012 1.239566445350647 5.84112024307251 1.166666388511658 6.000000476837158 1.166666388511658 C 6.158880710601807 1.166666388511658 6.304670333862305 1.239566445350647 6.40000057220459 1.366666436195374 L 10.40000057220459 6.699996471405029 C 10.51610088348389 6.854796409606934 10.53375053405762 7.050536632537842 10.44721031188965 7.223606586456299 C 10.36068058013916 7.396666526794434 10.19350051879883 7.499996185302734 10 7.499996185302734 Z" stroke="none"/>
        <path d="M 6.000000476837158 1.666666507720947 L 2.000000953674316 6.999996185302734 C 2.000000953674316 6.999996185302734 2.000000953674316 6.999996185302734 2.000000953674316 6.999996185302734 L 9.999992370605469 6.999996185302734 C 9.999994277954102 6.999994277954102 9.999995231628418 6.999992370605469 10 6.999996185302734 L 6.002230644226074 1.666896343231201 C 6.002010345458984 1.666826248168945 6.001170635223389 1.666666507720947 6.000000476837158 1.666666507720947 M 6.000000476837158 0.6666688919067383 C 6.300000667572021 0.6666688919067383 6.600000381469727 0.8000016212463379 6.800000667572021 1.066666603088379 L 10.80000019073486 6.399996757507324 C 11.29443073272705 7.059236526489258 10.82404041290283 7.999996185302734 10 7.999996185302734 L 2.000000953674316 7.999996185302734 C 1.175950050354004 7.999996185302734 0.7055702209472656 7.059236526489258 1.200000762939453 6.399996757507324 L 5.200000286102295 1.066666603088379 C 5.40000057220459 0.8000016212463379 5.700000286102295 0.6666688919067383 6.000000476837158 0.6666688919067383 Z" stroke="none" fill="#0e494d"/>
      </g>
    </g>
    <g id="Grupo_957067" data-name="Grupo 957067" transform="translate(0 -7)">
      <line id="Línea_374" data-name="Línea 374" y2="34" transform="translate(590.5 1840.5)" fill="none" stroke="#0e494d" stroke-width="2" stroke-dasharray="6"/>
      <line id="Línea_375" data-name="Línea 375" x1="146.921" transform="translate(590.5 1841.396)" fill="none" stroke="#0e494d" stroke-width="2" stroke-dasharray="6"/>
      <line id="Línea_376" data-name="Línea 376" y2="125" transform="translate(737.421 1716.5)" fill="none" stroke="#0e494d" stroke-width="2" stroke-dasharray="6"/>
      <g id="Polígono_14" data-name="Polígono 14" transform="translate(597 1875) rotate(180)" fill="#0e494d">
        <path d="M 10 7.499996185302734 L 2.000000476837158 7.499996185302734 C 1.806500434875488 7.499996185302734 1.639320492744446 7.396676540374756 1.552780508995056 7.223606586456299 C 1.466250419616699 7.050536632537842 1.483900427818298 6.854796409606934 1.600000500679016 6.699996471405029 L 5.600000381469727 1.366666436195374 C 5.695330619812012 1.239566445350647 5.84112024307251 1.166666388511658 6.000000476837158 1.166666388511658 C 6.158880710601807 1.166666388511658 6.304670333862305 1.239566445350647 6.40000057220459 1.366666436195374 L 10.40000057220459 6.699996471405029 C 10.51610088348389 6.854796409606934 10.53375053405762 7.050536632537842 10.44721031188965 7.223606586456299 C 10.36068058013916 7.396666526794434 10.19350051879883 7.499996185302734 10 7.499996185302734 Z" stroke="none"/>
        <path d="M 6.000000476837158 1.666666507720947 L 2.000000953674316 6.999996185302734 C 2.000000953674316 6.999996185302734 2.000000953674316 6.999996185302734 2.000000953674316 6.999996185302734 L 9.999992370605469 6.999996185302734 C 9.999994277954102 6.999994277954102 9.999995231628418 6.999992370605469 10 6.999996185302734 L 6.002230644226074 1.666896343231201 C 6.002010345458984 1.666826248168945 6.001170635223389 1.666666507720947 6.000000476837158 1.666666507720947 M 6.000000476837158 0.6666688919067383 C 6.300000667572021 0.6666688919067383 6.600000381469727 0.8000016212463379 6.800000667572021 1.066666603088379 L 10.80000019073486 6.399996757507324 C 11.29443073272705 7.059236526489258 10.82404041290283 7.999996185302734 10 7.999996185302734 L 2.000000953674316 7.999996185302734 C 1.175950050354004 7.999996185302734 0.7055702209472656 7.059236526489258 1.200000762939453 6.399996757507324 L 5.200000286102295 1.066666603088379 C 5.40000057220459 0.8000016212463379 5.700000286102295 0.6666688919067383 6.000000476837158 0.6666688919067383 Z" stroke="none" fill="#0e494d"/>
      </g>
    </g>
    <g id="Grupo_957069" data-name="Grupo 957069" transform="translate(0 -7)">
      <line id="Línea_377" data-name="Línea 377" x1="0.079" y2="34" transform="translate(1009.421 1840.5)" fill="none" stroke="#0e494d" stroke-width="2" stroke-dasharray="6"/>
      <line id="Línea_378" data-name="Línea 378" x2="146.921" transform="translate(862.5 1841.396)" fill="none" stroke="#0e494d" stroke-width="2" stroke-dasharray="6"/>
      <line id="Línea_379" data-name="Línea 379" y2="125" transform="translate(862.5 1716.5)" fill="none" stroke="#0e494d" stroke-width="2" stroke-dasharray="6"/>
      <g id="Polígono_15" data-name="Polígono 15" transform="translate(1015 1876) rotate(180)" fill="#0e494d">
        <path d="M 10 7.499996185302734 L 2.000000476837158 7.499996185302734 C 1.806500434875488 7.499996185302734 1.639320492744446 7.396676540374756 1.552780508995056 7.223606586456299 C 1.466250419616699 7.050536632537842 1.483900427818298 6.854796409606934 1.600000500679016 6.699996471405029 L 5.600000381469727 1.366666436195374 C 5.695330619812012 1.239566445350647 5.84112024307251 1.166666388511658 6.000000476837158 1.166666388511658 C 6.158880710601807 1.166666388511658 6.304670333862305 1.239566445350647 6.40000057220459 1.366666436195374 L 10.40000057220459 6.699996471405029 C 10.51610088348389 6.854796409606934 10.53375053405762 7.050536632537842 10.44721031188965 7.223606586456299 C 10.36068058013916 7.396666526794434 10.19350051879883 7.499996185302734 10 7.499996185302734 Z" stroke="none"/>
        <path d="M 6.000000476837158 1.666666507720947 L 2.000000953674316 6.999996185302734 C 2.000000953674316 6.999996185302734 2.000000953674316 6.999996185302734 2.000000953674316 6.999996185302734 L 9.999992370605469 6.999996185302734 C 9.999994277954102 6.999994277954102 9.999995231628418 6.999992370605469 10 6.999996185302734 L 6.002230644226074 1.666896343231201 C 6.002010345458984 1.666826248168945 6.001170635223389 1.666666507720947 6.000000476837158 1.666666507720947 M 6.000000476837158 0.6666688919067383 C 6.300000667572021 0.6666688919067383 6.600000381469727 0.8000016212463379 6.800000667572021 1.066666603088379 L 10.80000019073486 6.399996757507324 C 11.29443073272705 7.059236526489258 10.82404041290283 7.999996185302734 10 7.999996185302734 L 2.000000953674316 7.999996185302734 C 1.175950050354004 7.999996185302734 0.7055702209472656 7.059236526489258 1.200000762939453 6.399996757507324 L 5.200000286102295 1.066666603088379 C 5.40000057220459 0.8000016212463379 5.700000286102295 0.6666688919067383 6.000000476837158 0.6666688919067383 Z" stroke="none" fill="#0e494d"/>
      </g>
    </g>
    <g id="Grupo_957070" data-name="Grupo 957070" transform="translate(0 -7)">
      <line id="Línea_380" data-name="Línea 380" y2="22" transform="translate(1116.498 1799.5)" fill="none" stroke="#0e494d" stroke-width="2" stroke-dasharray="6"/>
      <line id="Línea_381" data-name="Línea 381" x2="184.998" transform="translate(931.5 1799.5)" fill="none" stroke="#0e494d" stroke-width="2" stroke-dasharray="6"/>
      <line id="Línea_382" data-name="Línea 382" y2="83" transform="translate(931.5 1716.5)" fill="none" stroke="#0e494d" stroke-width="2" stroke-dasharray="6"/>
      <g id="Polígono_16" data-name="Polígono 16" transform="translate(1122 1822) rotate(180)" fill="#0e494d">
        <path d="M 10 7.499996185302734 L 2.000000476837158 7.499996185302734 C 1.806500434875488 7.499996185302734 1.639320492744446 7.396676540374756 1.552780508995056 7.223606586456299 C 1.466250419616699 7.050536632537842 1.483900427818298 6.854796409606934 1.600000500679016 6.699996471405029 L 5.600000381469727 1.366666436195374 C 5.695330619812012 1.239566445350647 5.84112024307251 1.166666388511658 6.000000476837158 1.166666388511658 C 6.158880710601807 1.166666388511658 6.304670333862305 1.239566445350647 6.40000057220459 1.366666436195374 L 10.40000057220459 6.699996471405029 C 10.51610088348389 6.854796409606934 10.53375053405762 7.050536632537842 10.44721031188965 7.223606586456299 C 10.36068058013916 7.396666526794434 10.19350051879883 7.499996185302734 10 7.499996185302734 Z" stroke="none"/>
        <path d="M 6.000000476837158 1.666666507720947 L 2.000000953674316 6.999996185302734 C 2.000000953674316 6.999996185302734 2.000000953674316 6.999996185302734 2.000000953674316 6.999996185302734 L 9.999992370605469 6.999996185302734 C 9.999994277954102 6.999994277954102 9.999995231628418 6.999992370605469 10 6.999996185302734 L 6.002230644226074 1.666896343231201 C 6.002010345458984 1.666826248168945 6.001170635223389 1.666666507720947 6.000000476837158 1.666666507720947 M 6.000000476837158 0.6666688919067383 C 6.300000667572021 0.6666688919067383 6.600000381469727 0.8000016212463379 6.800000667572021 1.066666603088379 L 10.80000019073486 6.399996757507324 C 11.29443073272705 7.059236526489258 10.82404041290283 7.999996185302734 10 7.999996185302734 L 2.000000953674316 7.999996185302734 C 1.175950050354004 7.999996185302734 0.7055702209472656 7.059236526489258 1.200000762939453 6.399996757507324 L 5.200000286102295 1.066666603088379 C 5.40000057220459 0.8000016212463379 5.700000286102295 0.6666688919067383 6.000000476837158 0.6666688919067383 Z" stroke="none" fill="#0e494d"/>
      </g>
    </g>
  </g>
</svg>
