<svg xmlns="http://www.w3.org/2000/svg" xmlns:xlink="http://www.w3.org/1999/xlink" width="138.244" height="99.693" viewBox="0 0 138.244 99.693">
  <defs>
    <linearGradient id="linear-gradient" x1="1.015" y1="0.817" x2="-0.154" y2="0.111" gradientUnits="objectBoundingBox">
      <stop offset="0.232" stop-color="#e20a0a"/>
      <stop offset="0.566" stop-color="#f00505"/>
      <stop offset="0.984" stop-color="#fd0000"/>
    </linearGradient>
    <linearGradient id="linear-gradient-2" y1="0.5" x2="1" y2="0.5" gradientUnits="objectBoundingBox">
      <stop offset="0" stop-color="#d40a0a"/>
      <stop offset="0.55" stop-color="#bd0404"/>
      <stop offset="0.984" stop-color="#b00000"/>
    </linearGradient>
    <linearGradient id="linear-gradient-3" x1="1.073" y1="1.071" x2="0.005" y2="0.072" gradientUnits="objectBoundingBox">
      <stop offset="0" stop-color="#ef0a0a"/>
      <stop offset="0.361" stop-color="#e50606"/>
      <stop offset="0.984" stop-color="#d80000"/>
    </linearGradient>
    <radialGradient id="radial-gradient" cx="0.308" cy="0.995" r="1.03" gradientTransform="translate(0.128) scale(0.745 1)" gradientUnits="objectBoundingBox">
      <stop offset="0.016" stop-color="#fb0000"/>
      <stop offset="0.323" stop-color="#ee0202"/>
      <stop offset="0.892" stop-color="#cb0909"/>
      <stop offset="1" stop-color="#c40a0a"/>
    </radialGradient>
    <clipPath id="clip-path">
      <path id="Trazado_118523" data-name="Trazado 118523" d="M2053.9,1455.787l-9.346,7.141a12.938,12.938,0,0,1-5.294.169,13.6,13.6,0,0,1-4.88-1.885,13.853,13.853,0,0,1-3.855-3.612,13.6,13.6,0,0,1-2.241-4.955l7.6-8.424a15.441,15.441,0,0,0,2.54,5.483,15.905,15.905,0,0,0,4.294,4.038,15.3,15.3,0,0,0,5.385,2.15A14.078,14.078,0,0,0,2053.9,1455.787Z" transform="translate(-2028.28 -1444.22)"/>
    </clipPath>
    <radialGradient id="radial-gradient-3" cx="0.5" cy="0.5" r="0.664" gradientTransform="translate(0.185) scale(0.63 1)" xlink:href="#radial-gradient"/>
    <radialGradient id="radial-gradient-4" cx="0.186" cy="0.939" r="1.717" gradientTransform="translate(0.165) scale(0.671 1)" gradientUnits="objectBoundingBox">
      <stop offset="0" stop-color="#fff"/>
      <stop offset="0.098" stop-color="#fafafa"/>
      <stop offset="0.222" stop-color="#eaeaea"/>
      <stop offset="0.36" stop-color="#d0d0d0"/>
      <stop offset="0.508" stop-color="#acacac"/>
      <stop offset="0.664" stop-color="#7d7d7d"/>
      <stop offset="0.827" stop-color="#454545"/>
      <stop offset="0.993" stop-color="#030303"/>
      <stop offset="1"/>
    </radialGradient>
    <radialGradient id="radial-gradient-5" cx="0.5" cy="0.5" r="0.64" gradientTransform="translate(0.169) scale(0.662 1)" xlink:href="#radial-gradient"/>
    <radialGradient id="radial-gradient-6" cx="0.5" cy="0.5" r="0.485" gradientTransform="translate(-0.033) scale(1.066 1)" gradientUnits="objectBoundingBox">
      <stop offset="0" stop-color="#fff"/>
      <stop offset="1" stop-color="#efefef"/>
    </radialGradient>
    <radialGradient id="radial-gradient-7" cx="0.5" cy="0.5" r="0.485" xlink:href="#radial-gradient-6"/>
    <radialGradient id="radial-gradient-8" cx="0.786" cy="0.071" r="2.716" gradientTransform="translate(0.246) scale(0.507 1)" xlink:href="#radial-gradient-4"/>
    <linearGradient id="linear-gradient-4" x1="-0.008" y1="0.502" x2="0.983" y2="0.502" gradientUnits="objectBoundingBox">
      <stop offset="0.232" stop-color="#c20a0a"/>
      <stop offset="0.352" stop-color="#cd0808"/>
      <stop offset="0.762" stop-color="#f00202"/>
      <stop offset="0.984" stop-color="#fd0000"/>
    </linearGradient>
    <linearGradient id="linear-gradient-5" x1="0.02" y1="0.5" x2="0.981" y2="0.5" xlink:href="#linear-gradient-4"/>
  </defs>
  <g id="Grupo_956867" data-name="Grupo 956867" transform="translate(0 0)">
    <path id="XMLID_319_" d="M2062.885,864.828a9.469,9.469,0,0,1,3.441.663,13.656,13.656,0,0,1,3.313,1.856,15.835,15.835,0,0,1,2.852,2.775,14.485,14.485,0,0,1,2.052,3.446l20.187,48.671a14.2,14.2,0,0,1,1.058,4.186,10.1,10.1,0,0,1-.328,3.733,6.827,6.827,0,0,1-1.637,2.883,5.79,5.79,0,0,1-2.874,1.6l-92.259,21.3a14.068,14.068,0,0,1-5.792.1,15.292,15.292,0,0,1-5.385-2.15,15.91,15.91,0,0,1-4.294-4.038,15.434,15.434,0,0,1-2.54-5.484l-16.091-66.813a9.752,9.752,0,0,1-.033-4.653,8.713,8.713,0,0,1,2.01-3.769,10.011,10.011,0,0,1,3.629-2.517,13.005,13.005,0,0,1,4.851-.94Zm-13.428,37.16a.9.9,0,0,0,.259-.534,1.37,1.37,0,0,0-.08-.638,1.839,1.839,0,0,0-.368-.607,1.774,1.774,0,0,0-.607-.437l-29.591-12.76a1.848,1.848,0,0,0-.185-.069,1.494,1.494,0,0,0-.181-.044,1.608,1.608,0,0,0-.176-.022,1.393,1.393,0,0,0-.167,0,1.133,1.133,0,0,0-.464.129.952.952,0,0,0-.335.3.969.969,0,0,0-.161.435,1.268,1.268,0,0,0,.059.537l10.113,31.811a1.827,1.827,0,0,0,.3.567,1.862,1.862,0,0,0,.446.413,1.706,1.706,0,0,0,.527.233,1.343,1.343,0,0,0,.541.027,1.093,1.093,0,0,0,.165-.038,1.112,1.112,0,0,0,.156-.062.934.934,0,0,0,.147-.088,1.158,1.158,0,0,0,.136-.112l19.467-19.042Z" transform="translate(-1957.589 -864.827)" fill="url(#linear-gradient)"/>
    <path id="XMLID_14_" d="M2249.405,1370.034c-.106.045-.215.088-.325.126s-.223.075-.336.108-.231.063-.349.091l-92.259,21.3-9.346,7.14,86.739-21.059c.114-.028.227-.058.336-.092s.218-.069.326-.108.211-.08.314-.124.2-.091.3-.14l14.91-7.389C2249.615,1369.941,2249.511,1369.989,2249.405,1370.034Z" transform="translate(-2115.033 -1300.547)" fill="url(#linear-gradient-2)"/>
    <path id="XMLID_39_" d="M1930.762,922.254a10.787,10.787,0,0,1-.253-1.5,9.835,9.835,0,0,1-.031-1.447,9.064,9.064,0,0,1,.178-1.377,8.812,8.812,0,0,1,.375-1.3l-5.4,14.383a8.475,8.475,0,0,0-.357,1.221,8.815,8.815,0,0,0-.177,1.291,9.4,9.4,0,0,0,.014,1.348,10.132,10.132,0,0,0,.217,1.395l13.923,61.224,7.6-8.424Z" transform="translate(-1923.764 -909.518)" fill="url(#linear-gradient-3)"/>
    <path id="Trazado_118522" data-name="Trazado 118522" d="M2053.9,1455.787l-9.346,7.141a12.938,12.938,0,0,1-5.294.169,13.6,13.6,0,0,1-4.88-1.885,13.853,13.853,0,0,1-3.855-3.612,13.6,13.6,0,0,1-2.241-4.955l7.6-8.424a15.441,15.441,0,0,0,2.54,5.483,15.905,15.905,0,0,0,4.294,4.038,15.3,15.3,0,0,0,5.385,2.15A14.078,14.078,0,0,0,2053.9,1455.787Z" transform="translate(-2012.795 -1364.672)" fill="url(#radial-gradient)"/>
    <g id="XMLID_63_" transform="translate(15.486 79.548)" clip-path="url(#clip-path)">
      <path id="XMLID_64_" d="M2053.9,1455.787l-9.346,7.141a12.938,12.938,0,0,1-5.294.169,13.6,13.6,0,0,1-4.88-1.885,13.853,13.853,0,0,1-3.855-3.612,13.6,13.6,0,0,1-2.241-4.955l7.6-8.424a15.441,15.441,0,0,0,2.54,5.483,15.905,15.905,0,0,0,4.294,4.038,15.3,15.3,0,0,0,5.385,2.15,14.078,14.078,0,0,0,5.794-.1" transform="translate(-2028.28 -1444.22)" fill="url(#radial-gradient)"/>
    </g>
    <path id="XMLID_314_" d="M2046.932,1078.579l-3.408,1.689c-.1.049-.2.1-.3.14s-.207.085-.313.124-.216.074-.327.107-.222.064-.336.092l-86.737,21.06h0a12.92,12.92,0,0,1-5.294.169,13.555,13.555,0,0,1-4.878-1.884,13.855,13.855,0,0,1-3.855-3.612,13.6,13.6,0,0,1-2.241-4.955l-13.923-61.223a10.092,10.092,0,0,1-.217-1.395,9.194,9.194,0,0,1-.014-1.348,8.869,8.869,0,0,1,.177-1.291,8.408,8.408,0,0,1,.222-.832l14.586,64.143a14.283,14.283,0,0,0,2.356,5.209,14.515,14.515,0,0,0,4.053,3.8,14.269,14.269,0,0,0,5.128,1.981,13.625,13.625,0,0,0,5.566-.177h0Z" transform="translate(-1923.752 -1003.371)" fill="url(#radial-gradient-3)"/>
    <path id="XMLID_11_" d="M2091.817,959.2l-92.259,21.3a14.043,14.043,0,0,1-5.792.1,15.284,15.284,0,0,1-5.385-2.15,15.888,15.888,0,0,1-4.295-4.038,15.467,15.467,0,0,1-2.54-5.482l-16.091-66.813a9.747,9.747,0,0,1-.033-4.653,8.69,8.69,0,0,1,1.365-2.966c-.077.078-.151.158-.224.239a8.725,8.725,0,0,0-2.01,3.769,9.758,9.758,0,0,0,.033,4.653l16.092,66.813a15.44,15.44,0,0,0,2.54,5.482,15.915,15.915,0,0,0,4.295,4.038,15.317,15.317,0,0,0,5.385,2.15,14.1,14.1,0,0,0,5.792-.1l92.259-21.3a5.786,5.786,0,0,0,2.872-1.6,6.078,6.078,0,0,0,.728-.9A5.79,5.79,0,0,1,2091.817,959.2Z" transform="translate(-1957.59 -890.435)" opacity="0.56" fill="url(#radial-gradient-4)"/>
    <path id="XMLID_42_" d="M2081.912,978.869l-4.813,2.386-90.492,20.894a14.067,14.067,0,0,1-5.792.1,15.315,15.315,0,0,1-5.385-2.15,15.888,15.888,0,0,1-4.294-4.038,15.44,15.44,0,0,1-2.54-5.482L1952.5,923.77a11.037,11.037,0,0,1-.222-1.227l2.216-5.9a8.584,8.584,0,0,0-.375,1.295,9.275,9.275,0,0,0-.178,1.377,9.906,9.906,0,0,0,.032,1.447,11.158,11.158,0,0,0,.253,1.5l16.092,66.813a15.427,15.427,0,0,0,2.54,5.482,15.9,15.9,0,0,0,4.294,4.038,15.315,15.315,0,0,0,5.385,2.15,14.1,14.1,0,0,0,5.792-.1l92.259-21.3c.116-.028.235-.058.348-.091s.227-.07.338-.11.218-.081.324-.126S2081.811,978.919,2081.912,978.869Z" transform="translate(-1947.229 -909.526)" fill="url(#radial-gradient-5)"/>
    <g id="XMLID_316_" transform="translate(59.804 22.048)">
      <path id="XMLID_317_" d="M2352.052,1025.411a1.065,1.065,0,0,1,.167,0,1.622,1.622,0,0,1,.175.022c.059.011.12.026.182.044a1.769,1.769,0,0,1,.186.069l29.591,12.76a1.76,1.76,0,0,1,.607.437,1.823,1.823,0,0,1,.368.607,1.368,1.368,0,0,1,.08.64.9.9,0,0,1-.259.534l-19.467,19.043a.962.962,0,0,1-.135.113,1.328,1.328,0,0,1-.147.088,1.154,1.154,0,0,1-.157.062,1.308,1.308,0,0,1-.165.038,1.385,1.385,0,0,1-.541-.027,1.71,1.71,0,0,1-.527-.233,1.87,1.87,0,0,1-.446-.413,1.844,1.844,0,0,1-.3-.567l-10.113-31.811a1.278,1.278,0,0,1-.059-.538.956.956,0,0,1,.161-.435.94.94,0,0,1,.334-.3A1.112,1.112,0,0,1,2352.052,1025.411Z" transform="translate(-2351.085 -1025.407)" fill="url(#radial-gradient-6)"/>
    </g>
    <g id="XMLID_44_" transform="translate(58.32 20.465)">
      <path id="XMLID_46_" d="M2341.328,1013.891a1.3,1.3,0,0,1,.182,0,1.554,1.554,0,0,1,.191.023,1.762,1.762,0,0,1,.2.048,2.05,2.05,0,0,1,.2.074l32.307,13.931a1.923,1.923,0,0,1,.663.478,2.01,2.01,0,0,1,.4.662,1.5,1.5,0,0,1,.088.7.978.978,0,0,1-.283.584l-21.254,20.79a1.231,1.231,0,0,1-.148.124,1.059,1.059,0,0,1-.161.094,1.2,1.2,0,0,1-.172.069,1.326,1.326,0,0,1-.179.041,1.489,1.489,0,0,1-.591-.03,1.892,1.892,0,0,1-.575-.254,2.031,2.031,0,0,1-.488-.45,2,2,0,0,1-.326-.619l-11.041-34.73a1.4,1.4,0,0,1-.064-.586,1.045,1.045,0,0,1,.176-.476,1.034,1.034,0,0,1,.365-.327A1.222,1.222,0,0,1,2341.328,1013.891Z" transform="translate(-2340.271 -1013.887)" fill="url(#radial-gradient-7)"/>
    </g>
    <path id="XMLID_244_" d="M2097.315,926.427a14.215,14.215,0,0,0-1.058-4.186l-20.186-48.671a14.461,14.461,0,0,0-2.052-3.446,15.84,15.84,0,0,0-2.852-2.775,13.656,13.656,0,0,0-3.313-1.856,9.464,9.464,0,0,0-3.44-.664l-87.841.857a13.008,13.008,0,0,0-4.851.94,10.026,10.026,0,0,0-3.63,2.517,8.732,8.732,0,0,0-2.009,3.769c-.008.033-.016.065-.023.1a8.778,8.778,0,0,1,1.392-2.061,10.007,10.007,0,0,1,3.629-2.515,13.005,13.005,0,0,1,4.851-.941l87.841-.858a9.451,9.451,0,0,1,3.442.665,13.659,13.659,0,0,1,3.313,1.858,15.752,15.752,0,0,1,2.85,2.775,14.4,14.4,0,0,1,2.052,3.446l20.186,48.671a14.2,14.2,0,0,1,1.059,4.186,10.423,10.423,0,0,1-.192,3.21,7.729,7.729,0,0,0,.507-1.285A10.136,10.136,0,0,0,2097.315,926.427Z" transform="translate(-1959.117 -864.828)" opacity="0.7" fill="url(#radial-gradient-8)"/>
    <path id="XMLID_366_" d="M1915.5,1058.144c.008,0,.008-.014,0-.014a.007.007,0,1,0,0,.014Z" transform="translate(-1915.498 -1031.59)" fill="url(#linear-gradient-4)"/>
    <path id="XMLID_358_" d="M2242.93,1495.232Z" transform="translate(-2196.83 -1395.673)" fill="url(#linear-gradient-5)"/>
  </g>
</svg>
