<svg xmlns="http://www.w3.org/2000/svg" width="190" height="143" viewBox="0 0 190 143">
  <g id="Grupo_983837" data-name="Grupo 983837" transform="translate(-180 -2648)">
    <rect id="Rectángulo_344202" data-name="Rectángulo 344202" width="190" height="143" rx="15" transform="translate(180 2648)" fill="#e2eacb"/>
    <g id="Grupo_967317" data-name="Grupo 967317" transform="translate(207.286 2619.184)">
      <g id="Grupo_967318" data-name="Grupo 967318" transform="translate(0.715 51.817)">
        <path id="Trazado_728175" data-name="Trazado 728175" d="M317.282,238.2a4.026,4.026,0,0,1-4.5,2.275c-.131,1.538-.268,2.99-.377,4.443q-.567,7.614-1.114,15.23c-.164,2.344-1.394,3.6-3.731,3.6q-8.014.032-16.029,0c-2.464-.006-3.674-1.083-3.879-3.592-.418-5.116-.764-10.239-1.142-15.358-.1-1.383-.212-2.765-.324-4.232-.415-.02-.792-.034-1.167-.057a3.219,3.219,0,0,1-3.328-3.161c-.1-2.345-.105-4.7.009-7.046a3.125,3.125,0,0,1,3.369-3.082q14.4-.029,28.8-.01a3.464,3.464,0,0,1,3.414,2.622Zm-8.608-7.024H285.657v5.378h27.632V231.18Zm-5.749,28.6h4.466c.476-6.429.945-12.775,1.421-19.2h-18.69c.486,6.475.965,12.848,1.443,19.2Z" transform="translate(-183.758 -166.116)" fill="#020303"/>
        <path id="Trazado_728176" data-name="Trazado 728176" d="M117.09,74.039c.944-1.458,1.522-1.659,3.141-1.09a19.964,19.964,0,0,1,13.31,18.339c.015.644,0,1.289,0,2.079.958,0,1.813-.015,2.667,0a3.176,3.176,0,0,1,3.1,1.967,3.129,3.129,0,0,1-.648,3.616c-2.761,2.9-5.521,5.795-8.34,8.634a3.17,3.17,0,0,1-4.758-.054c-2.777-2.82-5.509-5.684-8.247-8.542a3.11,3.11,0,0,1-.733-3.6,3.235,3.235,0,0,1,3.2-2.025c.815-.009,1.631,0,2.429,0,.674-5.537-2.84-10-8.246-10.276-4.031-.205-8.081-.125-12.121-.072-5.882.077-11.748.159-17.121-3.325V93.366c.742,0,1.545.008,2.349,0A3.266,3.266,0,0,1,90.412,95.4a3.222,3.222,0,0,1-.824,3.7c-2.659,2.752-5.3,5.522-7.979,8.257-1.684,1.72-3.52,1.693-5.224-.057-2.641-2.71-5.253-5.448-7.887-8.165a3.307,3.307,0,0,1,2.415-5.772c.777,0,1.553,0,2.414,0V79.83c-.932.447-1.768.873-2.625,1.255a23.384,23.384,0,0,1-9.754,1.924c-5.3-.019-10.6-.033-15.9,0-4.771.033-8.234,2.725-9.152,7.111a25.071,25.071,0,0,0-.248,3.243c.979,0,1.834-.015,2.688,0a3.216,3.216,0,0,1,3.109,1.97,3.088,3.088,0,0,1-.673,3.609c-2.764,2.894-5.524,5.792-8.339,8.635a3.168,3.168,0,0,1-4.759-.046c-2.781-2.816-5.511-5.682-8.25-8.539a3.294,3.294,0,0,1,2.361-5.626c.859-.026,1.72,0,2.54,0a52.2,52.2,0,0,1,.61-5.639c2.085-9.595,10.061-15.9,20.121-15.961,5.258-.035,10.516,0,15.774-.009,7.546-.014,12.548-5.024,12.587-12.6.007-1.35-.028-2.7.01-4.049a3,3,0,0,1,3.24-3.268c1.607-.035,3.217-.043,4.823,0a2.948,2.948,0,0,1,3.137,3.1c.071,1.913-.028,3.835.092,5.744A11.628,11.628,0,0,0,95.759,71.677c4.512.188,9.036.059,13.555.087,1.672.01,2.109.364,2.591,1.97-.5,1.612-.924,1.962-2.6,1.968-4.215.015-8.43.063-12.643-.008A15.743,15.743,0,0,1,80.782,60.72c-.121-1.592-.017-3.2-.017-4.881H77.35c0,1.172,0,2.291,0,3.41a15.954,15.954,0,0,1-1.439,7.1c-3,6.134-7.958,9.255-14.752,9.348-5.69.077-11.385-.077-17.073.064a15.853,15.853,0,0,0-15.209,12.35,28.56,28.56,0,0,0-.457,5.437c-.095,2.447-1.283,3.7-3.7,3.741-.4.007-.791,0-1.187,0l-.138.369,6.458,5.916,7.164-6.285c-.866,0-1.292.008-1.718,0A3.237,3.237,0,0,1,31.8,93.8c-.015-.783-.008-1.567.012-2.35A12.494,12.494,0,0,1,43.428,79.221c5.854-.264,11.725-.159,17.589-.144A19.151,19.151,0,0,0,72.2,75.791c1.149-.787,2.3-1.23,3.63-.5,1.283.706,1.528,1.9,1.524,3.23-.008,3.439,0,6.878,0,10.317,0,1.7.054,3.4-.033,5.092A3.224,3.224,0,0,1,73.8,97.285c-.449.01-.9,0-1.348,0l-.128.317,7.073,6.435,6.461-6.751c-.691,0-1.038,0-1.385,0C82,97.255,80.738,96.1,80.716,93.633c-.047-5.18-.062-10.361.007-15.54.038-2.821,2.485-4.07,4.82-2.48A20.068,20.068,0,0,0,97.46,79.081c5.126-.071,10.253-.042,15.38-.01,8.013.049,13.395,5.47,13.416,13.464.01,3.855-.69,4.58-4.594,4.762a2.308,2.308,0,0,0-.444.2l7.206,6.443,6.4-6.649c-.6,0-.808,0-1.018,0-3.065-.044-4.153-1.138-4.158-4.18,0-.392,0-.783,0-1.175A15.965,15.965,0,0,0,118.9,76.649a2.3,2.3,0,0,1-1.809-2.61" transform="translate(-12.257 -51.817)" fill="#050405"/>
        <path id="Trazado_728177" data-name="Trazado 728177" d="M126.388,81.563a2.3,2.3,0,0,0,1.809,2.61,15.965,15.965,0,0,1,10.742,15.283c0,.392,0,.783,0,1.175.006,3.041,1.094,4.136,4.158,4.18.21,0,.42,0,1.018,0l-6.4,6.649-7.206-6.443a2.306,2.306,0,0,1,.444-.2c3.9-.183,4.6-.908,4.594-4.762-.021-7.994-5.4-13.415-13.416-13.464-5.127-.032-10.254-.061-15.38.01A20.068,20.068,0,0,1,94.84,83.137c-2.335-1.589-4.782-.341-4.82,2.48-.069,5.179-.054,10.36-.007,15.54.022,2.465,1.284,3.622,3.756,3.654.347,0,.694,0,1.385,0l-6.461,6.751-7.073-6.435.128-.317c.449,0,.9.009,1.348,0a3.224,3.224,0,0,0,3.518-3.353c.087-1.693.032-3.394.033-5.092,0-3.439-.005-6.878,0-10.317,0-1.327-.242-2.523-1.524-3.23-1.33-.733-2.481-.29-3.63.5A19.151,19.151,0,0,1,70.315,86.6c-5.864-.015-11.735-.12-17.589.144A12.494,12.494,0,0,0,41.107,98.974c-.021.783-.027,1.567-.012,2.35a3.237,3.237,0,0,0,3.506,3.485c.426.009.852,0,1.718,0L39.155,111.1,32.7,105.18l.138-.369c.4,0,.792.006,1.187,0,2.413-.04,3.6-1.295,3.7-3.741a28.559,28.559,0,0,1,.457-5.437,15.853,15.853,0,0,1,15.209-12.35c5.688-.141,11.383.013,17.073-.064C77.251,83.125,82.205,80,85.209,73.87a15.955,15.955,0,0,0,1.439-7.1c0-1.119,0-2.238,0-3.41h3.414c0,1.679-.1,3.289.017,4.881a15.743,15.743,0,0,0,15.882,14.975c4.213.071,8.428.023,12.643.008,1.675-.006,2.1-.357,2.6-1.968l5.184.3" transform="translate(-21.555 -59.341)" fill="#d9558e"/>
        <path id="Trazado_728178" data-name="Trazado 728178" d="M31.821,240.578q-.419,5.477-.833,10.919c-.21,2.82-.377,5.642-.611,8.46-.226,2.738-1.386,3.8-4.087,3.8q-7.753.009-15.505,0c-2.765,0-3.891-1.134-4.086-3.921-.427-6.118-.9-12.234-1.355-18.35-.022-.295-.094-.586-.16-.978-.465,0-.895.033-1.319-.006a3.264,3.264,0,0,1-3.132-3.354c-.037-2-.013-4-.009-6.005.006-2.682,1.218-3.922,3.871-3.924q13.355-.009,26.711,0c.477,0,.955-.007,1.433,0a3.305,3.305,0,0,1,3.613,3.541c.048,1.914.019,3.83.009,5.744-.015,2.775-1.155,3.926-3.955,4.019-.168.006-.336.032-.587.056m-3.989-4.028h4.529v-5.371H4.729v5.371Zm-4.425,4.026H9.192c.486,6.492.96,12.839,1.436,19.2H26.452c.48-6.445.953-12.808,1.429-19.2Z" transform="translate(-0.715 -166.111)" fill="#030302"/>
        <path id="Trazado_728179" data-name="Trazado 728179" d="M161.644,229.072a2.129,2.129,0,0,1,2.4-1.878c3.085.029,6.171-.006,9.256.015a3.253,3.253,0,0,1,3.557,3.569c.023,1.741.006,3.483.005,5.225,0,3.442-.926,4.407-4.486,4.541-.165,2.005-.341,4.028-.5,6.052-.351,4.6-.681,9.2-1.038,13.8a3.269,3.269,0,0,1-3.558,3.338q-8.213.045-16.427,0A3.265,3.265,0,0,1,147.3,260.4c-.512-6.589-1.009-13.18-1.518-19.844-.526-.024-.993-.021-1.453-.071a3.172,3.172,0,0,1-3.02-3.173q-.081-3.46,0-6.922a3.1,3.1,0,0,1,3.144-3.16c3.3-.055,6.605-.022,9.908-.02a2.032,2.032,0,0,1,2.138,1.864c-.354,1.612-.861,2.038-2.47,2.051-1.083.009-2.167,0-3.251,0h-5.51v5.315c.143.063.219.126.3.126q11.441-.011,22.883-.031h4.436v-5.365h-4.431c-1.458-.015-2.915-.027-4.373-.045-1.561-.019-2.091-.469-2.432-2.052m.8,30.7h4.538c.478-6.417.951-12.767,1.431-19.211h-18.69c.491,6.511.969,12.858,1.448,19.211Z" transform="translate(-92.303 -166.098)" fill="#030303"/>
        <path id="Trazado_728180" data-name="Trazado 728180" d="M175.925,240.046q-11.442.018-22.883.032c-.076,0-.152-.063-.3-.126v-5.315h5.51c1.083,0,2.167.007,3.251,0,1.609-.013,2.116-.44,2.47-2.052h5.147c.341,1.583.871,2.033,2.432,2.053,1.458.018,2.915.03,4.372.045q0,2.683,0,5.365" transform="translate(-99.784 -169.61)" fill="#91d9f9"/>
        <path id="Trazado_728181" data-name="Trazado 728181" d="M318.839,284.765H307.48c-.478-6.356-.957-12.729-1.443-19.2h14.118c-.093,1.678-.164,3.358-.283,5.035-.334,4.724-.687,9.446-1.033,14.169" transform="translate(-199.673 -191.1)" fill="#5291f7"/>
        <path id="Trazado_728182" data-name="Trazado 728182" d="M316.232,243.965h-23.01v-5.378h23.016q0,2.689-.007,5.378" transform="translate(-191.323 -173.523)" fill="#90d9f9"/>
        <path id="Trazado_728183" data-name="Trazado 728183" d="M342.787,284.765c.346-4.723.7-9.445,1.033-14.169.118-1.677.19-3.356.283-5.035h4.572l-1.421,19.2Z" transform="translate(-223.621 -191.1)" fill="#3f6ff1"/>
        <path id="Trazado_728184" data-name="Trazado 728184" d="M359.273,243.965q0-2.689.007-5.378h4.615v5.378Z" transform="translate(-234.364 -173.523)" fill="#6bb7e8"/>
        <path id="Trazado_728185" data-name="Trazado 728185" d="M37.694,284.776H26.485c-.476-6.365-.951-12.712-1.436-19.2H39.263c-.258,2.832-.538,5.662-.767,8.5-.289,3.568-.536,7.139-.8,10.708" transform="translate(-16.572 -191.107)" fill="#e8a42d"/>
        <path id="Trazado_728186" data-name="Trazado 728186" d="M35.34,243.966h-23.1V238.6H35.346q0,2.686-.006,5.371" transform="translate(-8.223 -173.528)" fill="#90d9f9"/>
        <path id="Trazado_728187" data-name="Trazado 728187" d="M61.347,284.776c.265-3.569.513-7.14.8-10.708.23-2.834.51-5.664.767-8.5h4.475c-.476,6.4-.95,12.758-1.429,19.2Z" transform="translate(-40.225 -191.107)" fill="#de8323"/>
        <path id="Trazado_728188" data-name="Trazado 728188" d="M78.556,243.966q0-2.685.006-5.371h4.523v5.371Z" transform="translate(-51.439 -173.528)" fill="#6bb6e8"/>
        <path id="Trazado_728189" data-name="Trazado 728189" d="M178.258,284.764H166.985c-.479-6.352-.957-12.7-1.448-19.211h14.039c-.092,2.026-.139,4.055-.286,6.077-.317,4.38-.685,8.756-1.032,13.133" transform="translate(-108.119 -191.095)" fill="#6cc07c"/>
        <path id="Trazado_728190" data-name="Trazado 728190" d="M202.054,284.764c.347-4.377.715-8.754,1.032-13.133.146-2.022.194-4.051.286-6.077h4.651c-.48,6.444-.953,12.793-1.431,19.211Z" transform="translate(-131.914 -191.095)" fill="#5ca26e"/>
        <path id="Trazado_728191" data-name="Trazado 728191" d="M219.281,243.969q0-2.683,0-5.365h4.431v5.365Z" transform="translate(-143.14 -173.534)" fill="#6cb9ec"/>
      </g>
    </g>
  </g>
</svg>
