<svg xmlns="http://www.w3.org/2000/svg" xmlns:xlink="http://www.w3.org/1999/xlink" width="96" height="96" viewBox="0 0 96 96">
  <defs>
    <clipPath id="clip-path">
      <path id="path2817" d="M0-682.665H60.123v60.123H0Z" transform="translate(0 682.665)"/>
    </clipPath>
  </defs>
  <g id="Grupo_983780" data-name="Grupo 983780" transform="translate(-438 -4436)">
    <circle id="Elipse_5507" data-name="Elipse 5507" cx="48" cy="48" r="48" transform="translate(438 4436)" fill="#0e494d"/>
    <g id="g2811" transform="translate(456 5136.665)">
      <g id="g2813" transform="translate(0 -682.665)">
        <g id="g2815" clip-path="url(#clip-path)">
          <g id="g2821" transform="translate(0.881 6.08)">
            <path id="path2823" d="M-450.065-6.08V44.507a.587.587,0,0,1-.587.587h-32.992l-9.887-9.887V-6.08a.587.587,0,0,1,.587-.587h42.291a.587.587,0,0,1,.587.587" transform="translate(493.531 6.667)" fill="#efedef"/>
          </g>
          <g id="g2825" transform="translate(40.541 6.08)">
            <path id="path2827" d="M-33.321,0h-3.218a.587.587,0,0,1,.587.587V51.174a.587.587,0,0,1-.587.587h3.218a.587.587,0,0,0,.587-.587V.587A.587.587,0,0,0-33.321,0" transform="translate(36.539 0)" fill="#e3e0e4"/>
          </g>
          <g id="g2829" transform="translate(0.881 47.955)">
            <path id="path2831" d="M-102.373-102.374v-9.3a.587.587,0,0,0-.587-.587h-9.3Z" transform="translate(112.26 112.261)" fill="#d4cfd5"/>
          </g>
          <g id="g2833" transform="translate(32.553 19.576)">
            <path id="path2835" d="M-168.313,0l-15.928,27.588a2.439,2.439,0,0,0,.893,3.332,2.439,2.439,0,0,0,3.332-.893l15.928-27.588Z" transform="translate(184.568)" fill="#5766cc"/>
          </g>
          <g id="g2837" transform="translate(32.553 40.294)">
            <path id="path2839" d="M-44.462,0l-3.967,6.871a2.439,2.439,0,0,0,.893,3.332A2.439,2.439,0,0,0-44.2,9.31l3.967-6.871Z" transform="translate(48.756)" fill="#eec06b"/>
          </g>
          <g id="g2841" transform="translate(49.076 22.016)">
            <path id="path2843" d="M-61.217-106.3l-5.912-3.413,3.956-6.852,5.912,3.413a.6.6,0,0,1-.074,1.066l-3.091,1.252a.6.6,0,0,0-.366.633l.461,3.3a.6.6,0,0,1-.886.6" transform="translate(67.129 116.562)" fill="#e175a5"/>
          </g>
          <g id="g2845" transform="translate(8.881 2.281)">
            <path id="path2847" d="M0-6.08V.344A.587.587,0,0,0,.587.931H3.511A.587.587,0,0,0,4.1.344V-6.08a.587.587,0,0,0-.587-.587H.587A.587.587,0,0,0,0-6.08" transform="translate(0 6.667)" fill="#5766cc"/>
          </g>
          <g id="g2849" transform="translate(32.249 2.281)">
            <path id="path2851" d="M0-6.08V.344A.587.587,0,0,0,.587.931H3.511A.587.587,0,0,0,4.1.344V-6.08a.587.587,0,0,0-.587-.587H.587A.587.587,0,0,0,0-6.08" transform="translate(0 6.667)" fill="#5766cc"/>
          </g>
          <g id="g2853" transform="translate(0 17.773)">
            <path id="path2855" d="M-300.591-414.015h-18.262a.881.881,0,0,1-.623-.258l-9.887-9.887a.881.881,0,0,1-.258-.623v-29.3a.881.881,0,0,1,.881-.881.881.881,0,0,1,.881.881v28.937l9.371,9.371h17.9a.881.881,0,0,1,.881.881A.881.881,0,0,1-300.591-414.015Z" transform="translate(329.621 454.964)"/>
          </g>
          <g id="g2857" transform="translate(32.259 36.179)">
            <path id="path2859" d="M-125.741,12.543H-136.36a.881.881,0,0,1-.881-.881.881.881,0,0,1,.881-.881h10.325v-19.9a.881.881,0,0,1,.881-.881.881.881,0,0,1,.881.881V11.075A1.47,1.47,0,0,1-125.741,12.543Z" transform="translate(137.241 10)"/>
          </g>
          <g id="g2861" transform="translate(35.467 5.2)">
            <path id="path2863" d="M-1.12,12.984A.881.881,0,0,1-2,12.1V-8.239H-9.119A.881.881,0,0,1-10-9.119.881.881,0,0,1-9.119-10h7.412A1.47,1.47,0,0,1-.239-8.532V12.1A.881.881,0,0,1-1.12,12.984Z" transform="translate(10 10)"/>
          </g>
          <g id="g2865" transform="translate(0 5.2)">
            <path id="path2867" d="M-9.119-95.869A.881.881,0,0,1-10-96.749v-7.876a1.47,1.47,0,0,1,1.468-1.468h7.413a.881.881,0,0,1,.881.881.881.881,0,0,1-.881.881h-7.12v7.582A.881.881,0,0,1-9.119-95.869Z" transform="translate(10 106.093)"/>
          </g>
          <g id="g2869" transform="translate(12.099 5.2)">
            <path id="path2871" d="M-208.649-8.239h-19.27a.881.881,0,0,1-.881-.881.881.881,0,0,1,.881-.881h19.27a.881.881,0,0,1,.881.881A.881.881,0,0,1-208.649-8.239Z" transform="translate(228.799 10)"/>
          </g>
          <g id="g2873" transform="translate(8.643 20.042)">
            <path id="path2875" d="M17.061-8.239H-9.119A.881.881,0,0,1-10-9.119.881.881,0,0,1-9.119-10h26.18a.881.881,0,0,1,.881.881A.881.881,0,0,1,17.061-8.239Z" transform="translate(10 10)"/>
          </g>
          <g id="g2877" transform="translate(8.643 31.08)">
            <path id="path2879" d="M17.061-8.239H-9.119A.881.881,0,0,1-10-9.119.881.881,0,0,1-9.119-10h26.18a.881.881,0,0,1,.881.881A.881.881,0,0,1,17.061-8.239Z" transform="translate(10 10)"/>
          </g>
          <g id="g2881" transform="translate(8.643 42.118)">
            <path id="path2883" d="M2.656-8.239H-9.119A.881.881,0,0,1-10-9.119.881.881,0,0,1-9.119-10H2.656a.881.881,0,0,1,.881.881A.881.881,0,0,1,2.656-8.239Z" transform="translate(10 10)"/>
          </g>
          <g id="g2885" transform="translate(0 47.074)">
            <path id="path2887" d="M-111.492-110.613a.881.881,0,0,1-.881-.881V-120.5h-9.006a.881.881,0,0,1-.881-.881.881.881,0,0,1,.881-.881h9.3a1.47,1.47,0,0,1,1.468,1.468v9.3A.881.881,0,0,1-111.492-110.613Z" transform="translate(122.26 122.261)"/>
          </g>
          <g id="g2889" transform="translate(31.673 18.696)">
            <path id="path2891" d="M-177.421-10a.881.881,0,0,1,.44.118l4.225,2.439a.881.881,0,0,1,.41.535.881.881,0,0,1-.088.668l-15.928,27.588a3.331,3.331,0,0,1-2.877,1.66,3.32,3.32,0,0,1-1.658-.445,3.324,3.324,0,0,1-1.215-4.535L-178.184-9.56a.881.881,0,0,1,.535-.41A.88.88,0,0,1-177.421-10Zm3.022,3.642-2.7-1.558-15.487,26.825a1.56,1.56,0,0,0,.57,2.129,1.556,1.556,0,0,0,.777.209,1.565,1.565,0,0,0,1.352-.78Z" transform="translate(194.556 10)"/>
          </g>
          <g id="g2893" transform="translate(31.149 49.615)">
            <path id="path2895" d="M-28.916-5.22a.877.877,0,0,1-.44-.118.881.881,0,0,1-.322-1.2l1.743-3.02a.881.881,0,0,1,1.2-.322.881.881,0,0,1,.322,1.2l-1.743,3.02A.88.88,0,0,1-28.916-5.22Z" transform="translate(29.796 10.002)"/>
          </g>
          <g id="g2897" transform="translate(35.966 39.413)">
            <path id="path2899" d="M-52.866-33.5a.877.877,0,0,1-.44-.118l-4.225-2.439a.881.881,0,0,1-.322-1.2.881.881,0,0,1,1.2-.322l4.225,2.439a.881.881,0,0,1,.322,1.2A.88.88,0,0,1-52.866-33.5Z" transform="translate(57.971 37.696)"/>
          </g>
          <g id="g2901" transform="translate(48.196 21.135)">
            <path id="path2903" d="M-70.04-114.454a1.477,1.477,0,0,1-.737-.2l-5.912-3.413a.881.881,0,0,1-.41-.535.881.881,0,0,1,.088-.668l3.956-6.852a.881.881,0,0,1,.535-.41.881.881,0,0,1,.668.088l5.912,3.413a1.465,1.465,0,0,1,.734,1.38,1.465,1.465,0,0,1-.918,1.265l-2.885,1.169.43,3.082a1.472,1.472,0,0,1-.346,1.17A1.48,1.48,0,0,1-70.04-114.454Zm-5.006-4.7,4.642,2.68-.38-2.723a1.474,1.474,0,0,1,.908-1.572l2.548-1.032-4.642-2.68Z" transform="translate(77.129 126.562)"/>
          </g>
          <g id="g2905" transform="translate(8 1.4)">
            <path id="path2907" d="M-8.532-16.667h2.923A1.47,1.47,0,0,1-4.141-15.2v6.424A1.469,1.469,0,0,1-5.609-7.307H-8.532A1.47,1.47,0,0,1-10-8.775V-15.2A1.47,1.47,0,0,1-8.532-16.667Zm2.63,1.761H-8.239v5.837H-5.9Z" transform="translate(10 16.667)"/>
          </g>
          <g id="g2909" transform="translate(31.368 1.4)">
            <path id="path2911" d="M-8.532-16.667h2.924A1.47,1.47,0,0,1-4.141-15.2v6.424A1.469,1.469,0,0,1-5.609-7.307H-8.532A1.469,1.469,0,0,1-10-8.775V-15.2A1.47,1.47,0,0,1-8.532-16.667Zm2.63,1.761H-8.239v5.837H-5.9Z" transform="translate(10 16.667)"/>
          </g>
        </g>
      </g>
    </g>
  </g>
</svg>
