<svg xmlns="http://www.w3.org/2000/svg" xmlns:xlink="http://www.w3.org/1999/xlink" width="95" height="95" viewBox="0 0 95 95">
  <defs>
    <clipPath id="clip-path">
      <rect id="Rectángulo_344197" data-name="Rectángulo 344197" width="67.872" height="70.996" fill="none"/>
    </clipPath>
  </defs>
  <g id="Grupo_983793" data-name="Grupo 983793" transform="translate(-930 -2144)">
    <rect id="Rectángulo_344303" data-name="Rectángulo 344303" width="95" height="95" transform="translate(930 2144)" fill="none"/>
    <g id="Grupo_967304" data-name="Grupo 967304" transform="translate(742 295)">
      <g id="Grupo_967303" data-name="Grupo 967303" transform="translate(201 1861.322)">
        <g id="Grupo_967302" data-name="Grupo 967302" clip-path="url(#clip-path)">
          <path id="Trazado_728089" data-name="Trazado 728089" d="M67.809,369.969a2.187,2.187,0,0,0-1.463-1.683l1.532-1.5,1.506,1.5a2.145,2.145,0,0,0-1.437,1.678Z" transform="translate(-54.08 -298.974)" fill="#75d7f8"/>
          <path id="Trazado_728090" data-name="Trazado 728090" d="M210.867,0c.18.2.439.376.522.612A.876.876,0,0,1,211,1.748a.854.854,0,0,1-1.175-.216.9.9,0,0,1,.009-1.2A2.7,2.7,0,0,1,210.175,0Z" transform="translate(-170.843)" fill="#fb6a82"/>
          <path id="Trazado_728091" data-name="Trazado 728091" d="M33.263,290.592c0,.8.019,1.42,0,2.036A2.454,2.454,0,0,1,30.842,295a2.4,2.4,0,0,1-2.46-2.311q-.052-4.123.021-8.248a2.331,2.331,0,0,1,2.37-2.248c2.674-.039,5.35-.032,8.023.038a2.377,2.377,0,0,1,2.346,2.555,2.459,2.459,0,0,1-2.57,2.35,6.846,6.846,0,0,0-1.67.151c1.015.764,1.993,1.585,3.052,2.282a26.518,26.518,0,0,0,34.451-4.339c.125-.136.248-.274.376-.407a2.464,2.464,0,1,1,3.66,3.3,30.43,30.43,0,0,1-7.552,6.328,31.484,31.484,0,0,1-36.768-3.114c-.242-.207-.482-.415-.859-.74m-3.5-2.012h-.02c0,1.2,0,2.4,0,3.6,0,.911.377,1.411,1.051,1.421s1.077-.5,1.082-1.392c.006-1.04-.026-2.081.029-3.118a1.031,1.031,0,0,1,.462-.745c.183-.094.557.059.782.2a5.639,5.639,0,0,1,.754.71,29.138,29.138,0,0,0,18.557,8.227,29.607,29.607,0,0,0,21.587-7.021,43.794,43.794,0,0,0,3.353-3.293,1.069,1.069,0,1,0-1.562-1.457c-.166.16-.314.338-.471.507a27.946,27.946,0,0,1-40.541.9,1.114,1.114,0,0,1-.323-.924,1.136,1.136,0,0,1,.873-.444c1.081-.052,2.166,0,3.25-.021a1.056,1.056,0,0,0,1.107-1.264c-.15-.687-.659-.884-1.3-.886-2.467-.007-4.934-.028-7.4-.028-.871,0-1.264.4-1.271,1.274-.01,1.247,0,2.495,0,3.742" transform="translate(-23.118 -229.998)" fill="#050606"/>
          <path id="Trazado_728092" data-name="Trazado 728092" d="M214.759,71.663c.6-.339,1.129-.656,1.674-.952a2.469,2.469,0,0,1,3.419.887,2.44,2.44,0,0,1-.927,3.363q-3.391,2-6.825,3.917a2.386,2.386,0,0,1-3.344-.939q-1.973-3.369-3.882-6.775a2.46,2.46,0,1,1,4.268-2.447,6.917,6.917,0,0,0,.921,1.3c.126-1.123.317-2.244.369-3.37a26.309,26.309,0,0,0-5.97-18.244,25.867,25.867,0,0,0-15.407-9.3,2.469,2.469,0,0,1-2.147-2.928,2.436,2.436,0,0,1,3.075-1.918A30.87,30.87,0,0,1,209.86,47.4a31.249,31.249,0,0,1,4.976,23.735c-.03.154-.045.311-.077.53m-.583-6.154c-.24-2.088-.309-3.879-.667-5.61-2.321-11.21-8.776-18.972-19.475-23.087a35.281,35.281,0,0,0-4.523-1.219.988.988,0,0,0-1.236.817,1.067,1.067,0,0,0,.8,1.268c.22.066.448.106.673.152A28.034,28.034,0,0,1,211,72.028a1.063,1.063,0,0,1-.608.705,1.045,1.045,0,0,1-.787-.477c-.549-.85-1.021-1.75-1.53-2.627-.437-.752-1.055-.983-1.641-.627s-.662.943-.235,1.691q1.815,3.181,3.644,6.355a1.134,1.134,0,0,0,1.829.483q3.178-1.814,6.347-3.644c.751-.434.963-.99.63-1.586s-.963-.7-1.733-.264c-.92.523-1.824,1.078-2.765,1.56a1.017,1.017,0,0,1-.867-.018c-.172-.111-.19-.506-.218-.781a2.369,2.369,0,0,1,.109-.539c.351-2.345.7-4.69,1.006-6.751" transform="translate(-152.311 -27.86)" fill="#060606"/>
          <path id="Trazado_728093" data-name="Trazado 728093" d="M20.929,16.519c-.6-.348-1.14-.646-1.664-.978a2.443,2.443,0,0,1-.841-3.381,2.418,2.418,0,0,1,3.313-.87q3.453,1.958,6.861,3.994a2.362,2.362,0,0,1,.888,3.253q-1.96,3.5-4.018,6.937a2.4,2.4,0,0,1-3.321.844,2.458,2.458,0,0,1-.9-3.367c.238-.446.5-.876.833-1.442a6.188,6.188,0,0,0-.847.227A26.307,26.307,0,0,0,5.442,41.227a25.517,25.517,0,0,0,.907,13.65,2.454,2.454,0,0,1-2.556,3.436,2.365,2.365,0,0,1-2.086-1.765,32,32,0,0,1-1.7-10.954A31.626,31.626,0,0,1,20.264,16.817c.209-.079.409-.183.664-.3M1.313,46.348c.127,1.425.148,2.869.409,4.269.349,1.875.859,3.723,1.352,5.568a1.025,1.025,0,0,0,1.368.711,1.106,1.106,0,0,0,.666-1.354c-.049-.2-.13-.393-.194-.591a27.816,27.816,0,0,1,2.3-22.463A27.3,27.3,0,0,1,23.22,19.561a1.1,1.1,0,0,1,.968.168,1.149,1.149,0,0,1-.066.98c-.484.942-1.051,1.841-1.573,2.765a1.1,1.1,0,0,0,.279,1.632,1.083,1.083,0,0,0,1.562-.527q1.9-3.254,3.78-6.522a1.075,1.075,0,0,0-.447-1.687q-3.217-1.891-6.451-3.752c-.722-.416-1.361-.291-1.682.293s-.088,1.155.641,1.587c.693.411,1.4.8,2.084,1.227.423.267,1.087.371,1.01,1.071s-.749.682-1.219.835A30.389,30.389,0,0,0,1.313,46.348" transform="translate(0 -8.933)" fill="#040506"/>
          <path id="Trazado_728094" data-name="Trazado 728094" d="M64.34,138.889c-.255-.657-.47-1.255-1.257-1.433a1.431,1.431,0,0,1-.725-.692,18.456,18.456,0,0,1-.944-1.918,1.7,1.7,0,0,1,.8-2.3q1.836-.951,3.714-1.819a1.686,1.686,0,0,1,2.258.745,17.464,17.464,0,0,1,.962,1.988,1.4,1.4,0,0,1,.081,1c-.367.746.038,1.264.352,1.857a4.728,4.728,0,0,1,4.644,1.29,5.244,5.244,0,0,1,.9,1.3q3.339,6.781,6.638,13.582a3.807,3.807,0,0,1-1.838,5.351q-2.47,1.226-4.955,2.422a3.775,3.775,0,0,1-5.381-1.854q-3.226-6.567-6.424-13.149c-1.244-2.548-.9-4.426,1.175-6.368M68.95,153.94l9.667-4.74-3.181-6.516-9.667,4.733,3.182,6.523m.609,1.245c.431.882.832,1.707,1.236,2.532a5.5,5.5,0,0,0,.254.491,2.337,2.337,0,0,0,3.014.931q2.785-1.3,5.521-2.7a2.3,2.3,0,0,0,1.088-2.965c-.425-1.016-.942-1.992-1.438-3.026l-9.674,4.735m5.265-13.756c-.358-.729-.672-1.419-1.029-2.085a3.248,3.248,0,0,0-4.314-1.462c-1.3.593-2.574,1.226-3.843,1.876a3.186,3.186,0,0,0-1.753,2.425c-.266,1.56.722,2.677,1.286,3.982l9.652-4.734m-11.1-5.072c.326-.132.477-.184.621-.253.622-.3,1.249-.586,1.86-.9,2.2-1.15,1.974-.45.9-2.822-.2-.447-.464-.485-.874-.275-1.023.523-2.061,1.016-3.091,1.526-.143.071-.386.161-.389.25a1.921,1.921,0,0,0,.129.83c.25.564.559,1.1.842,1.648m1.875,1.866,2.7-1.334-.474-.941-2.691,1.328.465.947" transform="translate(-49.921 -106.416)" fill="#040605"/>
          <path id="Trazado_728095" data-name="Trazado 728095" d="M188.347,197.31c-.189-.279-.346-.5-.49-.725a3.863,3.863,0,0,1,.907-5.307c2.866-2.244,8.029-1.41,10.057,1.625a3.874,3.874,0,0,1-.92,5.457c-.181.137-.371.262-.651.458.319.065.551.112.782.16a1.7,1.7,0,0,1,1.43,2.023q-.539,3.347-1.117,6.687a1.66,1.66,0,0,1-2.1,1.546q-5.182-.825-10.352-1.727a1.669,1.669,0,0,1-1.42-2.077q.535-3.207,1.066-6.415c.238-1.44.9-1.934,2.34-1.73.131.018.265.015.473.025m5.633,1.015a15.383,15.383,0,0,0,2.43-.673,2.646,2.646,0,0,0,.778-4.565,6.336,6.336,0,0,0-6.667-1.236c-2.247.981-2.613,3.133-.813,4.8a7.254,7.254,0,0,0,4.273,1.678m-7.745,4.991,11.117,1.857.325-1.992-11.108-1.87-.335,2m-.228,1.363a4.522,4.522,0,0,1-.117.691c-.2.586.046.751.6.84,3.066.488,6.127,1.013,9.189,1.53,1.228.207,1.227.213,1.408-.992a.922.922,0,0,0-.039-.208l-11.046-1.861m11.849-2.884c.376-1.38.375-1.373-.911-1.587-2.878-.479-5.753-.975-8.633-1.446-1.44-.236-1.25-.413-1.484,1.035-.006.035.032.077.074.169l10.954,1.83" transform="translate(-150.335 -154.875)" fill="#060504"/>
          <path id="Trazado_728096" data-name="Trazado 728096" d="M160.411,100.761c0-1.686,0-3.372,0-5.057a2.4,2.4,0,0,1,2.621-2.624c1.452-.008,2.905-.032,4.355.019a1.78,1.78,0,0,1,1.082.448q2.341,2.257,4.6,4.6a1.756,1.756,0,0,1,.433,1.09c.039,2.239.026,4.48.017,6.72a2.392,2.392,0,0,1-2.579,2.6q-3.975.017-7.951,0a2.389,2.389,0,0,1-2.573-2.6c-.006-1.732,0-3.464,0-5.2m6.644-6.293c-1.416,0-2.727-.009-4.038,0-.872.008-1.215.352-1.217,1.225q-.009,5.126,0,10.252c0,.869.347,1.217,1.222,1.22q3.941.014,7.882,0c.876,0,1.219-.348,1.223-1.222.01-2.032,0-4.064,0-6.1a1.6,1.6,0,0,0-.063-.3c-.846,0-1.673.008-2.5,0a2.377,2.377,0,0,1-2.508-2.526c-.009-.827,0-1.655,0-2.56m1.41,1.135c-.116,2.365-.171,2.817,2.45,2.485l-2.45-2.485" transform="translate(-130.752 -75.861)" fill="#060606"/>
          <path id="Trazado_728097" data-name="Trazado 728097" d="M322.037,318.62c-1.126-.077-1.5-.322-1.494-.925.007-.569.407-.832,1.478-.946.045-.647.02-1.458.945-1.439.855.017.9.762.9,1.411,1.149.183,1.523.447,1.494,1.027-.027.56-.407.8-1.448.875-.114.624.007,1.5-.993,1.469-.9-.03-.851-.793-.881-1.471" transform="translate(-261.279 -257.013)" fill="#89d14b"/>
          <path id="Trazado_728098" data-name="Trazado 728098" d="M257.382,14.6a3.414,3.414,0,0,0-2.513-2.623,3.407,3.407,0,0,0,2.5-2.6,3.431,3.431,0,0,0,2.6,2.579,3.44,3.44,0,0,0-2.595,2.642" transform="translate(-207.748 -7.643)" fill="#f4c951"/>
          <path id="Trazado_728099" data-name="Trazado 728099" d="M295.366,351.917a.945.945,0,0,1-.933.989.976.976,0,0,1-.9-.96.918.918,0,0,1,.906-.938.9.9,0,0,1,.927.908" transform="translate(-239.264 -286.113)" fill="#f4c952"/>
          <path id="Trazado_728100" data-name="Trazado 728100" d="M35.876,294.735c0-1.247-.008-2.5,0-3.742.007-.87.4-1.274,1.271-1.274,2.467,0,4.934.02,7.4.028.638,0,1.147.2,1.3.886a1.056,1.056,0,0,1-1.107,1.264c-1.083.018-2.169-.031-3.25.021a1.136,1.136,0,0,0-.873.444,1.114,1.114,0,0,0,.323.924,27.946,27.946,0,0,0,40.541-.9c.157-.169.3-.348.471-.507a1.069,1.069,0,1,1,1.562,1.457,43.792,43.792,0,0,1-3.353,3.293,29.607,29.607,0,0,1-21.587,7.021,29.139,29.139,0,0,1-18.557-8.227,5.643,5.643,0,0,0-.754-.71c-.225-.145-.6-.3-.782-.2a1.031,1.031,0,0,0-.462.745c-.054,1.037-.023,2.078-.029,3.118,0,.893-.4,1.4-1.082,1.392s-1.048-.51-1.051-1.421c0-1.2,0-2.4,0-3.6Z" transform="translate(-29.226 -236.154)" fill="#98e1f4"/>
          <path id="Trazado_728101" data-name="Trazado 728101" d="M220.308,71.6c-.307,2.061-.655,4.406-1.006,6.751a2.371,2.371,0,0,0-.109.539c.029.275.046.669.218.781a1.017,1.017,0,0,0,.867.018c.941-.482,1.845-1.037,2.765-1.56.77-.438,1.4-.34,1.733.264s.122,1.152-.63,1.586q-3.169,1.83-6.347,3.644a1.134,1.134,0,0,1-1.829-.483q-1.83-3.173-3.643-6.355c-.427-.748-.336-1.344.235-1.691s1.2-.125,1.641.627c.509.876.982,1.776,1.53,2.627a1.045,1.045,0,0,0,.787.477,1.063,1.063,0,0,0,.608-.705,28.034,28.034,0,0,0-21.251-34.2c-.225-.047-.454-.086-.673-.152a1.068,1.068,0,0,1-.8-1.268.988.988,0,0,1,1.236-.817,35.279,35.279,0,0,1,4.523,1.219c10.7,4.115,17.155,11.876,19.475,23.087.358,1.731.427,3.522.667,5.61" transform="translate(-158.443 -33.952)" fill="#c7eaf2"/>
          <path id="Trazado_728102" data-name="Trazado 728102" d="M7.1,52.58A30.389,30.389,0,0,1,27.9,23.863c.47-.154,1.142-.138,1.219-.835s-.587-.8-1.01-1.071c-.681-.43-1.391-.816-2.084-1.227-.73-.432-.959-1.01-.641-1.587s.961-.71,1.682-.293q3.232,1.864,6.451,3.752a1.075,1.075,0,0,1,.447,1.687q-1.876,3.269-3.78,6.522a1.083,1.083,0,0,1-1.562.527,1.1,1.1,0,0,1-.279-1.632c.522-.923,1.089-1.822,1.573-2.765a1.149,1.149,0,0,0,.066-.98,1.1,1.1,0,0,0-.968-.168A27.3,27.3,0,0,0,13,38.72a27.816,27.816,0,0,0-2.3,22.463c.064.2.145.39.194.591a1.106,1.106,0,0,1-.666,1.354,1.025,1.025,0,0,1-1.368-.711c-.492-1.846-1-3.693-1.352-5.568C7.249,55.449,7.228,54,7.1,52.58" transform="translate(-5.788 -15.165)" fill="#6ed2f4"/>
          <path id="Trazado_728103" data-name="Trazado 728103" d="M88.892,207.418,85.71,200.9l9.667-4.733,3.181,6.516-9.666,4.74" transform="translate(-69.864 -159.895)" fill="#b0e06c"/>
          <path id="Trazado_728104" data-name="Trazado 728104" d="M106.215,242.9l9.674-4.735c.5,1.034,1.013,2.01,1.438,3.026a2.3,2.3,0,0,1-1.088,2.965q-2.732,1.405-5.521,2.7a2.337,2.337,0,0,1-3.014-.931,5.446,5.446,0,0,1-.254-.491c-.4-.824-.805-1.649-1.236-2.532" transform="translate(-86.577 -194.134)" fill="#6fd3f6"/>
          <path id="Trazado_728105" data-name="Trazado 728105" d="M86.269,172.319l-9.652,4.734c-.564-1.3-1.552-2.422-1.286-3.982a3.186,3.186,0,0,1,1.753-2.425c1.268-.65,2.547-1.282,3.843-1.876a3.248,3.248,0,0,1,4.314,1.462c.358.667.671,1.357,1.029,2.085" transform="translate(-61.367 -137.307)" fill="#6fd3f6"/>
          <path id="Trazado_728106" data-name="Trazado 728106" d="M70.366,142.644c-.283-.546-.591-1.084-.842-1.648a1.92,1.92,0,0,1-.129-.83c0-.089.246-.18.389-.251,1.03-.51,2.067-1,3.09-1.526.41-.209.673-.172.875.275,1.071,2.372,1.3,1.672-.9,2.822-.611.319-1.238.607-1.859.9-.143.069-.295.121-.621.253" transform="translate(-56.563 -112.703)" fill="#aedd6a"/>
          <path id="Trazado_728107" data-name="Trazado 728107" d="M82.746,162.008l-.465-.947,2.691-1.328.474.941-2.7,1.334" transform="translate(-67.069 -130.201)" fill="#6ccef0"/>
          <path id="Trazado_728108" data-name="Trazado 728108" d="M212.19,204.448a7.253,7.253,0,0,1-4.273-1.678c-1.8-1.662-1.434-3.814.813-4.8a6.335,6.335,0,0,1,6.667,1.236,2.646,2.646,0,0,1-.778,4.565,15.376,15.376,0,0,1-2.43.673" transform="translate(-168.545 -160.998)" fill="#d7e3ee"/>
          <path id="Trazado_728109" data-name="Trazado 728109" d="M194.175,253.17l.335-2,11.108,1.869-.325,1.992-11.117-1.857" transform="translate(-158.275 -204.729)" fill="#efc34a"/>
          <path id="Trazado_728110" data-name="Trazado 728110" d="M192.116,269.377l11.046,1.861a.926.926,0,0,1,.039.208c-.181,1.205-.18,1.2-1.408.992-3.062-.517-6.122-1.042-9.189-1.53-.559-.089-.808-.254-.6-.84a4.548,4.548,0,0,0,.116-.691" transform="translate(-156.444 -219.573)" fill="#f4627a"/>
          <path id="Trazado_728111" data-name="Trazado 728111" d="M208.407,239.7l-10.954-1.83c-.042-.092-.08-.134-.074-.169.234-1.448.044-1.27,1.484-1.035,2.879.471,5.755.967,8.633,1.446,1.286.214,1.288.207.911,1.587" transform="translate(-160.887 -192.785)" fill="#f5627a"/>
          <path id="Trazado_728112" data-name="Trazado 728112" d="M173.167,100.629c0,.905-.008,1.733,0,2.56a2.377,2.377,0,0,0,2.508,2.526c.827.01,1.654,0,2.5,0a1.612,1.612,0,0,1,.063.3c0,2.032.01,4.064,0,6.1,0,.874-.348,1.219-1.223,1.222q-3.941.014-7.882,0c-.875,0-1.221-.351-1.222-1.22q-.009-5.126,0-10.252c0-.873.344-1.217,1.217-1.225,1.311-.012,2.622,0,4.038,0" transform="translate(-136.864 -82.022)" fill="#c4d4e2"/>
          <path id="Trazado_728113" data-name="Trazado 728113" d="M203.8,106.782l2.45,2.485c-2.621.331-2.566-.12-2.45-2.485" transform="translate(-166.085 -87.04)" fill="#bfcedb"/>
        </g>
      </g>
      <rect id="Rectángulo_344198" data-name="Rectángulo 344198" width="68" height="71.056" transform="translate(201 1861)" fill="none"/>
    </g>
  </g>
</svg>
