<svg xmlns="http://www.w3.org/2000/svg" width="95" height="95" viewBox="0 0 95 95">
  <g id="Grupo_983792" data-name="Grupo 983792" transform="translate(-1215 -2139)">
    <rect id="Rect치ngulo_344304" data-name="Rect치ngulo 344304" width="95" height="95" transform="translate(1215 2139)" fill="none"/>
    <g id="Grupo_967315" data-name="Grupo 967315" transform="translate(395 281.295)">
      <g id="Grupo_967313" data-name="Grupo 967313" transform="translate(835.72 1873.161)">
        <g id="Grupo_967314" data-name="Grupo 967314" transform="translate(0)">
          <path id="Trazado_728156" data-name="Trazado 728156" d="M8.826,194.992a1.337,1.337,0,0,1-.631-1.3q.023-11.624,0-23.247a2.084,2.084,0,0,0-.321-1.08c-2.226-3.386-4.477-6.755-6.723-10.127-.267-.4-.554-.791-.268-1.307s.755-.5,1.241-.5q11.26,0,22.52-.01a1.564,1.564,0,0,1,1.474.793c1.994,3.043,4.022,6.063,6.039,9.091.111.166.229.326.379.539.151-.212.27-.372.381-.538,2.027-3.047,4.061-6.089,6.072-9.146a1.477,1.477,0,0,1,1.379-.736q11.322.025,22.643,0a1.359,1.359,0,0,1,1.3.632v.622c-2.372,3.557-4.752,7.11-7.106,10.679a2.078,2.078,0,0,0-.327,1.077q-.028,11.627,0,23.254a1.34,1.34,0,0,1-.631,1.3Zm50.137-35.669a1.837,1.837,0,0,0-.185-.018c-5.954,0-11.908-.007-17.862.016a1.029,1.029,0,0,0-.711.423c-1.876,2.776-3.726,5.569-5.58,8.359-.1.144-.171.3-.295.525,1.9,0,3.718,0,5.532,0q6.512-.008,13.023-.02c.68.007,1.362-.009,2.041.029a.8.8,0,0,0,.794-.429c1.852-2.809,3.721-5.607,5.582-8.41.1-.143.17-.3.268-.476Zm-6.82,11.191c-.1-.006-.206-.018-.309-.018q-8.923,0-17.845,0c-.161,0-.321.021-.521.034v.768q0,7.45,0,14.9c0,.927-.147,1.131-.938,1.352-.778-.22-.931-.423-.932-1.3q0-7.492,0-14.984v-.739H10.107v22.549H31.6c0-.875.007-1.7,0-2.532a.96.96,0,1,1,1.874-.006c-.006.842,0,1.685,0,2.585h.661q2.693,0,5.386,0,6.314-.008,12.628-.019h2.815V170.514ZM3.431,159.3c2.048,3.076,4.012,6.04,6,8.986a.958.958,0,0,0,.7.326q10.044.026,20.088.012c.152,0,.3-.022.519-.039-.134-.219-.224-.376-.324-.527-1.831-2.755-3.672-5.5-5.487-8.269a.981.981,0,0,0-.947-.5q-9.92.023-19.84.011Z" transform="translate(-0.761 -131.322)" fill="#020201"/>
          <path id="Trazado_728157" data-name="Trazado 728157" d="M98.033,0a1.612,1.612,0,0,1,.544,1.524A23.31,23.31,0,0,1,81.413,23.435a23.341,23.341,0,0,1-28.058-14.8,24.179,24.179,0,0,1-1.3-7.24A1.525,1.525,0,0,1,52.608,0h2.358c.41.078.818.162,1.229.232,9.335,1.593,15.591,6.888,18.876,15.757.073.2.134.4.247.731.084-.234.11-.307.136-.38,3.088-8.8,9.172-14.165,18.32-16.007L95.427,0ZM86.258,19.291v0a4.2,4.2,0,0,0,.5-.241,21.235,21.235,0,0,0,9.41-13.327c.289-1.232.412-2.5.637-3.913l-2.865.425c-.785.17-1.567.349-2.354.507-.389.078-.47.3-.532.678-.365,2.241-.647,4.508-1.212,6.7A23.062,23.062,0,0,1,84.312,20.2l-.112.169.212-.063,1.461-.77.385-.245M89.137,3.743C82.889,5.3,75.486,16.077,76.371,22.269a2.815,2.815,0,0,0,.289,0c.143-.015.287-.037.428-.065A11.564,11.564,0,0,0,83.4,18.388,21.96,21.96,0,0,0,88.1,9.53a27.414,27.414,0,0,0,1.036-5.787m-27.63-.027c.016.3.016.546.045.789a26.752,26.752,0,0,0,3.719,11.27,14.766,14.766,0,0,0,5.559,5.451,8.524,8.524,0,0,0,3.445,1.061c.806-6.332-6.168-16.512-12.768-18.571M53.932,1.888A21.292,21.292,0,0,0,58.9,14.673a20.885,20.885,0,0,0,7.425,5.7c-.022-.163-.014-.214-.036-.242-.09-.113-.187-.22-.285-.326a21.715,21.715,0,0,1-3.716-5.615A31.314,31.314,0,0,1,59.564,3.369a.72.72,0,0,0-.318-.539,19.853,19.853,0,0,0-5.314-.942M66.413,20.474c.035-.021.087-.044.085-.052a.42.42,0,0,0-.066-.134c-.005-.007-.059.023-.091.036l.072.15" transform="translate(-43.549)" fill="#030302"/>
          <path id="Trazado_728160" data-name="Trazado 728160" d="M79.551,255.317a1.018,1.018,0,0,0-.935,1.17c.01.828,0,1.657,0,2.532H57.128V236.471h21.49v.739q0,7.492,0,14.984c0,.873.154,1.075.932,1.3q0,.914,0,1.827" transform="translate(-47.782 -197.262)" fill="#fece70"/>
          <path id="Trazado_728161" data-name="Trazado 728161" d="M192.363,255.137q0-.914,0-1.827c.791-.221.937-.426.938-1.352q0-7.45,0-14.9v-.767c.2-.014.361-.034.521-.034q8.922,0,17.845,0c.1,0,.206.012.309.018q0,11.3,0,22.593l-12.628.019q-2.693,0-5.386,0H193.3c0-.9-.005-1.743,0-2.585a1.019,1.019,0,0,0-.939-1.164" transform="translate(-160.594 -197.082)" fill="#feb03f"/>
          <path id="Trazado_728162" data-name="Trazado 728162" d="M16.866,168.7h.708q9.92,0,19.84-.011a.981.981,0,0,1,.947.5c1.816,2.765,3.656,5.514,5.487,8.269.1.15.19.308.324.527-.215.017-.367.039-.519.039q-10.044,0-20.088-.012a.958.958,0,0,1-.7-.326c-1.991-2.946-3.955-5.91-6-8.986" transform="translate(-14.196 -140.718)" fill="#feb03f"/>
          <path id="Trazado_728163" data-name="Trazado 728163" d="M221.773,178.062q-6.511.01-13.023.02c-1.814,0-3.628,0-5.532,0,.124-.222.2-.381.295-.525,1.854-2.79,3.7-5.583,5.58-8.359a1.029,1.029,0,0,1,.711-.423c5.954-.023,11.908-.017,17.862-.016.062,0,.123.012.185.018q-1.612,2.448-3.224,4.9c-.956,1.46-1.9,2.926-2.855,4.389" transform="translate(-169.649 -140.776)" fill="#fe883b"/>
          <path id="Trazado_728164" data-name="Trazado 728164" d="M310.653,258.963V236.37h2.815v22.593Z" transform="translate(-259.27 -197.178)" fill="#fe893b"/>
          <path id="Trazado_728165" data-name="Trazado 728165" d="M315.125,178.161c.951-1.463,1.9-2.929,2.855-4.389q1.606-2.452,3.224-4.9h2.607c-.1.176-.173.333-.268.476-1.862,2.8-3.73,5.6-5.582,8.409a.8.8,0,0,1-.794.429c-.679-.038-1.36-.023-2.041-.029" transform="translate(-263.001 -140.875)" fill="#fd6237"/>
          <path id="Trazado_728166" data-name="Trazado 728166" d="M211.115,22.577a27.424,27.424,0,0,1-1.036,5.787,21.96,21.96,0,0,1-4.7,8.857,11.565,11.565,0,0,1-6.311,3.813c-.141.029-.285.051-.428.065a2.811,2.811,0,0,1-.289,0c-.885-6.191,6.518-16.967,12.766-18.525" transform="translate(-165.528 -18.834)" fill="#3cca4d"/>
          <path id="Trazado_728167" data-name="Trazado 728167" d="M109.065,22.413c6.6,2.058,13.574,12.239,12.768,18.571a8.527,8.527,0,0,1-3.445-1.061,14.769,14.769,0,0,1-5.559-5.451A26.752,26.752,0,0,1,109.11,23.2c-.028-.243-.029-.489-.045-.789" transform="translate(-91.107 -18.697)" fill="#7dd45e"/>
          <path id="Trazado_728168" data-name="Trazado 728168" d="M63.379,11.389a19.853,19.853,0,0,1,5.314.942.72.72,0,0,1,.318.539,31.317,31.317,0,0,0,2.728,10.825,21.718,21.718,0,0,0,3.716,5.614c.1.106.195.213.285.326.022.027.013.079.036.242a20.887,20.887,0,0,1-7.425-5.7,21.292,21.292,0,0,1-4.971-12.785" transform="translate(-52.996 -9.501)" fill="#bbdd6e"/>
          <path id="Trazado_728169" data-name="Trazado 728169" d="M248.16,30.8l-1.461.77-.1-.106a23.048,23.048,0,0,0,5.527-10.074c.565-2.193.847-4.46,1.212-6.7.062-.382.143-.6.532-.678.787-.158,1.57-.336,2.355-.506-.04.284-.105.567-.117.852a22.1,22.1,0,0,1-1.165,6.03,22.328,22.328,0,0,1-5.7,9.273,7.242,7.242,0,0,0-.69.9v0l-.385.245" transform="translate(-205.836 -11.262)" fill="#38a858"/>
          <path id="Trazado_728170" data-name="Trazado 728170" d="M258.342,28.42a7.239,7.239,0,0,1,.69-.9,22.325,22.325,0,0,0,5.7-9.273,22.1,22.1,0,0,0,1.165-6.03c.012-.285.077-.568.117-.852l2.865-.425c-.224,1.41-.348,2.681-.637,3.913a21.234,21.234,0,0,1-9.41,13.327,4.177,4.177,0,0,1-.5.241" transform="translate(-215.633 -9.125)" fill="#338662"/>
          <path id="Trazado_728171" data-name="Trazado 728171" d="M256.017,116.589l.385-.245-.385.245" transform="translate(-213.694 -97.053)" fill="#338662"/>
          <path id="Trazado_728172" data-name="Trazado 728172" d="M138.291,122.541l-.072-.15c.032-.013.086-.043.091-.036a.42.42,0,0,1,.066.134c0,.007-.05.031-.085.052" transform="translate(-115.427 -102.067)" fill="#bbdd6e"/>
          <path id="Trazado_728173" data-name="Trazado 728173" d="M246.14,121.927l-.212.063.112-.169.1.106" transform="translate(-205.277 -101.622)" fill="#38a858"/>
        </g>
      </g>
      <rect id="Rect치ngulo_344201" data-name="Rect치ngulo 344201" width="64.095" height="66.976" transform="translate(835 1871)" fill="none"/>
    </g>
  </g>
</svg>
