<svg xmlns="http://www.w3.org/2000/svg" width="95" height="95" viewBox="0 0 95 95">
  <g id="Grupo_983794" data-name="Grupo 983794" transform="translate(-588 -2139)">
    <rect id="Rect치ngulo_344302" data-name="Rect치ngulo 344302" width="95" height="95" transform="translate(588 2139)" fill="none"/>
    <g id="Grupo_967311" data-name="Grupo 967311" transform="translate(-235 445.318)">
      <g id="Grupo_967309" data-name="Grupo 967309" transform="translate(837 1707.513)">
        <g id="Grupo_967310" data-name="Grupo 967310" transform="translate(0)">
          <path id="Trazado_728114" data-name="Trazado 728114" d="M67.775,24.82V67.236H1.322a1.632,1.632,0,0,1-.668-1.507c.025-4.047.013-8.094.013-12.141C.666,49.06.66,44.531.67,40A3.136,3.136,0,0,1,3.894,36.77c.324,0,.648,0,1,0,.026-.234.057-.425.068-.619q.268-4.651.531-9.3Q6.166,14.96,6.839,3.07A3.1,3.1,0,0,1,8.822.231,2.722,2.722,0,0,0,9.186,0H16c.021.034.037.093.065.1A3.071,3.071,0,0,1,18.61,3.013q.4,6.847.785,13.695.488,8.65.969,17.3c.051.912.115,1.824.173,2.745h2.186c.023-.2.055-.4.066-.588q.268-4.652.531-9.3.671-11.894,1.345-23.787A3.1,3.1,0,0,1,26.648.231,2.706,2.706,0,0,0,27.012,0h6.816c.022.034.037.093.065.1a3.072,3.072,0,0,1,2.543,2.912q.338,5.666.652,11.333.552,9.794,1.1,19.589c.053.935.117,1.87.176,2.8h2.15v-.747q0-8.2,0-16.408a3.749,3.749,0,0,1,2.628-3.671,4.346,4.346,0,0,1,2.926.3Q56.407,20.155,66.745,24.1a5.192,5.192,0,0,1,1.03.717M12.72,11.541h4.249L16.79,8.422H8.644c-.055,1.061-.106,2.052-.161,3.118ZM30.414,8.422H26.469c-.055,1.061-.106,2.052-.161,3.118h8.486c-.062-1.085-.12-2.088-.179-3.118Zm-.519-6.3c-.673-.007-1.346-.02-2.02-.019a.987.987,0,0,0-1.09.908c-.11,1.074-.134,2.157-.2,3.27h7.924c-.059-1.078-.1-2.079-.17-3.078a1.048,1.048,0,0,0-1.122-1.1C32.113,2.1,31,2.116,29.9,2.123M12.462,6.282h4.226c-.059-1.078-.1-2.079-.17-3.078a1.048,1.048,0,0,0-1.122-1.1c-1.108-.012-2.217.009-3.325.016-.673-.007-1.346-.02-2.02-.019a.987.987,0,0,0-1.09.908c-.11,1.074-.134,2.157-.2,3.27Zm49.016,24.2q-9.266-.008-18.532-.014a1.324,1.324,0,0,0-.291.064v2c.234.011.426.028.619.028q9.1-.007,18.2-.018H65.63V30.486ZM32.119,48.347A9.361,9.361,0,0,0,22.77,58.529c.147-.125.277-.231.4-.342q2.981-2.611,5.961-5.222c.629-.55,1.23-.575,1.668-.082s.346,1.1-.273,1.649c-.815.726-1.641,1.439-2.461,2.159l-3.56,3.125h2.1c.258-.022.52-.025.774-.07,4.91-.858,8.668-5.3,7.8-11.4Zm22.933,5.264c-1.219-.01-2.439-.026-3.658-.03-1.112,0-1.442.329-1.443,1.438q0,4.714,0,9.429c0,.211.021.421.034.668h8.349c0-3.553.011-7.019-.009-10.485a1.045,1.045,0,0,0-1.12-1.043c-.717-.017-1.436.014-2.153.024m-37.6,5.084q-2.33-2.062-4.661-4.123c-.653-.577-.766-1.191-.308-1.7.442-.488,1.035-.454,1.672.1l3.026,2.607,3.388,3.031c.23-5.481-3.63-9.971-8.636-10.219H7.951c.062,1.209.043,2.4.2,3.56a9.4,9.4,0,0,0,9.29,7.912h1.406l-1.4-1.168m19.81-6.559c-.067.321-.124.644-.2.962a11.562,11.562,0,0,1-11.229,8.885c-1.039.007-2.077,0-3.1,0v3.13H40.473V38.893H37.364c-.109-.007-.217-.021-.326-.021q-16.481,0-32.962,0c-.962,0-1.312.369-1.312,1.371q0,12.212,0,24.424c0,.145.016.291.025.43H20.551V61.983c-1.083,0-2.129.008-3.175,0A11.572,11.572,0,0,1,6.386,53.716a21.754,21.754,0,0,1-.472-6.253c-.01-.854.385-1.233,1.244-1.237,1.376-.006,2.754-.042,4.128.009a11.392,11.392,0,0,1,10.086,6.2c.079.14.168.274.277.451.091-.152.15-.24.2-.333a10.9,10.9,0,0,1,8.136-6.069,44.884,44.884,0,0,1,6.464-.228c.266,0,.535.32.8.492a5.484,5.484,0,0,1,.11.829c-.024,1.519-.067,3.038-.1,4.557M61.482,28.343h4.174V25.926l-3.421-1.3q-8.63-3.29-17.261-6.575a1.565,1.565,0,0,0-2.316,1.127c-.016.2-.046.39-.046.585q0,4.071,0,8.141c0,.145.02.29.032.463,1.393,0,2.744,0,4.1,0l14.743-.021M31.992,36.749h4.262c-.441-7.727-.878-15.4-1.315-23.069H26.161L24.849,36.749Zm-17.826,0h4.262c-.44-7.727-.878-15.4-1.315-23.069H8.335C7.9,21.4,7.46,29.065,7.023,36.749Zm47.315-2.059c-.087-.007-.174-.021-.26-.021q-9.141,0-18.281,0a2.586,2.586,0,0,0-.294.032V65.1h5.205c0-3.4,0-6.772,0-10.139a3.172,3.172,0,0,1,3.441-3.48q2.85,0,5.7,0a3.171,3.171,0,0,1,3.441,3.481q0,4.76,0,9.519v.636h5.2V34.691Z" transform="translate(-0.654)" fill="#010101"/>
          <path id="Trazado_728118" data-name="Trazado 728118" d="M47.192,229.88c-.268-.172-.537-.495-.8-.492a44.887,44.887,0,0,0-6.463.228,10.9,10.9,0,0,0-8.136,6.069c-.049.093-.108.181-.2.333-.109-.177-.2-.311-.277-.451a11.392,11.392,0,0,0-10.086-6.2c-1.374-.051-2.752-.015-4.128-.009-.859,0-1.254.384-1.244,1.237a21.76,21.76,0,0,0,.472,6.253,11.572,11.572,0,0,0,10.991,8.265c1.045.009,2.091,0,3.175,0v3.115H12.732c-.009-.139-.025-.285-.025-.43q0-12.212,0-24.424c0-1,.35-1.371,1.312-1.371q16.481,0,32.962,0c.109,0,.217.013.326.021,0,2.412,0,4.825,0,7.238a3.513,3.513,0,0,1-.111.619" transform="translate(-10.595 -183.131)" fill="#eceafc"/>
          <path id="Trazado_728119" data-name="Trazado 728119" d="M259.32,228.447h-1.046v-.636q0-4.759,0-9.519a3.171,3.171,0,0,0-3.441-3.48q-2.85,0-5.7,0a3.172,3.172,0,0,0-3.441,3.48c0,3.367,0,6.734,0,10.139h-5.205V198.037a2.589,2.589,0,0,1,.294-.032q9.141,0,18.281,0c.087,0,.174.014.26.021q0,1.554,0,3.108c-.672.007-1.344.005-2.016.024a1.051,1.051,0,1,0,0,2.1c.672.019,1.344.017,2.016.024v2.058c-.672.007-1.344.005-2.016.024a1.051,1.051,0,1,0,0,2.1c.672.019,1.344.017,2.016.024v2.058c-.672.007-1.344.005-2.016.024a1.051,1.051,0,1,0,0,2.1c.672.019,1.344.017,2.016.024Zm-13.632-23.09c-.348,0-.7-.016-1.044,0a1.039,1.039,0,0,0-1.048,1.031,1.025,1.025,0,0,0,1.018,1.057c.717.029,1.437.029,2.154,0a1.026,1.026,0,0,0,1.016-1.06,1.041,1.041,0,0,0-1.052-1.028c-.347-.019-.7,0-1.044,0m6.234,2.1v0c.37,0,.741.017,1.11,0a1.041,1.041,0,0,0,1.044-1.037,1.024,1.024,0,0,0-1.024-1.052c-.717-.027-1.437-.028-2.154,0a1.022,1.022,0,0,0-1.01,1.064,1.036,1.036,0,0,0,.991,1.02c.346.027.7.005,1.044.005m-6.267,4.206c.348,0,.7.013,1.044,0a1.049,1.049,0,0,0,1.085-1.063,1.03,1.03,0,0,0-1.048-1.03c-.7-.024-1.393-.024-2.089,0a1.029,1.029,0,0,0-1.052,1.026,1.047,1.047,0,0,0,1.08,1.067c.326.016.653,0,.979,0m6.381-2.1v0c-.37,0-.741-.017-1.11,0a1.036,1.036,0,0,0-1.039,1.039,1.025,1.025,0,0,0,1.027,1.05c.717.027,1.437.029,2.154,0a1.043,1.043,0,0,0,.012-2.084c-.346-.026-.7,0-1.044,0m-6.37-8.406c-.348,0-.7-.018-1.044,0a1.035,1.035,0,0,0-1.026,1.052,1.015,1.015,0,0,0,.975,1.031c.738.034,1.48.033,2.219,0a1.023,1.023,0,0,0,.994-1.015,1.036,1.036,0,0,0-1.009-1.068c-.368-.025-.74,0-1.11-.005m6.316,2.1c.348,0,.7.016,1.044,0a1.043,1.043,0,0,0,1.049-1.032,1.024,1.024,0,0,0-1.019-1.057c-.717-.028-1.437-.028-2.154,0a1.023,1.023,0,0,0-1.016,1.059,1.042,1.042,0,0,0,1.051,1.03c.347.02.7,0,1.044,0" transform="translate(-198.492 -163.335)" fill="#eceafc"/>
          <path id="Trazado_728120" data-name="Trazado 728120" d="M44.175,101.2H37.032l1.312-23.069h4.649c.13,2.41.265,4.82.39,7.231.1,1.847.181,3.694.268,5.542.048,1.022.085,2.044.139,3.066q.188,3.616.386,7.231" transform="translate(-30.662 -64.451)" fill="#ebe9fb"/>
          <path id="Trazado_728121" data-name="Trazado 728121" d="M145.982,101.2h-7.143l1.312-23.069H144.8c.13,2.41.265,4.82.39,7.231.1,1.847.181,3.694.268,5.542.048,1.022.085,2.044.138,3.066q.188,3.616.386,7.231" transform="translate(-114.644 -64.451)" fill="#ebe9fb"/>
          <path id="Trazado_728122" data-name="Trazado 728122" d="M348.057,228.547V211.782c.627-.1,1.054-.43,1.038-1.1-.016-.64-.439-.946-1.038-1.04V207.58c.627-.1,1.054-.43,1.038-1.105-.016-.64-.439-.946-1.038-1.04v-2.058c.627-.1,1.054-.43,1.038-1.105-.016-.64-.439-.946-1.038-1.04q0-1.554,0-3.108h4.157v30.422Z" transform="translate(-287.229 -163.435)" fill="#d1d1fb"/>
          <path id="Trazado_728123" data-name="Trazado 728123" d="M259.146,118.684,244.4,118.7c-1.351,0-2.7,0-4.1,0-.012-.172-.032-.317-.032-.463q0-4.071,0-8.141c0-.2.03-.39.046-.585a3.492,3.492,0,0,1,.567.116q8.151,3.1,16.3,6.2c1.966.746,1.971.732,1.959,2.852" transform="translate(-198.318 -90.34)" fill="#eceafc"/>
          <path id="Trazado_728124" data-name="Trazado 728124" d="M72.258,101.2q-.194-3.615-.386-7.231c-.053-1.022-.09-2.044-.138-3.066-.087-1.847-.173-3.695-.268-5.542-.125-2.411-.26-4.821-.39-7.231H75.2c.437,7.673.874,15.343,1.315,23.069Z" transform="translate(-58.745 -64.451)" fill="#d0d0fa"/>
          <path id="Trazado_728125" data-name="Trazado 728125" d="M174.065,101.2q-.193-3.615-.386-7.231c-.053-1.022-.09-2.044-.138-3.066-.087-1.847-.173-3.695-.268-5.542-.125-2.411-.26-4.821-.39-7.231h4.129l1.315,23.069Z" transform="translate(-142.726 -64.451)" fill="#d0d0fa"/>
          <path id="Trazado_728126" data-name="Trazado 728126" d="M209.666,229.983a3.515,3.515,0,0,0,.111-.619c.007-2.413,0-4.825,0-7.238h3.108v26.22H209.78q0-6.177,0-12.354a3.758,3.758,0,0,0-.1-.624c.036-1.519.08-3.038.1-4.557a5.459,5.459,0,0,0-.11-.829" transform="translate(-173.069 -183.233)" fill="#d1d1fb"/>
          <path id="Trazado_728127" data-name="Trazado 728127" d="M141.251,297.757a3.76,3.76,0,0,1,.1.624q.008,6.177,0,12.354H126.721V307.6c1.022,0,2.061.006,3.1,0a11.562,11.562,0,0,0,11.229-8.885c.078-.318.135-.641.2-.962" transform="translate(-104.647 -245.622)" fill="#ebe9fb"/>
          <path id="Trazado_728128" data-name="Trazado 728128" d="M51.557,283.554l-3.026-2.607c-.637-.549-1.229-.583-1.672-.1-.458.5-.345,1.118.308,1.7q2.331,2.06,4.661,4.123,0,.584-.009,1.168a9.4,9.4,0,0,1-9.29-7.912c-.154-1.163-.135-2.35-.2-3.559h3.976a2.846,2.846,0,0,0,.421.385,9.78,9.78,0,0,1,2.786,2.42,9.605,9.605,0,0,1,2.043,4.383" transform="translate(-35.034 -227.976)" fill="#78c99a"/>
          <path id="Trazado_728129" data-name="Trazado 728129" d="M287.431,317.546h-5.2c-.013-.246-.034-.457-.034-.668q0-4.714,0-9.429c0-1.109.331-1.441,1.443-1.437,1.219,0,2.439.019,3.658.03a7.871,7.871,0,0,1,.134,1.029c.008,3.492,0,6.983,0,10.475" transform="translate(-232.899 -252.431)" fill="#595965"/>
          <path id="Trazado_728130" data-name="Trazado 728130" d="M130.527,287.586h-2.1l3.56-3.125c.82-.719,1.647-1.433,2.461-2.159.619-.551.711-1.156.273-1.649s-1.04-.468-1.668.082q-2.983,2.608-5.961,5.222c-.126.111-.256.217-.4.342a9.361,9.361,0,0,1,9.349-10.182,34.1,34.1,0,0,1-.15,3.778,9.737,9.737,0,0,1-3.527,6.269c-.6.493-1.222.95-1.834,1.423" transform="translate(-104.572 -227.769)" fill="#77c89a"/>
          <path id="Trazado_728131" data-name="Trazado 728131" d="M259.373,112.548c.012-2.12.007-2.106-1.959-2.852q-8.152-3.092-16.3-6.2a3.491,3.491,0,0,0-.567-.116,1.565,1.565,0,0,1,2.316-1.127q8.635,3.276,17.261,6.575l3.421,1.3v2.418Z" transform="translate(-198.545 -84.205)" fill="#d0d0f9"/>
          <path id="Trazado_728132" data-name="Trazado 728132" d="M259.349,176.108q-9.1.01-18.2.018c-.192,0-.384-.017-.619-.028v-2a1.328,1.328,0,0,1,.291-.064q9.266,0,18.532.014v2.061" transform="translate(-198.525 -143.56)" fill="#595965"/>
          <path id="Trazado_728133" data-name="Trazado 728133" d="M311.468,317.55c0-3.492.008-6.983,0-10.475a7.868,7.868,0,0,0-.134-1.029c.718-.01,1.436-.041,2.153-.024a1.045,1.045,0,0,1,1.12,1.044c.02,3.466.01,6.932.01,10.485Z" transform="translate(-256.936 -252.435)" fill="#44454e"/>
          <path id="Trazado_728134" data-name="Trazado 728134" d="M148.884,287.589c.612-.473,1.238-.93,1.834-1.423a9.737,9.737,0,0,0,3.527-6.269,34.08,34.08,0,0,0,.15-3.778h3.059c.872,6.1-2.886,10.543-7.8,11.4-.254.045-.516.047-.774.07" transform="translate(-122.93 -227.772)" fill="#62aa7c"/>
          <path id="Trazado_728135" data-name="Trazado 728135" d="M70.29,283.554a9.605,9.605,0,0,0-2.043-4.383,9.78,9.78,0,0,0-2.786-2.42,2.846,2.846,0,0,1-.421-.385c5.006.248,8.867,4.738,8.636,10.219l-3.388-3.031" transform="translate(-53.767 -227.976)" fill="#62a97b"/>
          <path id="Trazado_728136" data-name="Trazado 728136" d="M65.854,12.033c1.109-.007,2.217-.027,3.325-.016a1.048,1.048,0,0,1,1.122,1.1c.066,1,.112,2,.17,3.078H66.246c-.043-.969-.066-1.94-.139-2.908a9.789,9.789,0,0,0-.253-1.252" transform="translate(-54.438 -9.91)" fill="#d0d0fa"/>
          <path id="Trazado_728137" data-name="Trazado 728137" d="M167.661,12.033c1.109-.007,2.217-.027,3.325-.016a1.048,1.048,0,0,1,1.122,1.1c.066,1,.112,2,.17,3.078h-4.226c-.043-.969-.066-1.94-.139-2.908a9.788,9.788,0,0,0-.253-1.252" transform="translate(-138.419 -9.91)" fill="#d0d0fa"/>
          <path id="Trazado_728138" data-name="Trazado 728138" d="M152.084,12.034a9.788,9.788,0,0,1,.253,1.252c.073.967.1,1.938.139,2.908h-3.7c.062-1.113.086-2.2.2-3.27a.987.987,0,0,1,1.09-.908c.673,0,1.346.012,2.019.019" transform="translate(-122.842 -9.911)" fill="#ebe9fb"/>
          <path id="Trazado_728139" data-name="Trazado 728139" d="M50.277,12.034a9.789,9.789,0,0,1,.253,1.252c.073.967.1,1.938.139,2.908h-3.7c.062-1.113.086-2.2.2-3.27a.987.987,0,0,1,1.09-.908c.673,0,1.346.012,2.019.019" transform="translate(-38.861 -9.911)" fill="#ebe9fb"/>
          <path id="Trazado_728140" data-name="Trazado 728140" d="M170.624,48.1h4.2L175,51.218h-4.249q-.066-1.559-.132-3.118" transform="translate(-140.863 -39.678)" fill="#44454e"/>
          <path id="Trazado_728141" data-name="Trazado 728141" d="M68.817,48.1h4.2l.179,3.118H68.949q-.066-1.559-.132-3.118" transform="translate(-56.882 -39.678)" fill="#44454e"/>
          <path id="Trazado_728142" data-name="Trazado 728142" d="M151.28,48.1q.066,1.559.132,3.118h-4.237c.055-1.066.106-2.057.161-3.118Z" transform="translate(-121.519 -39.678)" fill="#585864"/>
          <path id="Trazado_728143" data-name="Trazado 728143" d="M49.473,48.1q.066,1.559.131,3.118H45.367c.055-1.066.106-2.057.161-3.118Z" transform="translate(-37.538 -39.678)" fill="#585864"/>
          <path id="Trazado_728144" data-name="Trazado 728144" d="M348.031,176.175v-2.061h4.153v2.061Z" transform="translate(-287.207 -143.628)" fill="#44454e"/>
          <path id="Trazado_728145" data-name="Trazado 728145" d="M96.516,336.384l.008-1.168,1.4,1.168Z" transform="translate(-79.731 -276.522)" fill="#60a679"/>
          <path id="Trazado_728146" data-name="Trazado 728146" d="M260.345,239.973c.348,0,.7-.016,1.044,0A1.041,1.041,0,0,1,262.441,241a1.027,1.027,0,0,1-1.017,1.06c-.717.029-1.437.029-2.154,0a1.025,1.025,0,0,1-1.018-1.057,1.039,1.039,0,0,1,1.048-1.031c.347-.019.7,0,1.044,0" transform="translate(-213.148 -197.95)" fill="#050505"/>
          <path id="Trazado_728147" data-name="Trazado 728147" d="M296.219,242.038c-.348,0-.7.022-1.044,0a1.036,1.036,0,0,1-.991-1.02,1.022,1.022,0,0,1,1.01-1.064c.717-.029,1.437-.028,2.154,0A1.025,1.025,0,0,1,298.372,241a1.042,1.042,0,0,1-1.044,1.037c-.369.021-.74,0-1.11,0v0" transform="translate(-242.788 -197.918)" fill="#050505"/>
          <path id="Trazado_728148" data-name="Trazado 728148" d="M333.256,239.876c.6.094,1.022.4,1.038,1.04.016.675-.411,1-1.038,1.105-.672-.007-1.344,0-2.016-.024a1.051,1.051,0,1,1,0-2.1c.672-.019,1.344-.017,2.016-.024" transform="translate(-272.428 -197.875)" fill="#050505"/>
          <path id="Trazado_728149" data-name="Trazado 728149" d="M260.312,266.045c-.326,0-.653.013-.979,0a1.047,1.047,0,0,1-1.08-1.067,1.029,1.029,0,0,1,1.052-1.026c.7-.023,1.393-.024,2.089,0a1.03,1.03,0,0,1,1.048,1.03,1.049,1.049,0,0,1-1.085,1.063c-.347.016-.7,0-1.044,0" transform="translate(-213.149 -217.719)" fill="#050505"/>
          <path id="Trazado_728150" data-name="Trazado 728150" d="M333.256,263.876c.6.094,1.022.4,1.038,1.04.016.675-.411,1-1.038,1.105-.672-.007-1.344,0-2.016-.024a1.051,1.051,0,1,1,0-2.1c.672-.019,1.344-.017,2.016-.024" transform="translate(-272.428 -217.673)" fill="#050505"/>
          <path id="Trazado_728151" data-name="Trazado 728151" d="M296.335,263.976c.348,0,.7-.021,1.044,0a1.043,1.043,0,0,1-.012,2.084c-.717.03-1.437.029-2.154,0a1.025,1.025,0,0,1-1.027-1.049,1.036,1.036,0,0,1,1.039-1.039c.369-.021.74,0,1.11,0Z" transform="translate(-242.79 -217.748)" fill="#050505"/>
          <path id="Trazado_728152" data-name="Trazado 728152" d="M260.324,215.976c.37,0,.741-.02,1.11.005a1.035,1.035,0,0,1,1.009,1.068,1.023,1.023,0,0,1-.994,1.015c-.739.031-1.481.033-2.219,0a1.015,1.015,0,0,1-.975-1.031,1.035,1.035,0,0,1,1.026-1.052c.347-.022.7,0,1.044,0" transform="translate(-213.15 -178.153)" fill="#050505"/>
          <path id="Trazado_728153" data-name="Trazado 728153" d="M296.28,218.041c-.348,0-.7.016-1.044,0a1.042,1.042,0,0,1-1.051-1.03,1.023,1.023,0,0,1,1.016-1.059c.717-.028,1.437-.028,2.154,0a1.024,1.024,0,0,1,1.019,1.057,1.043,1.043,0,0,1-1.049,1.032c-.347.02-.7,0-1.044,0" transform="translate(-242.789 -178.12)" fill="#050505"/>
          <path id="Trazado_728154" data-name="Trazado 728154" d="M333.256,215.876c.6.094,1.022.4,1.038,1.04.016.675-.411,1-1.038,1.105-.672-.007-1.344,0-2.016-.024a1.051,1.051,0,1,1,0-2.1c.672-.019,1.344-.017,2.016-.024" transform="translate(-272.428 -178.077)" fill="#050505"/>
        </g>
      </g>
      <rect id="Rect치ngulo_344200" data-name="Rect치ngulo 344200" width="67" height="71" transform="translate(837.168 1705.681)" fill="none"/>
    </g>
  </g>
</svg>
