<svg xmlns="http://www.w3.org/2000/svg" xmlns:xlink="http://www.w3.org/1999/xlink" width="95" height="95" viewBox="0 0 95 95">
  <defs>
    <clipPath id="clip-path">
      <rect id="Rectángulo_344196" data-name="Rectángulo 344196" width="68.195" height="41.375" fill="none"/>
    </clipPath>
  </defs>
  <g id="Grupo_983795" data-name="Grupo 983795" transform="translate(-275 -2139)">
    <rect id="Rectángulo_344301" data-name="Rectángulo 344301" width="95" height="95" transform="translate(275 2139)" fill="none"/>
    <g id="Grupo_967305" data-name="Grupo 967305" transform="translate(90.412 455.329)">
      <g id="Grupo_967301" data-name="Grupo 967301" transform="translate(198 1711.23)">
        <g id="Grupo_967300" data-name="Grupo 967300" clip-path="url(#clip-path)">
          <path id="Trazado_728055" data-name="Trazado 728055" d="M20.815,24.325c.827.262,1,.5,1,1.4,0,2.575,0,5.151,0,7.764h2.1v-.761q0-12.975,0-25.951a5.127,5.127,0,0,1,.12-1.32A2.594,2.594,0,0,1,26.633,3.55q10.22-.02,20.441-.009a1.042,1.042,0,0,1,1.187.985c-.2.854-.447,1.027-1.5,1.027h-19.7c-1.028,0-1.14.114-1.141,1.156q0,10.135,0,20.271c0,.216.019.433.033.721h.758q13.01.006,26.021.009c.22,0,.44-.027.66-.041h2.284c-.026-.2-.037-.376-.072-.544Q54.437,21.46,53.256,15.8q-1.179-5.631-2.371-11.259c.008-.532.012-1.064.025-1.6A2.809,2.809,0,0,1,53.9,0c1.615.012,3.233.009,4.842.12a4.889,4.889,0,0,1,2.8,1.27c1.655,1.407,3.29,2.838,4.941,4.249a6.439,6.439,0,0,1,1.715,2.9V33.762a3.086,3.086,0,0,1-.3.41c-.355.357-.666.839-1.1,1.023a5.629,5.629,0,0,1-4.081.071,2.609,2.609,0,0,1-1.2-1.249c-.661-1.252-1.22-2.559-1.792-3.856a.631.631,0,0,0-.69-.455c-.97.029-1.942.01-3.04.01a6.908,6.908,0,0,1,1.806,6.215,6.624,6.624,0,0,1-2.472,3.988,6.811,6.811,0,0,1-8.94-.457,6.96,6.96,0,0,1-.178-9.745c-1.291,0-2.522-.014-3.752.019-.139,0-.325.253-.4.427-.48,1.168-.933,2.346-1.4,3.52a2.458,2.458,0,0,1-2.732,1.848q-9.788,0-19.576-.009c-.482,0-.707.061-.84.623A6.807,6.807,0,0,1,4.247,36c-.034-.15-.09-.295-.146-.474-.518,0-1.028.016-1.536,0A2.579,2.579,0,0,1,.014,32.97Q-.018,26,.019,19.027a1.5,1.5,0,0,1,.353-.89c2.387-2.781,4.8-5.538,7.2-8.312a4.206,4.206,0,0,1,3.34-1.507c2.663,0,5.327-.015,7.99,0a2.731,2.731,0,0,1,2.917,2.987q.009,4.5,0,9.006c0,.9-.176,1.136-1,1.4-.86-.276-.99-.453-.99-1.392,0-3,0-5.994,0-8.992,0-.771-.228-1.008-.981-1.013-.685-.005-1.37.025-2.055.04-2.038-.011-4.077-.033-6.115-.026a2.156,2.156,0,0,0-1.65.868C6.8,13.774,4.565,16.328,2.358,18.909a1.576,1.576,0,0,0-.34.936c-.028,2.4-.016,4.8-.014,7.2,0,.212.021.423.035.669h.783q6.22,0,12.439,0c.553,0,1.106-.025,1.659-.038h2.9c0-.7,0-1.335,0-1.972,0-.923.137-1.1.991-1.376M63.8,33.492a13.282,13.282,0,0,0,1.721,0c.239-.028.629-.307.64-.49.061-1.075.03-2.156.03-3.246H61.741c.559,1.216,1.083,2.374,1.635,3.519.055.113.278.145.424.214M16.808,31.083c.26.7.511,1.409.789,2.1.053.133.207.312.322.318.611.032,1.225.015,1.868.015V29.749H15.843l.965,1.334m46.98-3.406h2.364v-3.5H57.047c.221,1.089.418,2.133.659,3.168a.586.586,0,0,0,.428.355c1.884.013,3.769-.007,5.654-.018M63.8,18.94H55.945l.675,3.191h9.534V18.94Zm-.015-2.07h2.362V13.65h-11.3c.206,1.011.391,1.987.618,2.953a.537.537,0,0,0,.416.286c2.633.007,5.267-.009,7.9-.019M52.611,39.093a4.707,4.707,0,0,0,3.338-4.539,4.841,4.841,0,0,0-8.618-2.989,4.853,4.853,0,0,0-.087,5.827,4.686,4.686,0,0,0,5.367,1.7M12.4,30a4.7,4.7,0,0,0-5.335,1.618,4.857,4.857,0,0,0-.089,5.724,4.691,4.691,0,0,0,5.413,1.749,4.125,4.125,0,0,0,2.226-1.474c2.174-2.546.934-6.8-2.214-7.617m23.962,3.494c.594.009,1.189.036,1.783.017.173-.005.443-.1.5-.22.485-1.147.933-2.31,1.421-3.546h-14.1v3.749h10.4M57.669,2.026C56.45,2.017,55.23,2,54.01,2c-.841,0-1.155.264-1.084,1.123.1,1.21.272,2.417.489,3.612.3,1.63.665,3.246,1,4.863H66.2c0-.7-.006-1.341,0-1.982a3.154,3.154,0,0,0-1.11-2.534C63.5,5.7,61.906,4.317,60.294,2.959a3.665,3.665,0,0,0-2.624-.933M5.992,29.785H2c0,.714.014,1.4,0,2.085-.044,1.83.069,1.661,1.756,1.637a.639.639,0,0,0,.465-.388,7.221,7.221,0,0,1,1.77-3.334" transform="translate(0 0)" fill="#030303"/>
          <path id="Trazado_728056" data-name="Trazado 728056" d="M173.184,48.586c-.22.014-.44.041-.661.041q-13.01,0-26.021-.009h-.758c-.014-.288-.033-.5-.033-.721q0-10.135,0-20.271c0-1.043.112-1.156,1.14-1.156h19.7c1.048,0,1.294-.173,1.495-1.027l.362.034a1.377,1.377,0,0,0,0,.266q.684,3.3,1.374,6.6,1.7,8.121,3.4,16.242M165.269,37.17a1.051,1.051,0,0,0,.716-1.288c-.152-.6-.681-.7-1.188-.8a.4.4,0,0,0-.066-.011,1.4,1.4,0,0,1-1.261-.885c-.535-1-1.135-1.957-1.729-2.919a2.338,2.338,0,0,0-2.368-1.157,2.4,2.4,0,0,0-1.9,1.293q-1.15,1.936-2.309,3.866l-.1-.214a4.108,4.108,0,0,0-1.246.3c-.456.277-.393.807-.244,1.272a1.963,1.963,0,0,1-.3,1.861c-.521.742-.923,1.566-1.409,2.334a2.472,2.472,0,0,0-.189,2.7,2.527,2.527,0,0,0,2.453,1.283c1.461-.02,2.922,0,4.1,0,.432.512.66.971,1.028,1.171.486.265.925-.082,1.27-.466.089-.1.2-.178.281-.283a1.14,1.14,0,0,1,1.042-.431c1.108.027,2.217,0,3.326.013a2.506,2.506,0,0,0,2.267-3.988c-.728-1.188-1.429-2.392-2.173-3.643" transform="translate(-119.785 -20.914)" fill="#96d97a"/>
          <path id="Trazado_728057" data-name="Trazado 728057" d="M278.026,48.634q-1.7-8.121-3.4-16.242-.69-3.3-1.374-6.6a1.359,1.359,0,0,1,0-.266l2.263-.023q1.186,5.629,2.371,11.259,1.186,5.664,2.356,11.331c.035.168.046.341.072.544Z" transform="translate(-224.627 -20.963)" fill="#7cca5e"/>
          <path id="Trazado_728058" data-name="Trazado 728058" d="M98.363,72c-.854.271-.987.453-.991,1.376,0,.637,0,1.274,0,1.972h-2.9l0-6.719A2.473,2.473,0,0,0,95.51,66.4c-.03-1.326-.035-2.654,0-3.98a2.505,2.505,0,0,0-1.054-2.291l-.124-2.092c.685-.015,1.37-.046,2.055-.04.754.006.98.242.981,1.013,0,3,0,5.994,0,8.992,0,.939.13,1.116.99,1.392q0,1.3,0,2.608" transform="translate(-77.549 -47.678)" fill="#05c7ef"/>
          <path id="Trazado_728059" data-name="Trazado 728059" d="M26.023,58.1l.124,2.092a4.817,4.817,0,0,0-1.025-.247q-2-.044-3.992-.006a2.877,2.877,0,0,0-2.2,1.078c-1.652,1.918-3.348,3.8-4.958,5.751a4.752,4.752,0,0,0-.83,1.839,6.958,6.958,0,0,0-.037,1.726,2.1,2.1,0,0,0,2.162,2.2c.865.019,1.731.015,2.6,0A2.89,2.89,0,0,0,20,71.613c.717-.759,1.419-1.533,2.172-2.254a1.663,1.663,0,0,1,.9-.388c1.024-.125,2.055-.188,3.083-.274l0,6.719c-.553.013-1.106.037-1.658.038q-6.22,0-12.439,0h-.783c-.013-.246-.034-.458-.035-.669,0-2.4-.014-4.8.014-7.2a1.579,1.579,0,0,1,.34-.936c2.207-2.581,4.444-5.135,6.661-7.707a2.156,2.156,0,0,1,1.65-.868c2.038-.007,4.077.015,6.115.026" transform="translate(-9.239 -47.743)" fill="#61d9f9"/>
          <path id="Trazado_728060" data-name="Trazado 728060" d="M308.29,20.838h-9.38c-.336-1.616-.7-3.233-1-4.863-.217-1.195-.388-2.4-.489-3.612-.072-.858.243-1.124,1.084-1.123,1.22,0,2.439.017,3.659.027.36.373.7.774,1.084,1.115,1.176,1.034,2.425,1.99,3.538,3.086a4.709,4.709,0,0,1,1.325,2.072,17.181,17.181,0,0,1,.18,3.3" transform="translate(-244.493 -9.241)" fill="#e0dce0"/>
          <path id="Trazado_728061" data-name="Trazado 728061" d="M156.342,170.925h-10.4v-3.749h11.731a8.077,8.077,0,0,1-.214.818c-.365.981-.746,1.955-1.122,2.931" transform="translate(-119.979 -137.431)" fill="#a69aa6"/>
          <path id="Trazado_728062" data-name="Trazado 728062" d="M40.516,176.4a4.691,4.691,0,0,1-5.413-1.749,4.857,4.857,0,0,1,.089-5.724,4.694,4.694,0,0,1,5.335-1.618,2.412,2.412,0,0,0,.321.546,5.634,5.634,0,0,1,.973,6.586c-.378.685-.868,1.307-1.306,1.958m-4.426-4.55a2.948,2.948,0,1,0,2.943-2.949,2.9,2.9,0,0,0-2.943,2.949" transform="translate(-28.126 -137.308)" fill="#8e7f8e"/>
          <path id="Trazado_728063" data-name="Trazado 728063" d="M266.6,176.415a4.687,4.687,0,0,1-5.367-1.7,4.853,4.853,0,0,1,.087-5.827,4.715,4.715,0,0,1,5.293-1.569,2.091,2.091,0,0,0,.318.547,5.621,5.621,0,0,1,.976,6.591c-.388.68-.869,1.307-1.308,1.959m-1.5-7.5a2.954,2.954,0,0,0,.055,5.908,2.954,2.954,0,0,0-.055-5.908" transform="translate(-213.99 -137.321)" fill="#8e7f8e"/>
          <path id="Trazado_728064" data-name="Trazado 728064" d="M317.217,79.942c-2.633.01-5.267.026-7.9.019a.537.537,0,0,1-.416-.286c-.227-.966-.412-1.942-.618-2.953h8.94q0,1.61-.005,3.22" transform="translate(-253.431 -63.071)" fill="#e1dde1"/>
          <path id="Trazado_728065" data-name="Trazado 728065" d="M322.28,109.642H315.1l-.675-3.191h7.856l0,3.191" transform="translate(-258.483 -87.511)" fill="#e1dde1"/>
          <path id="Trazado_728066" data-name="Trazado 728066" d="M327.364,139.363c-1.885.011-3.769.031-5.654.018a.587.587,0,0,1-.428-.355c-.241-1.034-.438-2.079-.659-3.167h6.749q0,1.752-.008,3.5" transform="translate(-263.576 -111.686)" fill="#e0dce0"/>
          <path id="Trazado_728067" data-name="Trazado 728067" d="M330.248,20.936a17.176,17.176,0,0,0-.18-3.3,4.709,4.709,0,0,0-1.325-2.072c-1.113-1.1-2.363-2.052-3.538-3.086-.388-.341-.724-.742-1.084-1.115a3.664,3.664,0,0,1,2.624.933c1.612,1.357,3.2,2.74,4.794,4.122a3.154,3.154,0,0,1,1.11,2.534c-.007.641,0,1.282,0,1.982Z" transform="translate(-266.451 -9.339)" fill="#c9c2ca"/>
          <path id="Trazado_728068" data-name="Trazado 728068" d="M295.691,177.685c.438-.651.92-1.279,1.308-1.959a5.622,5.622,0,0,0-.976-6.591,2.083,2.083,0,0,1-.318-.547,4.755,4.755,0,0,1,3.324,4.558,4.707,4.707,0,0,1-3.338,4.539" transform="translate(-243.08 -138.592)" fill="#807481"/>
          <path id="Trazado_728069" data-name="Trazado 728069" d="M15.2,167.4a7.22,7.22,0,0,0-1.77,3.334.639.639,0,0,1-.465.388c-1.687.024-1.8.193-1.756-1.637.016-.685,0-1.371,0-2.085Z" transform="translate(-9.208 -137.619)" fill="#a599a5"/>
          <path id="Trazado_728070" data-name="Trazado 728070" d="M69.632,177.7c.439-.651.928-1.274,1.306-1.958a5.635,5.635,0,0,0-.973-6.586,2.412,2.412,0,0,1-.321-.546c3.149.818,4.389,5.071,2.214,7.617a4.124,4.124,0,0,1-2.226,1.474" transform="translate(-57.243 -138.611)" fill="#817582"/>
          <path id="Trazado_728071" data-name="Trazado 728071" d="M94.581,167.2h2.867v3.771c-.644,0-1.257.017-1.868-.015-.115-.006-.269-.185-.322-.318-.278-.7-.529-1.4-.789-2.1l.113-1.334" transform="translate(-77.66 -137.451)" fill="#8e7f8e"/>
          <path id="Trazado_728072" data-name="Trazado 728072" d="M358.508,139.363q0-1.752.008-3.5h2.356v3.5Z" transform="translate(-294.72 -111.686)" fill="#c2bcc3"/>
          <path id="Trazado_728073" data-name="Trazado 728073" d="M204.372,170.925c.375-.976.757-1.951,1.122-2.931a8.077,8.077,0,0,0,.214-.818h2.364c-.489,1.235-.936,2.4-1.422,3.546-.053.125-.323.215-.5.22-.594.019-1.189-.008-1.783-.017" transform="translate(-168.009 -137.431)" fill="#8f818f"/>
          <path id="Trazado_728074" data-name="Trazado 728074" d="M358.7,167.253h2.257c0,1.09.031,2.17-.03,3.246-.01.183-.4.463-.64.49a13.277,13.277,0,0,1-1.72,0q.067-1.867.134-3.734" transform="translate(-294.771 -137.494)" fill="#918291"/>
          <path id="Trazado_728075" data-name="Trazado 728075" d="M358.5,79.942q0-1.61.005-3.22h2.357v3.22Z" transform="translate(-294.713 -63.071)" fill="#bdb7be"/>
          <path id="Trazado_728076" data-name="Trazado 728076" d="M358.558,109.642l0-3.191h2.353v3.191Z" transform="translate(-294.761 -87.511)" fill="#cbc4cc"/>
          <path id="Trazado_728077" data-name="Trazado 728077" d="M349.194,167.253q-.067,1.867-.134,3.734c-.145-.069-.369-.1-.424-.214-.551-1.145-1.075-2.3-1.635-3.519Z" transform="translate(-285.261 -137.494)" fill="#a498a4"/>
          <path id="Trazado_728078" data-name="Trazado 728078" d="M90.123,167.2l-.113,1.334-.965-1.334Z" transform="translate(-73.202 -137.451)" fill="#a498a4"/>
          <path id="Trazado_728079" data-name="Trazado 728079" d="M191.348,58.669c.744,1.251,1.445,2.455,2.173,3.643a2.506,2.506,0,0,1-2.267,3.988c-1.108-.017-2.218.014-3.326-.013a1.139,1.139,0,0,0-1.042.431c-.08.105-.193.184-.281.283-.346.384-.784.731-1.27.466-.368-.2-.6-.659-1.028-1.171-1.18,0-2.641-.015-4.1,0a2.527,2.527,0,0,1-2.453-1.284,2.472,2.472,0,0,1,.189-2.7c.486-.768.888-1.592,1.409-2.334a1.963,1.963,0,0,0,.3-1.861c-.149-.465-.212-.995.244-1.272a4.1,4.1,0,0,1,1.246-.3l.1.214q1.155-1.933,2.309-3.866a2.4,2.4,0,0,1,1.9-1.293,2.338,2.338,0,0,1,2.368,1.157c.594.962,1.194,1.924,1.729,2.919a1.4,1.4,0,0,0,1.261.885.376.376,0,0,1,.066.01c.508.1,1.036.2,1.188.8a1.051,1.051,0,0,1-.716,1.288m-1.614,1.211c-1.35.388-1.888-.122-1.624-1.477a5.3,5.3,0,0,0,.123-.653.937.937,0,0,0-.075-.505c-.657-1.131-1.322-2.258-2.011-3.371-.246-.4-.591-.406-.839,0-.817,1.342-1.612,2.7-2.272,3.807a4.7,4.7,0,0,1,.573,1.426c0,.595-.536.8-1.071.9a4.98,4.98,0,0,0-.714.149.792.792,0,0,0-.412.273q-.957,1.559-1.874,3.142c-.232.4-.028.693.375.7,1.565.031,3.131.013,4.7.013l-.146-.2a4.214,4.214,0,0,1,.9-.989c.5-.283.911.111,1.256.48a5.739,5.739,0,0,0,.518.516.717.717,0,0,0,.4.185c1.308.014,2.616.022,3.924,0,.5-.009.685-.327.433-.766-.7-1.227-1.443-2.434-2.161-3.638" transform="translate(-145.864 -42.413)" fill="#020302"/>
          <path id="Trazado_728080" data-name="Trazado 728080" d="M34.617,77.237c-1.028.087-2.059.15-3.083.274a1.664,1.664,0,0,0-.9.387c-.753.721-1.455,1.5-2.172,2.254a2.89,2.89,0,0,1-2.136.925c-.865.014-1.731.019-2.6,0a2.1,2.1,0,0,1-2.162-2.2,6.958,6.958,0,0,1,.037-1.726,4.753,4.753,0,0,1,.83-1.839c1.61-1.952,3.306-3.833,4.958-5.751a2.877,2.877,0,0,1,2.2-1.079q2-.036,3.992.006a4.827,4.827,0,0,1,1.025.247,2.505,2.505,0,0,1,1.054,2.291c-.036,1.326-.032,2.654,0,3.981a2.473,2.473,0,0,1-1.043,2.231m-9.727,1.81a3.522,3.522,0,0,0,.719.024,3.021,3.021,0,0,0,1.4-.344,28.785,28.785,0,0,0,2.173-2.282,2.23,2.23,0,0,1,2.1-.973h2.334V70.514H31.281a7.862,7.862,0,0,1-.792-.045,2.118,2.118,0,0,0-2.093.957c-1.276,1.563-2.571,3.121-3.976,4.565a3.324,3.324,0,0,0-.8,3.056H24.89" transform="translate(-17.699 -56.282)" fill="#020404"/>
          <path id="Trazado_728081" data-name="Trazado 728081" d="M44.755,180.51a2.948,2.948,0,1,1,5.9,0,2.948,2.948,0,1,1-5.9,0m2.927-.95a.92.92,0,0,0-.932.984.936.936,0,0,0,.931.924.959.959,0,0,0,.972-.958.937.937,0,0,0-.971-.95" transform="translate(-36.792 -145.968)" fill="#020202"/>
          <path id="Trazado_728082" data-name="Trazado 728082" d="M273.761,177.563a2.954,2.954,0,1,1-2.916,2.976,2.916,2.916,0,0,1,2.916-2.976m.98,2.968a.928.928,0,0,0-.949-.97.916.916,0,0,0-.951.9.94.94,0,0,0,.911,1.01.953.953,0,0,0,.989-.938" transform="translate(-222.654 -145.969)" fill="#020202"/>
          <path id="Trazado_728083" data-name="Trazado 728083" d="M199,69.032c.718,1.2,1.457,2.411,2.161,3.638.252.439.068.758-.433.766-1.308.022-2.616.014-3.924,0a.717.717,0,0,1-.4-.185,5.744,5.744,0,0,1-.518-.516c-.346-.369-.752-.763-1.256-.48a4.214,4.214,0,0,0-.9.989l.146.2c-1.566,0-3.131.018-4.7-.013-.4-.008-.607-.3-.375-.7q.916-1.583,1.874-3.142a.792.792,0,0,1,.412-.273,4.978,4.978,0,0,1,.714-.149c.535-.1,1.073-.305,1.071-.9a4.7,4.7,0,0,0-.573-1.426c.66-1.109,1.455-2.465,2.272-3.807.249-.408.593-.4.839,0,.688,1.112,1.353,2.24,2.011,3.371a.937.937,0,0,1,.075.505,5.3,5.3,0,0,1-.123.653c-.264,1.355.274,1.865,1.624,1.477" transform="translate(-155.134 -51.565)" fill="#95d779"/>
          <path id="Trazado_728084" data-name="Trazado 728084" d="M40.638,84.606a2.23,2.23,0,0,0-2.1.973,6.468,6.468,0,0,0-1.312.056c-1.405.345-2.091,1.572-2.979,2.546H32.968a3.324,3.324,0,0,1,.8-3.056c1.405-1.444,2.7-3,3.976-4.565a2.118,2.118,0,0,1,2.093-.957,7.86,7.86,0,0,0,.792.045q0,2.479,0,4.958" transform="translate(-27.051 -65.417)" fill="#ddf4fb"/>
          <path id="Trazado_728085" data-name="Trazado 728085" d="M76.34,84.942q0-2.479,0-4.958h2.339v4.958Z" transform="translate(-62.753 -65.753)" fill="#c1e6f4"/>
          <path id="Trazado_728086" data-name="Trazado 728086" d="M40.415,115.9c.888-.974,1.574-2.2,2.979-2.546a6.469,6.469,0,0,1,1.312-.056,28.782,28.782,0,0,1-2.173,2.282,3.021,3.021,0,0,1-1.4.344,3.521,3.521,0,0,1-.719-.024" transform="translate(-33.224 -93.131)" fill="#c2e6f5"/>
          <path id="Trazado_728087" data-name="Trazado 728087" d="M56.9,188.793a.937.937,0,0,1,.971.95.959.959,0,0,1-.972.958.936.936,0,0,1-.931-.924.92.92,0,0,1,.932-.984" transform="translate(-46.009 -155.201)" fill="#dad6da"/>
          <path id="Trazado_728088" data-name="Trazado 728088" d="M283.957,189.766a.953.953,0,0,1-.989.938.94.94,0,0,1-.911-1.01.916.916,0,0,1,.951-.9.928.928,0,0,1,.949.97" transform="translate(-231.871 -155.204)" fill="#dad6da"/>
        </g>
      </g>
      <rect id="Rectángulo_344199" data-name="Rectángulo 344199" width="69" height="72" transform="translate(197.588 1695.671)" fill="none"/>
    </g>
  </g>
</svg>
